<svg width="136" height="199" viewBox="0 0 136 199" fill="none" xmlns="http://www.w3.org/2000/svg">
<path fill-rule="evenodd" clip-rule="evenodd" d="M17.4077 86.9282C-0.410598 56.5536 -0.837323 22.6847 4.28295 0.718061L2.90706 0.398737C-2.2361 22.5762 -1.85514 56.8666 16.2599 87.6572C33.2906 116.624 66.057 142.388 124.416 152.108C108.458 153.027 96.7528 159.269 88.4496 167.243C78.2791 177.062 73.2637 189.401 71.6633 197.844L73.0906 198.083C74.5368 189.88 79.5294 177.752 89.4143 168.2C99.2993 158.648 114.208 151.644 135.749 153.631L135.869 152.919L135.989 152.207L135.778 152.184L135.881 152.025C108.958 138.58 97.5597 123.486 94.0455 110.183C90.5314 96.8793 94.873 85.2355 100.036 78.628L98.8883 77.7789C93.52 84.7054 89.0013 96.7992 92.6295 110.627C96.1437 123.93 107.245 138.608 132.107 151.745C69.3911 143.174 34.952 116.676 17.4077 86.9282Z" fill="#737477"/>
</svg>
