<svg width="890" height="506" viewBox="0 0 890 506" fill="none" xmlns="http://www.w3.org/2000/svg">
<path d="M558.525 -81.6651C495.958 -111.096 409.687 -76.755 366.197 -5.21623C322.707 66.3225 338.141 148.504 400.708 177.935C463.275 207.366 549.546 173.025 593.036 101.486C636.587 29.8486 621.093 -52.2342 558.525 -81.6651ZM402.696 174.666C341.726 145.986 326.72 65.9166 369.186 -3.9377C411.592 -73.6929 495.821 -107.21 556.658 -78.5935C617.628 -49.914 632.634 30.1554 590.168 100.01C547.835 169.927 463.665 203.345 402.696 174.666Z" fill="url(#paint0_linear_940_11088)" fill-opacity="0.02"/>
<path d="M568.602 -95.2138C490.655 -131.879 382.837 -88.9694 328.431 0.524002C274.026 90.0174 293.383 192.621 371.33 229.287C449.277 265.952 557.095 223.042 611.44 133.648C665.785 44.2541 646.683 -58.4856 568.602 -95.2138ZM373.262 226.108C296.781 190.132 278.044 89.6084 331.363 1.90288C384.681 -85.8027 490.261 -127.85 566.743 -91.8734C643.224 -55.8972 662.094 44.6891 608.775 132.395C555.324 220.038 449.744 262.084 373.262 226.108Z" fill="url(#paint1_linear_940_11088)" fill-opacity="0.02"/>
<path d="M584.42 -113.768C490.959 -157.731 361.912 -106.493 296.878 0.483553C231.845 107.46 255.054 230.318 348.515 274.281C441.976 318.244 571.023 267.005 636.057 160.029C701.09 53.0533 678.014 -69.7422 584.42 -113.768ZM350.504 271.009C258.51 227.736 235.729 106.992 299.678 1.80056C363.626 -103.391 490.436 -153.769 582.431 -110.496C674.425 -67.223 697.206 53.5209 633.257 158.712C569.308 263.904 442.498 314.282 350.504 271.009Z" fill="url(#paint2_linear_940_11088)" fill-opacity="0.02"/>
<path d="M582.129 -126.021C473.39 -177.171 323.167 -117.288 247.202 7.67018C171.297 132.529 198.031 275.778 306.77 326.928C415.642 378.14 565.925 318.158 641.83 193.299C717.795 68.3406 691.001 -74.8089 582.129 -126.021ZM308.702 323.749C201.56 273.351 175.179 132.056 249.997 8.98492C324.814 -114.086 473.054 -173.241 580.196 -122.843C687.338 -72.4442 713.78 68.7512 638.902 191.922C564.084 314.992 415.977 374.21 308.702 323.749Z" fill="url(#paint3_linear_940_11088)" fill-opacity="0.02"/>
<defs>
<linearGradient id="paint0_linear_940_11088" x1="340.289" y1="235.477" x2="526.475" y2="-99.4801" gradientUnits="userSpaceOnUse">
<stop stop-color="#4834C4"/>
<stop offset="0.0001" stop-color="#EFECFF"/>
<stop offset="1" stop-color="#F5F3FF"/>
</linearGradient>
<linearGradient id="paint1_linear_940_11088" x1="295.854" y1="301.236" x2="528.642" y2="-117.432" gradientUnits="userSpaceOnUse">
<stop stop-color="#4834C4"/>
<stop offset="0.0001" stop-color="#EFECFF"/>
<stop offset="1" stop-color="#F5F3FF"/>
</linearGradient>
<linearGradient id="paint2_linear_940_11088" x1="258.193" y1="360.29" x2="536.492" y2="-140.407" gradientUnits="userSpaceOnUse">
<stop stop-color="#4834C4"/>
<stop offset="0.0001" stop-color="#EFECFF"/>
<stop offset="1" stop-color="#F5F3FF"/>
</linearGradient>
<linearGradient id="paint3_linear_940_11088" x1="201.52" y1="427.405" x2="526.495" y2="-156.965" gradientUnits="userSpaceOnUse">
<stop stop-color="#4834C4"/>
<stop offset="0.0001" stop-color="#EFECFF"/>
<stop offset="1" stop-color="#F5F3FF"/>
</linearGradient>
</defs>
</svg>
