<svg width="45" height="47" viewBox="0 0 45 47" fill="none" xmlns="http://www.w3.org/2000/svg">
<path d="M41.9662 9.67073L9.67078 1L1.00005 33.2954L33.2954 41.9661L41.9662 9.67073Z" stroke="#F9FBFC" stroke-opacity="0.1" stroke-width="1.3" stroke-miterlimit="10" stroke-linejoin="round"/>
<path d="M41.2556 12.3203L44.0496 13.0693L35.3796 45.3653L3.08362 36.6953L3.7966 34.0393" stroke="#F9FBFC" stroke-opacity="0.1" stroke-width="1.3" stroke-miterlimit="10" stroke-linejoin="round"/>
<path d="M15.6726 7.35035C15.4096 8.32835 14.4046 8.90836 13.4266 8.64536C12.4486 8.38336 11.8686 7.37736 12.1316 6.39936C12.3946 5.42136 13.3996 4.84136 14.3776 5.10436C15.3546 5.36636 15.9346 6.37235 15.6726 7.35035Z" stroke="#F9FBFC" stroke-opacity="0.1" stroke-width="1.3" stroke-miterlimit="10" stroke-linejoin="round"/>
<path d="M22.9266 9.29762C22.6646 10.2756 21.6586 10.8556 20.6806 10.5926C19.7026 10.3306 19.1226 9.32462 19.3856 8.34662C19.6486 7.36862 20.6536 6.78862 21.6316 7.05162C22.6096 7.31462 23.1886 8.31962 22.9266 9.29762Z" stroke="#F9FBFC" stroke-opacity="0.1" stroke-width="1.3" stroke-miterlimit="10" stroke-linejoin="round"/>
<path d="M30.1806 11.2449C29.9176 12.2229 28.9126 12.8029 27.9346 12.5399C26.9566 12.2769 26.3766 11.2719 26.6396 10.2939C26.9026 9.31589 27.9076 8.73589 28.8856 8.99889C29.8636 9.26089 30.4436 10.2669 30.1806 11.2449Z" stroke="#F9FBFC" stroke-opacity="0.1" stroke-width="1.3" stroke-miterlimit="10" stroke-linejoin="round"/>
<path d="M37.4357 13.1922C37.1737 14.1702 36.1677 14.7502 35.1897 14.4872C34.2117 14.2242 33.6316 13.2192 33.8946 12.2412C34.1576 11.2632 35.1626 10.6832 36.1406 10.9462C37.1176 11.2092 37.6977 12.2142 37.4357 13.1922Z" stroke="#F9FBFC" stroke-opacity="0.1" stroke-width="1.3" stroke-miterlimit="10" stroke-linejoin="round"/>
<path d="M9.24963 14.9863L35.3276 21.9873" stroke="#F9FBFC" stroke-opacity="0.1" stroke-width="1.3" stroke-miterlimit="10" stroke-linejoin="round"/>
<path d="M8.1156 19.2129L34.1926 26.2129" stroke="#F9FBFC" stroke-opacity="0.1" stroke-width="1.3" stroke-miterlimit="10" stroke-linejoin="round"/>
<path d="M6.98169 23.4375L33.0587 30.4385" stroke="#F9FBFC" stroke-opacity="0.1" stroke-width="1.3" stroke-miterlimit="10" stroke-linejoin="round"/>
<path d="M5.84668 27.6621L31.9247 34.6631" stroke="#F9FBFC" stroke-opacity="0.1" stroke-width="1.3" stroke-miterlimit="10" stroke-linejoin="round"/>
</svg>
