<svg width="46" height="57" viewBox="0 0 46 57" fill="none" xmlns="http://www.w3.org/2000/svg">
<path d="M1 4.76701L1.54901 42.884L1.742 56.306C18.166 47.386 43.56 48.947 44.975 49.103C44.972 48.98 44.971 48.853 44.968 48.731C44.659 47.218 44.36 45.654 44.073 44.045C43.379 44.209 42.634 43.912 42.266 43.259C41.821 42.469 42.101 41.467 42.891 41.022C43.092 40.909 43.307 40.844 43.522 40.821C43.224 39.007 42.941 37.157 42.671 35.294C41.993 35.429 41.277 35.132 40.919 34.497C40.474 33.706 40.754 32.705 41.544 32.26C41.758 32.14 41.987 32.076 42.217 32.058C41.98 30.31 41.754 28.562 41.54 26.831C40.899 26.91 40.245 26.605 39.908 26.008C39.463 25.218 39.743 24.216 40.533 23.771C40.729 23.661 40.938 23.595 41.148 23.571C40.957 21.928 40.776 20.313 40.607 18.739C40.013 18.76 39.429 18.464 39.117 17.911C38.672 17.121 38.952 16.119 39.742 15.674C39.909 15.58 40.087 15.525 40.266 15.493C40.091 13.777 39.931 12.132 39.785 10.58C39.19 10.602 38.604 10.306 38.292 9.75203C37.847 8.96103 38.127 7.96003 38.917 7.51503C39.099 7.41303 39.292 7.35303 39.486 7.32503C39.345 5.73703 39.223 4.30201 39.118 3.03401C20.718 -2.39699 1 4.76701 1 4.76701Z" stroke="#F9FBFC" stroke-opacity="0.1" stroke-width="1.3" stroke-miterlimit="10" stroke-linejoin="round"/>
<path d="M7.00403 17.0514C7.00403 17.0514 19.273 9.46639 31.487 14.8414" stroke="#F9FBFC" stroke-opacity="0.1" stroke-width="1.3" stroke-miterlimit="10" stroke-linejoin="round"/>
<path d="M7.56604 23.8268C7.56604 23.8268 19.835 16.2418 32.049 21.6168" stroke="#F9FBFC" stroke-opacity="0.1" stroke-width="1.3" stroke-miterlimit="10" stroke-linejoin="round"/>
</svg>
