<svg width="74" height="74" viewBox="0 0 74 74" fill="none" xmlns="http://www.w3.org/2000/svg">
<path d="M47.4298 62.6252C61.756 56.691 68.559 40.2666 62.6248 25.9404C56.6905 11.6141 40.2662 4.81108 25.94 10.7453C11.6137 16.6796 4.81066 33.1039 10.7449 47.4302C16.6791 61.7564 33.1035 68.5594 47.4298 62.6252Z" stroke="#F9FBFC" stroke-opacity="0.1" stroke-width="1.3" stroke-miterlimit="10" stroke-linejoin="round"/>
<path d="M36.6733 64.7664C45.574 64.7664 53.502 60.6201 58.6461 54.1583C57.6905 51.268 56.0359 52.9064 53.1862 51.7186C50.334 50.53 46.2933 52.5508 45.699 55.7593C45.1047 58.9679 42.3711 59.9186 40.9454 58.2551C39.5189 56.5915 41.5397 53.2636 38.5682 50.2921C35.5967 47.3206 30.8431 48.985 27.2773 49.5793C23.7115 50.1736 22.7608 53.9764 20.6215 53.7767C18.4822 53.577 18.1258 50.53 15.8671 51.1243C14.8458 51.393 14.3651 52.4014 14.1622 53.4714C19.2811 60.3278 27.4584 64.7664 36.6733 64.7664Z" stroke="#F9FBFC" stroke-opacity="0.1" stroke-width="1.3" stroke-miterlimit="10" stroke-linejoin="round"/>
<path d="M20.5021 32.8212C17.887 33.534 16.5799 32.7027 12.5392 32.1084C11.0152 31.8843 9.79663 32.3194 8.84916 32.9673C8.68759 34.186 8.59584 35.4265 8.59584 36.689C8.59584 40.6421 9.41668 44.4027 10.8911 47.8151C18.0941 48.7625 18.7712 42.3665 19.3127 40.3092C19.907 38.0513 21.452 37.1006 23.8292 36.6898C26.2064 36.279 26.9193 34.4856 26.0871 33.2978C25.2557 32.1084 23.1164 32.1084 20.5021 32.8212Z" stroke="#F9FBFC" stroke-opacity="0.1" stroke-width="1.3" stroke-miterlimit="10" stroke-linejoin="round"/>
<path d="M62.6616 26.0623C58.4715 15.8269 48.4171 8.61328 36.6724 8.61328C34.7369 8.61328 32.8468 8.80976 31.0217 9.18242C31.2214 10.272 31.7816 11.4102 33.2194 11.726C36.1901 12.3796 37.6621 10.5967 39.8379 11.726C42.0138 12.8554 43.083 13.4497 44.9844 13.2118C46.8859 12.9739 49.1218 16.4204 46.5181 18.9169C43.9143 21.4126 44.3901 26.7613 51.1645 26.642C57.938 26.5234 59.4254 29.8725 62.6616 26.0623Z" stroke="#F9FBFC" stroke-opacity="0.1" stroke-width="1.3" stroke-miterlimit="10" stroke-linejoin="round"/>
<path d="M20.032 17.971C19.061 18.208 17.5948 18.5742 15.5561 18.1975C14.0087 19.9633 12.6796 21.924 11.6104 24.0398C14.0696 24.0098 14.8165 21.8437 18.0121 21.5132C21.4585 21.1568 22.1721 19.6118 22.1721 18.9103C22.1713 18.208 21.1013 17.7096 20.032 17.971Z" stroke="#F9FBFC" stroke-opacity="0.1" stroke-width="1.3" stroke-miterlimit="10" stroke-linejoin="round"/>
<path d="M37.3788 41.8529C37.3788 41.8529 34.6452 41.7344 33.6945 42.923C32.7438 44.1116 34.0663 45.4187 36.6733 45.5372C39.2802 45.6558 39.9939 47.558 41.0631 47.4387C42.1324 47.3201 42.846 42.6851 37.3788 41.8529Z" stroke="#F9FBFC" stroke-opacity="0.1" stroke-width="1.3" stroke-miterlimit="10" stroke-linejoin="round"/>
</svg>
