<svg width="156" height="36" viewBox="0 0 156 36" fill="none" xmlns="http://www.w3.org/2000/svg">
<path d="M34.0984 24.5062H0.514038V23.8208H34.0984C35.2121 23.8208 35.2121 23.3924 35.2121 23.1354V22.707H35.9832V23.1354C35.9832 23.7351 35.6405 24.5062 34.0984 24.5062Z" fill="white"/>
<path d="M28.1869 19.0234H3.427V19.7945H28.1869V19.0234Z" fill="white"/>
<path d="M38.4678 34.1008C38.3821 34.1008 38.2964 34.1008 38.2964 34.1008C38.1251 34.0151 37.9537 33.8438 37.9537 33.5868V29.8171C37.9537 28.3606 37.354 26.9042 36.2402 25.8761C35.1265 24.848 33.7557 24.3339 32.2135 24.4196L3.34131 24.5053V23.7342L32.2135 23.6485C33.927 23.5629 35.5548 24.1626 36.7543 25.362C37.9537 26.5615 38.6391 28.1036 38.6391 29.8171V33.0727L49.7768 21.9351C50.9762 20.7356 51.6616 19.1935 51.6616 17.48C51.6616 14.9098 50.1195 12.6822 47.8063 11.6541L48.0633 10.9688C50.7192 12.0825 52.347 14.6527 52.347 17.48C52.347 19.3648 51.5759 21.164 50.2908 22.4491L38.8105 33.9295C38.7248 34.1008 38.6391 34.1008 38.4678 34.1008Z" fill="white"/>
<path d="M36.8399 34.7012H0.942383V33.9302H36.8399C37.9537 33.9302 37.9537 33.5018 37.9537 33.2448V32.8164H38.7247V33.2448C38.7247 33.9302 38.382 34.7012 36.8399 34.7012Z" fill="white"/>
<path d="M31.2712 29.1328H4.19812V29.9039H31.2712V29.1328Z" fill="white"/>
<path d="M0.0856743 13.6248L13.1938 2.23016C14.0506 1.37342 15.3357 0.859375 16.5351 0.859375H42.3231C46.0071 0.859375 49.0057 3.85798 49.0057 7.54197C49.0057 9.34113 48.3203 11.0546 47.0352 12.2541L35.5548 23.7344C35.4692 23.8201 35.2978 23.7344 35.2978 23.6487V19.8791C35.2978 16.5378 32.5562 13.9675 29.2149 14.0532L0.342697 14.2246C0 14.2246 -0.0856743 13.7962 0.0856743 13.6248Z" fill="white"/>
<path d="M67.5277 0.757948V2.27247C66.9041 1.91611 66.2359 1.69339 65.5232 1.69339C65.1223 1.69339 64.8105 1.78248 64.5878 1.96066C64.3651 2.13884 64.276 2.36156 64.276 2.62883C64.276 2.8961 64.4096 3.11882 64.6323 3.297C64.855 3.47518 65.2114 3.65336 65.7014 3.87608C66.0132 4.00972 66.325 4.14335 66.5032 4.27699C66.7259 4.41062 66.9487 4.54426 67.1714 4.76698C67.4386 4.94516 67.6168 5.21243 67.7059 5.4797C67.8396 5.74697 67.8841 6.05878 67.8841 6.41514C67.8841 7.1724 67.6168 7.75148 67.0823 8.19693C66.5923 8.68692 65.8796 8.90965 64.9887 8.90965C64.0532 8.90965 63.2514 8.73147 62.6278 8.37511V6.7715C63.3405 7.30604 64.1423 7.52876 64.9887 7.52876C65.3896 7.52876 65.6569 7.43967 65.9241 7.26149C66.1914 7.08331 66.2805 6.81604 66.2805 6.50423C66.2805 6.37059 66.2359 6.23696 66.1914 6.10333C66.1468 5.96969 66.0132 5.8806 65.835 5.74697C65.6569 5.61333 65.5232 5.56879 65.4341 5.4797C65.345 5.43515 65.1223 5.34606 64.855 5.21243C64.766 5.16788 64.7214 5.12334 64.6769 5.12334C64.3651 4.98971 64.0978 4.85607 63.9196 4.72244C63.7414 4.5888 63.5187 4.45517 63.296 4.27699C63.0733 4.09881 62.8951 3.87609 62.806 3.60882C62.6724 3.34155 62.6278 3.02973 62.6278 2.71792C62.6278 2.0052 62.8951 1.42612 63.4296 0.980672C63.9642 0.535224 64.6769 0.3125 65.5232 0.3125C66.2805 0.357045 66.9487 0.490679 67.5277 0.757948Z" fill="#09A24F"/>
<path d="M71.0913 3.60861V6.81584C71.0913 7.08311 71.1804 7.26129 71.3141 7.43947C71.4477 7.5731 71.6704 7.66219 71.8931 7.66219C72.205 7.66219 72.5168 7.5731 72.784 7.39492V8.68672C72.4722 8.82035 72.1159 8.90944 71.6704 8.90944C70.2895 8.90944 69.6214 8.24127 69.6214 6.86038V3.60861H68.6859V2.49499H69.6214V0.980469H71.1359V2.49499H72.6949V3.60861H71.0913Z" fill="#09A24F"/>
<path d="M77.9067 2.49219H79.4213V8.81755H77.9067V7.79302C77.5949 8.50574 76.9268 8.90664 75.9468 8.90664C75.3231 8.90664 74.7886 8.72846 74.4322 8.3721C74.0759 8.01574 73.8977 7.48121 73.8977 6.81303V2.49219H75.4122V6.41213C75.4122 6.81303 75.5013 7.12485 75.724 7.30303C75.9022 7.52575 76.1695 7.61484 76.5258 7.61484C76.9713 7.61484 77.2831 7.48121 77.5504 7.16939C77.7731 6.85758 77.9067 6.45668 77.9067 5.83305V2.49219Z" fill="#09A24F"/>
<path d="M85.3011 0H86.8156V8.81987H85.3011V7.83989C84.8557 8.5526 84.2321 8.90896 83.3857 8.90896C82.5393 8.90896 81.9157 8.59715 81.4257 7.97352C80.9357 7.34989 80.713 6.59263 80.713 5.65719C80.713 4.6772 80.9803 3.8754 81.4703 3.29632C81.9603 2.71723 82.6284 2.40542 83.4302 2.40542C84.2321 2.40542 84.9002 2.76178 85.3457 3.47449V0H85.3011ZM83.7421 7.61716C84.1875 7.61716 84.5439 7.43898 84.8557 7.08262C85.1675 6.72627 85.3011 6.23627 85.3011 5.5681C85.3011 4.94447 85.1229 4.45448 84.8111 4.14267C84.4993 3.83085 84.143 3.65267 83.7421 3.65267C83.2966 3.65267 82.9403 3.83085 82.6284 4.18721C82.3166 4.54357 82.183 5.03356 82.183 5.65719C82.183 6.23627 82.3166 6.68172 82.6284 7.03808C82.9403 7.43898 83.2966 7.61716 83.7421 7.61716Z" fill="#09A24F"/>
<path d="M90.2011 8.68392L87.7065 2.49219H89.3547L90.112 4.4967C90.3347 5.07579 90.5129 5.61032 90.6465 6.01123C90.7801 6.41213 90.8692 6.6794 90.9138 6.76849L90.9583 6.94667C91.0474 6.63485 91.3147 5.83305 91.7601 4.4967L92.4283 2.49219H93.9874L91.7156 8.63937C91.0919 10.3321 90.112 11.1784 88.8202 11.1784C88.5974 11.1784 88.3747 11.1784 88.1965 11.1339V9.88663C88.3302 9.93117 88.4638 9.93117 88.642 9.93117C89.3547 9.93117 89.8892 9.53027 90.2011 8.68392Z" fill="#09A24F"/>
<path d="M96.3928 0V3.56358C96.7492 2.80632 97.3728 2.40542 98.3082 2.40542C98.9319 2.40542 99.4218 2.5836 99.7782 2.9845C100.135 3.38541 100.357 3.91994 100.357 4.67721V8.81987H98.8428V4.94447C98.8428 4.54357 98.7537 4.23176 98.531 4.00903C98.3082 3.78631 98.0855 3.65267 97.7291 3.65267C97.3728 3.65267 97.061 3.78631 96.7492 4.05358C96.4819 4.32085 96.3037 4.76629 96.3037 5.38992V8.77533H94.7892V0H96.3928Z" fill="#09A24F"/>
<path d="M105.836 2.49219H107.351V8.81755H105.836V7.79302C105.524 8.50574 104.856 8.90664 103.876 8.90664C103.253 8.90664 102.718 8.72846 102.362 8.3721C102.005 8.01574 101.827 7.48121 101.827 6.81303V2.49219H103.342V6.41213C103.342 6.81303 103.431 7.12485 103.654 7.30303C103.832 7.52575 104.099 7.61484 104.455 7.61484C104.901 7.61484 105.213 7.48121 105.48 7.16939C105.703 6.85758 105.836 6.45668 105.836 5.83305V2.49219Z" fill="#09A24F"/>
<path d="M110.513 0V3.47449C110.959 2.76178 111.583 2.40542 112.429 2.40542C113.231 2.40542 113.854 2.71723 114.389 3.29632C114.879 3.8754 115.146 4.6772 115.146 5.65719C115.146 6.54809 114.923 7.30535 114.433 7.97352C113.943 8.59715 113.275 8.90896 112.473 8.90896C111.627 8.90896 111.003 8.5526 110.558 7.83989V8.81987H109.043V0H110.513ZM112.073 7.61716C112.518 7.61716 112.874 7.43898 113.142 7.08262C113.453 6.72627 113.587 6.28082 113.587 5.70174C113.587 5.07811 113.453 4.58812 113.142 4.23176C112.83 3.8754 112.473 3.69722 112.073 3.69722C111.672 3.69722 111.315 3.8754 111.003 4.18721C110.692 4.49903 110.513 4.98902 110.513 5.61265C110.513 6.28082 110.647 6.77081 110.959 7.12717C111.226 7.43898 111.627 7.61716 112.073 7.61716Z" fill="#09A24F"/>
<path d="M70.9861 26.1304V17.6178H74.1526V26.1098C74.1526 27.9192 73.6455 29.3037 72.6311 30.2633C71.6167 31.2091 70.2459 31.6821 68.5187 31.6821C66.8189 31.6821 65.455 31.2091 64.4269 30.2633C63.3988 29.3174 62.8848 27.9809 62.8848 26.2537V17.6178H66.0513V26.2332C66.0513 27.9467 66.8738 28.8034 68.5187 28.8034C70.1637 28.8034 70.9861 27.9124 70.9861 26.1304ZM79.6215 21.0516V22.8199C79.8819 22.2442 80.2795 21.7918 80.814 21.4628C81.3624 21.1201 82.0135 20.9488 82.7675 20.9488C83.8367 20.9488 84.6729 21.2709 85.276 21.9152C85.8791 22.5458 86.1807 23.4779 86.1807 24.7116V31.4764H83.1787V25.2668C83.1787 24.6499 83.0348 24.1838 82.7469 23.8686C82.459 23.5396 82.0546 23.3751 81.5337 23.3751C80.9854 23.3751 80.5262 23.5944 80.1561 24.0331C79.7997 24.458 79.6215 25.1023 79.6215 25.9659V31.4764H76.6195V21.0516H79.6215ZM88.6497 31.4764V21.0516H91.6517V31.4764H88.6497ZM88.917 19.2627C88.5743 18.92 88.4029 18.5088 88.4029 18.029C88.4029 17.5492 88.5743 17.138 88.917 16.7953C89.2597 16.4526 89.6709 16.2812 90.1507 16.2812C90.6305 16.2812 91.0417 16.4526 91.3844 16.7953C91.7271 17.138 91.8985 17.5492 91.8985 18.029C91.8985 18.5088 91.7271 18.92 91.3844 19.2627C91.0417 19.6054 90.6305 19.7768 90.1507 19.7768C89.6709 19.7768 89.2597 19.6054 88.917 19.2627ZM96.9436 31.4764L93.0986 21.0516H96.2445L97.6016 25.493C97.8072 26.1783 97.9854 26.8295 98.1362 27.4463C98.287 28.0495 98.383 28.4881 98.4241 28.7623L98.5063 29.153C98.6297 28.2619 98.9381 27.0419 99.4316 25.493L100.83 21.0516H103.914L100.028 31.4764H96.9436ZM111.278 25.3079V25.0612C111.182 23.8412 110.647 23.2311 109.674 23.2311C109.194 23.2311 108.769 23.4094 108.399 23.7658C108.029 24.1085 107.782 24.6225 107.659 25.3079H111.278ZM113.437 28.3716V30.8801C112.724 31.3462 111.634 31.5793 110.168 31.5793C108.454 31.5793 107.118 31.0858 106.158 30.0988C105.212 29.0981 104.739 27.8164 104.739 26.2537C104.739 24.5951 105.199 23.2997 106.117 22.3676C107.049 21.4217 108.194 20.9488 109.551 20.9488C110.949 20.9488 112.052 21.36 112.861 22.1825C113.67 22.9913 114.074 24.2044 114.074 25.8219C114.074 26.1372 114.02 26.6787 113.91 27.4463H107.782C107.988 28.0221 108.344 28.4676 108.852 28.7828C109.359 29.0981 109.969 29.2558 110.682 29.2558C111.737 29.2558 112.656 28.961 113.437 28.3716ZM119.198 21.0516V22.9844C119.39 22.3813 119.706 21.9015 120.144 21.5451C120.597 21.175 121.118 20.9899 121.707 20.9899C122.036 20.9899 122.296 21.0173 122.488 21.0722V23.9097C122.159 23.7589 121.782 23.6835 121.357 23.6835C120.713 23.6835 120.192 23.9234 119.795 24.4032C119.397 24.8692 119.198 25.493 119.198 26.2743V31.4764H116.196L116.217 21.0516H119.198ZM130.407 21.36V23.9303C129.681 23.5053 128.831 23.2928 127.857 23.2928C127.501 23.2928 127.227 23.3682 127.035 23.519C126.843 23.6561 126.747 23.8343 126.747 24.0536C126.747 24.177 126.781 24.2935 126.85 24.4032C126.918 24.5128 127.028 24.6156 127.179 24.7116C127.343 24.8076 127.494 24.8967 127.631 24.9789C127.782 25.0474 127.981 25.1365 128.228 25.2462C128.488 25.3559 128.694 25.4518 128.844 25.5341C129.475 25.8631 129.982 26.2469 130.366 26.6855C130.75 27.1105 130.942 27.6588 130.942 28.3305C130.942 29.3586 130.572 30.1536 129.831 30.7157C129.091 31.2777 128.111 31.5587 126.891 31.5587C125.63 31.5587 124.574 31.3462 123.724 30.9213V28.2482C124.67 28.9062 125.671 29.2352 126.727 29.2352C127.48 29.2352 127.857 28.9953 127.857 28.5155C127.857 28.3922 127.823 28.2757 127.755 28.166C127.686 28.0563 127.57 27.9535 127.405 27.8576C127.241 27.7616 127.09 27.6862 126.953 27.6314C126.816 27.5628 126.617 27.4737 126.356 27.3641C126.096 27.2544 125.897 27.1653 125.76 27.0968C124.376 26.4388 123.683 25.4518 123.683 24.1359C123.683 23.1215 124.067 22.3333 124.835 21.7713C125.616 21.2092 126.583 20.9282 127.734 20.9282C128.803 20.9282 129.694 21.0722 130.407 21.36ZM132.886 31.4764V21.0516H135.888V31.4764H132.886ZM133.153 19.2627C132.81 18.92 132.639 18.5088 132.639 18.029C132.639 17.5492 132.81 17.138 133.153 16.7953C133.496 16.4526 133.907 16.2812 134.387 16.2812C134.867 16.2812 135.278 16.4526 135.62 16.7953C135.963 17.138 136.134 17.5492 136.134 18.029C136.134 18.5088 135.963 18.92 135.62 19.2627C135.278 19.6054 134.867 19.7768 134.387 19.7768C133.907 19.7768 133.496 19.6054 133.153 19.2627ZM141.941 23.2517V28.0426C141.941 28.4127 142.043 28.6937 142.249 28.8857C142.468 29.0776 142.749 29.1735 143.092 29.1735C143.64 29.1735 144.127 29.0364 144.552 28.7623V31.2503C144.045 31.4696 143.359 31.5793 142.496 31.5793C140.124 31.5793 138.939 30.3935 138.939 28.0221V23.2517H137.438V21.0516H138.939V18.5842H141.941V21.0516H144.367V23.2517H141.941ZM149.297 31.3119L145.266 21.0516H148.536L149.667 24.3004C149.955 25.1365 150.188 25.8562 150.366 26.4594C150.558 27.0625 150.674 27.46 150.715 27.6519L150.777 27.9398C150.928 27.3915 151.298 26.1783 151.887 24.3004L152.916 21.0516H156L152.237 31.168C151.154 34.0878 149.502 35.5477 147.281 35.5477C146.856 35.5477 146.473 35.5134 146.13 35.4449V33.0597C146.349 33.1145 146.582 33.142 146.829 33.142C147.967 33.142 148.79 32.532 149.297 31.3119Z" fill="white"/>
</svg>
