<svg width="156" height="36" viewBox="0 0 156 36" fill="none" xmlns="http://www.w3.org/2000/svg">
<path d="M34.0984 24.5062H0.514038V23.8208H34.0984C35.2121 23.8208 35.2121 23.3924 35.2121 23.1354V22.707H35.9832V23.1354C35.9832 23.7351 35.6405 24.5062 34.0984 24.5062Z" fill="#36348E"/>
<path d="M28.1869 19.0215H3.427V19.7926H28.1869V19.0215Z" fill="#36348E"/>
<path d="M38.4678 34.1008C38.3821 34.1008 38.2964 34.1008 38.2964 34.1008C38.1251 34.0151 37.9537 33.8438 37.9537 33.5868V29.8171C37.9537 28.3606 37.354 26.9042 36.2402 25.8761C35.1265 24.848 33.7557 24.3339 32.2135 24.4196L3.34131 24.5053V23.7342L32.2135 23.6485C33.927 23.5629 35.5548 24.1626 36.7543 25.362C37.9537 26.5615 38.6391 28.1036 38.6391 29.8171V33.0727L49.7768 21.9351C50.9762 20.7356 51.6616 19.1935 51.6616 17.48C51.6616 14.9098 50.1195 12.6822 47.8063 11.6541L48.0633 10.9688C50.7192 12.0825 52.347 14.6527 52.347 17.48C52.347 19.3648 51.5759 21.164 50.2908 22.4491L38.8105 33.9295C38.7248 34.1008 38.6391 34.1008 38.4678 34.1008Z" fill="#36348E"/>
<path d="M36.8399 34.7012H0.942383V33.9302H36.8399C37.9537 33.9302 37.9537 33.5018 37.9537 33.2448V32.8164H38.7247V33.2448C38.7247 33.9302 38.382 34.7012 36.8399 34.7012Z" fill="#36348E"/>
<path d="M31.2712 29.1328H4.19812V29.9039H31.2712V29.1328Z" fill="#36348E"/>
<path d="M0.0856743 13.6248L13.1938 2.23016C14.0506 1.37342 15.3357 0.859375 16.5351 0.859375H42.3231C46.0071 0.859375 49.0057 3.85798 49.0057 7.54197C49.0057 9.34113 48.3203 11.0546 47.0352 12.2541L35.5548 23.7344C35.4692 23.8201 35.2978 23.7344 35.2978 23.6487V19.8791C35.2978 16.5378 32.5562 13.9675 29.2149 14.0532L0.342697 14.2246C0 14.2246 -0.0856743 13.7962 0.0856743 13.6248Z" fill="#36348E"/>
<path d="M67.5277 0.755995V2.27052C66.9041 1.91416 66.2359 1.69144 65.5232 1.69144C65.1223 1.69144 64.8105 1.78053 64.5878 1.9587C64.3651 2.13688 64.276 2.35961 64.276 2.62688C64.276 2.89415 64.4096 3.11687 64.6323 3.29505C64.855 3.47323 65.2114 3.65141 65.7014 3.87413C66.0132 4.00777 66.325 4.1414 66.5032 4.27504C66.7259 4.40867 66.9487 4.5423 67.1714 4.76503C67.4386 4.94321 67.6168 5.21048 67.7059 5.47775C67.8396 5.74501 67.8841 6.05683 67.8841 6.41319C67.8841 7.17045 67.6168 7.74953 67.0823 8.19498C66.5923 8.68497 65.8796 8.90769 64.9887 8.90769C64.0532 8.90769 63.2514 8.72952 62.6278 8.37316V6.76954C63.3405 7.30408 64.1423 7.52681 64.9887 7.52681C65.3896 7.52681 65.6569 7.43772 65.9241 7.25954C66.1914 7.08136 66.2805 6.81409 66.2805 6.50228C66.2805 6.36864 66.2359 6.23501 66.1914 6.10137C66.1468 5.96774 66.0132 5.87865 65.835 5.74501C65.6569 5.61138 65.5232 5.56683 65.4341 5.47775C65.345 5.4332 65.1223 5.34411 64.855 5.21048C64.766 5.16593 64.7214 5.12139 64.6769 5.12139C64.3651 4.98775 64.0978 4.85412 63.9196 4.72048C63.7414 4.58685 63.5187 4.45321 63.296 4.27504C63.0733 4.09686 62.8951 3.87413 62.806 3.60686C62.6724 3.33959 62.6278 3.02778 62.6278 2.71597C62.6278 2.00325 62.8951 1.42417 63.4296 0.978719C63.9642 0.533271 64.6769 0.310547 65.5232 0.310547C66.2805 0.355092 66.9487 0.488726 67.5277 0.755995Z" fill="#09A24F"/>
<path d="M71.0913 3.60861V6.81584C71.0913 7.08311 71.1804 7.26129 71.3141 7.43947C71.4477 7.5731 71.6704 7.66219 71.8931 7.66219C72.205 7.66219 72.5168 7.5731 72.784 7.39492V8.68672C72.4722 8.82035 72.1159 8.90944 71.6704 8.90944C70.2895 8.90944 69.6214 8.24127 69.6214 6.86038V3.60861H68.6859V2.49499H69.6214V0.980469H71.1359V2.49499H72.6949V3.60861H71.0913Z" fill="#09A24F"/>
<path d="M77.9067 2.49414H79.4213V8.8195H77.9067V7.79497C77.5949 8.50769 76.9268 8.90859 75.9468 8.90859C75.3231 8.90859 74.7886 8.73041 74.4322 8.37405C74.0759 8.0177 73.8977 7.48316 73.8977 6.81499V2.49414H75.4122V6.41408C75.4122 6.81499 75.5013 7.1268 75.724 7.30498C75.9022 7.5277 76.1695 7.61679 76.5258 7.61679C76.9713 7.61679 77.2831 7.48316 77.5504 7.17135C77.7731 6.85953 77.9067 6.45863 77.9067 5.835V2.49414Z" fill="#09A24F"/>
<path d="M85.3011 0H86.8156V8.81987H85.3011V7.83989C84.8557 8.5526 84.2321 8.90896 83.3857 8.90896C82.5393 8.90896 81.9157 8.59715 81.4257 7.97352C80.9357 7.34989 80.713 6.59263 80.713 5.65719C80.713 4.6772 80.9803 3.8754 81.4703 3.29632C81.9603 2.71723 82.6284 2.40542 83.4302 2.40542C84.2321 2.40542 84.9002 2.76178 85.3457 3.47449V0H85.3011ZM83.7421 7.61716C84.1875 7.61716 84.5439 7.43898 84.8557 7.08262C85.1675 6.72627 85.3011 6.23627 85.3011 5.5681C85.3011 4.94447 85.1229 4.45448 84.8111 4.14267C84.4993 3.83085 84.143 3.65267 83.7421 3.65267C83.2966 3.65267 82.9403 3.83085 82.6284 4.18721C82.3166 4.54357 82.183 5.03356 82.183 5.65719C82.183 6.23627 82.3166 6.68172 82.6284 7.03808C82.9403 7.43898 83.2966 7.61716 83.7421 7.61716Z" fill="#09A24F"/>
<path d="M90.2011 8.68587L87.7065 2.49414H89.3547L90.112 4.49866C90.3347 5.07774 90.5129 5.61228 90.6465 6.01318C90.7801 6.41408 90.8692 6.68135 90.9138 6.77044L90.9583 6.94862C91.0474 6.63681 91.3147 5.835 91.7601 4.49866L92.4283 2.49414H93.9874L91.7156 8.64132C91.0919 10.334 90.112 11.1804 88.8202 11.1804C88.5974 11.1804 88.3747 11.1804 88.1965 11.1358V9.88858C88.3302 9.93312 88.4638 9.93312 88.642 9.93312C89.3547 9.93312 89.8892 9.53222 90.2011 8.68587Z" fill="#09A24F"/>
<path d="M96.3928 0V3.56358C96.7492 2.80632 97.3728 2.40542 98.3082 2.40542C98.9319 2.40542 99.4218 2.5836 99.7782 2.9845C100.135 3.38541 100.357 3.91994 100.357 4.67721V8.81987H98.8428V4.94447C98.8428 4.54357 98.7537 4.23176 98.531 4.00903C98.3082 3.78631 98.0855 3.65267 97.7291 3.65267C97.3728 3.65267 97.061 3.78631 96.7492 4.05358C96.4819 4.32085 96.3037 4.76629 96.3037 5.38992V8.77533H94.7892V0H96.3928Z" fill="#09A24F"/>
<path d="M105.836 2.49414H107.351V8.8195H105.836V7.79497C105.524 8.50769 104.856 8.90859 103.876 8.90859C103.253 8.90859 102.718 8.73041 102.362 8.37405C102.005 8.0177 101.827 7.48316 101.827 6.81499V2.49414H103.342V6.41408C103.342 6.81499 103.431 7.1268 103.654 7.30498C103.832 7.5277 104.099 7.61679 104.455 7.61679C104.901 7.61679 105.213 7.48316 105.48 7.17135C105.703 6.85953 105.836 6.45863 105.836 5.835V2.49414Z" fill="#09A24F"/>
<path d="M110.513 0V3.47449C110.959 2.76178 111.583 2.40542 112.429 2.40542C113.231 2.40542 113.854 2.71723 114.389 3.29632C114.879 3.8754 115.146 4.6772 115.146 5.65719C115.146 6.54809 114.923 7.30535 114.433 7.97352C113.943 8.59715 113.275 8.90896 112.473 8.90896C111.627 8.90896 111.003 8.5526 110.558 7.83989V8.81987H109.043V0H110.513ZM112.073 7.61716C112.518 7.61716 112.874 7.43898 113.142 7.08262C113.453 6.72627 113.587 6.28082 113.587 5.70174C113.587 5.07811 113.453 4.58812 113.142 4.23176C112.83 3.8754 112.473 3.69722 112.073 3.69722C111.672 3.69722 111.315 3.8754 111.003 4.18721C110.692 4.49903 110.513 4.98902 110.513 5.61265C110.513 6.28082 110.647 6.77081 110.959 7.12717C111.226 7.43898 111.627 7.61716 112.073 7.61716Z" fill="#09A24F"/>
<path d="M70.9861 26.1284V17.6158H74.1526V26.1079C74.1526 27.9173 73.6455 29.3018 72.6311 30.2613C71.6167 31.2072 70.2459 31.6801 68.5187 31.6801C66.8189 31.6801 65.455 31.2072 64.4269 30.2613C63.3988 29.3155 62.8848 27.979 62.8848 26.2518V17.6158H66.0513V26.2312C66.0513 27.9447 66.8738 28.8015 68.5187 28.8015C70.1637 28.8015 70.9861 27.9104 70.9861 26.1284ZM79.6215 21.0496V22.818C79.8819 22.2422 80.2795 21.7899 80.814 21.4609C81.3624 21.1182 82.0135 20.9468 82.7675 20.9468C83.8367 20.9468 84.6729 21.269 85.276 21.9132C85.8791 22.5438 86.1807 23.4759 86.1807 24.7096V31.4745H83.1787V25.2648C83.1787 24.648 83.0348 24.1819 82.7469 23.8666C82.459 23.5376 82.0546 23.3731 81.5337 23.3731C80.9854 23.3731 80.5262 23.5925 80.1561 24.0311C79.7997 24.4561 79.6215 25.1003 79.6215 25.9639V31.4745H76.6195V21.0496H79.6215ZM88.6497 31.4745V21.0496H91.6517V31.4745H88.6497ZM88.917 19.2608C88.5743 18.9181 88.4029 18.5068 88.4029 18.0271C88.4029 17.5473 88.5743 17.136 88.917 16.7933C89.2597 16.4506 89.6709 16.2793 90.1507 16.2793C90.6305 16.2793 91.0417 16.4506 91.3844 16.7933C91.7271 17.136 91.8985 17.5473 91.8985 18.0271C91.8985 18.5068 91.7271 18.9181 91.3844 19.2608C91.0417 19.6035 90.6305 19.7748 90.1507 19.7748C89.6709 19.7748 89.2597 19.6035 88.917 19.2608ZM96.9436 31.4745L93.0986 21.0496H96.2445L97.6016 25.491C97.8072 26.1764 97.9854 26.8275 98.1362 27.4444C98.287 28.0475 98.383 28.4862 98.4241 28.7603L98.5063 29.151C98.6297 28.26 98.9381 27.04 99.4316 25.491L100.83 21.0496H103.914L100.028 31.4745H96.9436ZM111.278 25.3059V25.0592C111.182 23.8392 110.647 23.2292 109.674 23.2292C109.194 23.2292 108.769 23.4074 108.399 23.7638C108.029 24.1065 107.782 24.6205 107.659 25.3059H111.278ZM113.437 28.3697V30.8782C112.724 31.3443 111.634 31.5773 110.168 31.5773C108.454 31.5773 107.118 31.0838 106.158 30.0968C105.212 29.0962 104.739 27.8145 104.739 26.2518C104.739 24.5931 105.199 23.2977 106.117 22.3656C107.049 21.4198 108.194 20.9468 109.551 20.9468C110.949 20.9468 112.052 21.3581 112.861 22.1805C113.67 22.9893 114.074 24.2025 114.074 25.82C114.074 26.1353 114.02 26.6767 113.91 27.4444H107.782C107.988 28.0201 108.344 28.4656 108.852 28.7809C109.359 29.0962 109.969 29.2538 110.682 29.2538C111.737 29.2538 112.656 28.9591 113.437 28.3697ZM119.198 21.0496V22.9825C119.39 22.3793 119.706 21.8995 120.144 21.5431C120.597 21.173 121.118 20.988 121.707 20.988C122.036 20.988 122.296 21.0154 122.488 21.0702V23.9077C122.159 23.7569 121.782 23.6816 121.357 23.6816C120.713 23.6816 120.192 23.9214 119.795 24.4012C119.397 24.8673 119.198 25.491 119.198 26.2723V31.4745H116.196L116.217 21.0496H119.198ZM130.407 21.3581V23.9283C129.681 23.5034 128.831 23.2909 127.857 23.2909C127.501 23.2909 127.227 23.3663 127.035 23.5171C126.843 23.6541 126.747 23.8323 126.747 24.0517C126.747 24.175 126.781 24.2916 126.85 24.4012C126.918 24.5109 127.028 24.6137 127.179 24.7096C127.343 24.8056 127.494 24.8947 127.631 24.977C127.782 25.0455 127.981 25.1346 128.228 25.2443C128.488 25.3539 128.694 25.4499 128.844 25.5321C129.475 25.8611 129.982 26.2449 130.366 26.6836C130.75 27.1085 130.942 27.6568 130.942 28.3285C130.942 29.3566 130.572 30.1517 129.831 30.7137C129.091 31.2757 128.111 31.5567 126.891 31.5567C125.63 31.5567 124.574 31.3443 123.724 30.9193V28.2463C124.67 28.9043 125.671 29.2333 126.727 29.2333C127.48 29.2333 127.857 28.9934 127.857 28.5136C127.857 28.3902 127.823 28.2737 127.755 28.164C127.686 28.0544 127.57 27.9516 127.405 27.8556C127.241 27.7597 127.09 27.6843 126.953 27.6294C126.816 27.5609 126.617 27.4718 126.356 27.3621C126.096 27.2525 125.897 27.1634 125.76 27.0948C124.376 26.4368 123.683 25.4499 123.683 24.1339C123.683 23.1195 124.067 22.3313 124.835 21.7693C125.616 21.2073 126.583 20.9263 127.734 20.9263C128.803 20.9263 129.694 21.0702 130.407 21.3581ZM132.886 31.4745V21.0496H135.888V31.4745H132.886ZM133.153 19.2608C132.81 18.9181 132.639 18.5068 132.639 18.0271C132.639 17.5473 132.81 17.136 133.153 16.7933C133.496 16.4506 133.907 16.2793 134.387 16.2793C134.867 16.2793 135.278 16.4506 135.62 16.7933C135.963 17.136 136.134 17.5473 136.134 18.0271C136.134 18.5068 135.963 18.9181 135.62 19.2608C135.278 19.6035 134.867 19.7748 134.387 19.7748C133.907 19.7748 133.496 19.6035 133.153 19.2608ZM141.941 23.2498V28.0407C141.941 28.4108 142.043 28.6918 142.249 28.8837C142.468 29.0756 142.749 29.1716 143.092 29.1716C143.64 29.1716 144.127 29.0345 144.552 28.7603V31.2483C144.045 31.4676 143.359 31.5773 142.496 31.5773C140.124 31.5773 138.939 30.3916 138.939 28.0201V23.2498H137.438V21.0496H138.939V18.5822H141.941V21.0496H144.367V23.2498H141.941ZM149.297 31.31L145.266 21.0496H148.536L149.667 24.2984C149.955 25.1346 150.188 25.8543 150.366 26.4574C150.558 27.0606 150.674 27.4581 150.715 27.65L150.777 27.9379C150.928 27.3895 151.298 26.1764 151.887 24.2984L152.916 21.0496H156L152.237 31.1661C151.154 34.0858 149.502 35.5457 147.281 35.5457C146.856 35.5457 146.473 35.5115 146.13 35.4429V33.0578C146.349 33.1126 146.582 33.14 146.829 33.14C147.967 33.14 148.79 32.53 149.297 31.31Z" fill="#36348E"/>
</svg>
