<svg width="160" height="54" viewBox="0 0 160 54" fill="none" xmlns="http://www.w3.org/2000/svg">
<path fill-rule="evenodd" clip-rule="evenodd" d="M28.4888 45.7569C29.1767 39.8981 32.8054 34.4496 36.3002 32.6722C33.7602 29.3915 32.3087 25.0756 31.8884 21.7946H27.9925H24.1156C23.6763 25.0756 22.2249 29.3915 19.6848 32.6722C23.1797 34.4496 26.8276 39.8981 27.5151 45.7569V32.3208C26.9421 32.1257 26.5218 31.5591 26.5218 30.8951C26.5218 30.0749 27.1904 29.3916 27.9925 29.3916C28.8138 29.3916 29.4632 30.0749 29.4632 30.8951C29.4632 31.5591 29.0619 32.1257 28.4888 32.3208V45.7569ZM27.9925 15.1353L38.153 17.9474L31.8884 19.6658V21.1502H24.1156V19.6658L23.027 19.3728L28.0496 18.2987C28.1645 18.2794 28.2408 18.1623 28.2027 18.0254V18.0058C28.1834 18.0841 28.1259 18.1426 28.0496 18.1622L22.1867 19.4121V21.6383C22.2823 21.7164 22.3587 21.8335 22.3587 21.9897C22.3587 22.0875 22.3202 22.1853 22.263 22.2633L22.3202 22.4388L22.683 23.7084H21.9573H21.2316L21.5945 22.4388L21.6519 22.2436C21.5945 22.1656 21.5566 22.0875 21.5566 21.9897C21.5566 21.8335 21.633 21.7164 21.7472 21.6383V19.4511C21.7472 19.2753 21.7283 19.0604 21.8046 19.0407L17.832 17.9473L27.9925 15.1353Z" fill="#890C25"/>
<path fill-rule="evenodd" clip-rule="evenodd" d="M42.0298 48.3347C40.8459 48.1979 39.7381 48.7057 39.0506 49.604C39.5091 50.639 40.4831 51.4008 41.6669 51.5373C42.8511 51.6934 43.959 51.1662 44.6462 50.268C44.188 49.2329 43.214 48.4712 42.0298 48.3347ZM37.5228 50.7561C36.396 50.3654 35.1929 50.6193 34.3523 51.3614C34.601 52.4749 35.3838 53.4314 36.5106 53.8222C37.6566 54.2129 38.8404 53.9393 39.7 53.1972C39.4519 52.1038 38.6688 51.1468 37.5228 50.7561ZM43.042 11.2682C43.6725 12.1471 44.6462 12.6159 45.6206 12.6352L45.7733 12.8111C48.5998 16.2482 50.3185 20.3493 50.8723 24.6262C51.4264 28.8835 50.8152 33.3166 48.9627 37.3787C47.1099 41.4407 44.188 44.7608 40.6547 47.0848C37.8092 48.9203 34.5435 50.1312 31.125 50.5412V51.2052C34.6773 50.7952 38.0576 49.5649 40.9986 47.651C44.6462 45.2686 47.664 41.8312 49.5546 37.652C51.4645 33.4728 52.0947 28.9225 51.5217 24.5285C50.9487 20.1344 49.1918 15.9162 46.2889 12.3813L46.1169 12.1861C46.3652 11.2291 46.1936 10.1744 45.5632 9.33491C44.8563 8.35825 43.7107 7.88981 42.6028 7.98722C42.2018 9.04199 42.3163 10.2919 43.042 11.2682ZM43.5005 16.2872C44.7037 16.2482 45.7159 15.5645 46.27 14.5685C45.6585 13.6115 44.5891 13.0063 43.4049 13.0453C42.2018 13.0844 41.1703 13.768 40.6358 14.7641C41.247 15.721 42.3163 16.3263 43.5005 16.2872ZM45.7541 20.3296C46.9193 20.5835 48.0651 20.1734 48.8289 19.3533C48.4661 18.2792 47.5687 17.42 46.4034 17.1661C45.2385 16.9122 44.0736 17.3222 43.3097 18.1424C43.6914 19.2165 44.5699 20.0757 45.7541 20.3296ZM46.9572 24.8017C48.0458 25.3486 49.2492 25.2315 50.204 24.6262C50.0895 23.4935 49.4208 22.4387 48.3515 21.8922C47.2821 21.3646 46.0598 21.4624 45.1239 22.0874C45.2385 23.2202 45.8878 24.2552 46.9572 24.8017ZM47.091 29.4498C48.0079 30.2309 49.2107 30.4264 50.2615 30.0747C50.4331 28.9422 50.0513 27.7508 49.1344 26.9696C48.2178 26.1885 46.9957 25.9933 45.9449 26.3447C45.7733 27.4774 46.1744 28.6493 47.091 29.4498ZM46.1169 33.9806C46.8044 34.9766 47.9315 35.4648 49.058 35.367C49.4783 34.3126 49.383 33.0824 48.6762 32.0864C47.9694 31.0904 46.843 30.6019 45.7349 30.6997C45.3148 31.7544 45.4104 32.9846 46.1169 33.9806ZM44.0928 38.1405C44.532 39.273 45.5057 40.0347 46.6136 40.2106C47.2822 39.312 47.4728 38.0621 47.0335 36.9296C46.5754 35.7968 45.6013 35.0547 44.5127 34.8595C43.8441 35.7774 43.6532 37.0077 44.0928 38.1405ZM41.1514 41.675C41.3041 42.8859 42.0872 43.8622 43.0995 44.3116C43.959 43.5889 44.4364 42.4368 44.2834 41.2259C44.1118 40.015 43.3478 39.0581 42.3163 38.5896C41.4568 39.312 40.9797 40.4641 41.1514 41.675ZM37.4464 44.3897C37.3126 45.6003 37.8474 46.7331 38.7259 47.4168C39.7381 46.9283 40.4639 45.9323 40.5977 44.7218C40.7311 43.5109 40.1966 42.3781 39.3181 41.675C38.3248 42.1632 37.5802 43.1592 37.4464 44.3897ZM33.2259 46.0887C32.8055 47.2409 33.0535 48.4712 33.7414 49.35C34.83 49.1352 35.7848 48.354 36.2051 47.2019C36.6058 46.0497 36.3768 44.8192 35.6895 43.9406C34.5817 44.1552 33.6266 44.9366 33.2259 46.0887ZM47.2437 11.7564C47.2247 12.9672 47.8549 14.061 48.7907 14.6663C49.7458 14.0804 50.3952 13.0062 50.4141 11.7954C50.4141 10.5651 49.803 9.49107 48.8671 8.88578C47.8931 9.47137 47.263 10.5261 47.2437 11.7564ZM50.0702 16.0724C49.803 17.2635 50.1851 18.4551 50.9872 19.2556C52.0372 18.8845 52.8968 17.9863 53.1451 16.7951C53.4123 15.6036 53.0306 14.4124 52.2285 13.6116C51.1781 13.9829 50.3186 14.8811 50.0702 16.0724ZM51.942 20.9155C51.4453 22.0286 51.5791 23.2592 52.2095 24.2162C53.3171 24.0794 54.3293 23.3763 54.8259 22.2632C55.3226 21.1501 55.1888 19.9001 54.5583 18.9625C53.4509 19.0994 52.4386 19.8024 51.942 20.9155ZM52.8015 26.0323C52.0947 27.0086 51.9609 28.2585 52.3812 29.3133C53.4887 29.4107 54.6347 28.9422 55.3415 27.9656C56.0483 26.9893 56.1818 25.7393 55.7618 24.6846C54.654 24.5872 53.508 25.0557 52.8015 26.0323ZM52.5913 31.2268C51.6936 32.0276 51.3307 33.2385 51.5217 34.3516C52.5913 34.6837 53.7944 34.4688 54.6921 33.6679C55.5895 32.8478 55.9524 31.6566 55.7618 30.5435C54.6922 30.1918 53.4887 30.4264 52.5913 31.2268ZM51.35 36.2656C50.2993 36.8708 49.7074 37.9449 49.6499 39.0971C50.6243 39.6439 51.8466 39.683 52.8967 39.0971C53.9282 38.4918 54.5394 37.398 54.5772 36.2656C53.6036 35.699 52.3812 35.66 51.35 36.2656ZM49.0965 40.9329C47.9505 41.2846 47.1484 42.2219 46.8619 43.335C47.7022 44.0771 48.8863 44.3897 50.0323 44.0187C51.178 43.6476 51.9801 42.71 52.2666 41.6166C51.4264 40.8549 50.2422 40.5619 49.0965 40.9329ZM45.9449 45.0147C44.7611 45.1121 43.7678 45.8738 43.2711 46.8892C43.9397 47.8072 45.0476 48.354 46.2314 48.2369C47.4156 48.1198 48.4086 47.3777 48.9053 46.362C48.237 45.4441 47.1291 44.8972 45.9449 45.0147Z" fill="#890C25"/>
<path fill-rule="evenodd" clip-rule="evenodd" d="M18.4629 50.7561C19.5897 50.3654 20.7927 50.6193 21.6523 51.3614C21.404 52.4749 20.6211 53.4314 19.4751 53.8222C18.3484 54.2129 17.1453 53.9393 16.3047 53.1972C16.5533 52.1038 17.3361 51.1468 18.4629 50.7561ZM12.9625 11.2682C12.3324 12.1471 11.3584 12.6159 10.365 12.6352L10.2123 12.8111C7.40504 16.2482 5.66708 20.3493 5.11332 24.6262C4.55923 28.8835 5.18966 33.3166 7.02293 37.3787C8.87575 41.4407 11.7976 44.7608 15.3498 47.0848C18.1953 48.9203 21.4421 50.1312 24.8799 50.5412V51.2052C21.3084 50.7952 17.9473 49.5649 14.987 47.651C11.3394 45.2686 8.34058 41.8312 6.43097 37.652C4.54029 33.4728 3.89093 28.9225 4.46396 24.5285C5.03698 20.1345 6.8128 15.9162 9.71569 12.3813L9.86874 12.1861C9.63935 11.2291 9.81129 10.1744 10.4225 9.33491C11.1482 8.35825 12.275 7.88981 13.3829 7.98722C13.8032 9.04199 13.6693 10.2919 12.9625 11.2682ZM12.4851 16.2872C11.3009 16.2482 10.2697 15.5645 9.71569 14.5685C10.3461 13.6115 11.3966 13.0063 12.5996 13.0453C13.7838 13.0844 14.8153 13.768 15.3687 14.7641C14.758 15.721 13.6883 16.3263 12.4851 16.2872ZM10.2509 20.3296C9.08554 20.5835 7.92061 20.1734 7.15672 19.3533C7.51957 18.2792 8.41697 17.42 9.58223 17.1661C10.7472 16.9122 11.9121 17.3222 12.676 18.1424C12.3131 19.2165 11.4158 20.0757 10.2509 20.3296ZM9.02847 24.8017C7.9588 25.3486 6.73641 25.2315 5.80054 24.6262C5.89619 23.4935 6.56481 22.4387 7.63414 21.8922C8.70348 21.3646 9.92586 21.4624 10.8617 22.0874C10.7664 23.2202 10.0978 24.2552 9.02847 24.8017ZM8.91361 29.4498C7.99695 30.2309 6.77494 30.4264 5.72421 30.0747C5.55256 28.9422 5.95326 27.7508 6.87021 26.9696C7.78715 26.1885 8.98994 25.9933 10.0407 26.3447C10.2123 27.4774 9.81129 28.6493 8.91361 29.4498ZM9.888 33.9806C9.18119 34.9766 8.05412 35.4648 6.94659 35.367C6.52629 34.3126 6.62194 33.0824 7.32837 32.0864C8.01626 31.0904 9.143 30.6019 10.2509 30.6997C10.6901 31.7544 10.5944 32.9846 9.888 33.9806ZM11.9121 38.1405C11.4536 39.273 10.4799 40.0347 9.39136 40.2106C8.72274 39.312 8.53183 38.0621 8.97106 36.9296C9.41029 35.7968 10.3843 35.0547 11.4922 34.8595C12.1605 35.7774 12.3517 37.0077 11.9121 38.1405ZM14.8532 41.675C14.6816 42.8859 13.9174 43.8622 12.8862 44.3116C12.0267 43.5889 11.5493 42.4368 11.7213 41.2259C11.874 40.015 12.6572 39.0581 13.6694 38.5896C14.5289 39.312 15.0252 40.4641 14.8532 41.675ZM18.5393 44.3897C18.6731 45.6003 18.1575 46.7331 17.279 47.4168C16.2668 46.9283 15.5218 45.9323 15.4073 44.7218C15.2735 43.5109 15.789 42.3781 16.6675 41.675C17.6797 42.1632 18.4247 43.1592 18.5393 44.3897ZM22.7791 46.0887C23.1801 47.2409 22.9511 48.4712 22.2635 49.35C21.1556 49.1352 20.2009 48.354 19.7998 47.2019C19.3798 46.0497 19.6279 44.8192 20.3154 43.9406C21.404 44.1552 22.3591 44.9366 22.7791 46.0887ZM8.76088 11.7564C8.76088 12.9672 8.15004 14.061 7.21417 14.6663C6.23977 14.0804 5.60968 13.0062 5.59037 11.7954C5.57149 10.5651 6.20192 9.49107 7.13779 8.88578C8.0926 9.47137 8.74195 10.5261 8.76088 11.7564ZM5.93438 16.0724C6.20196 17.2635 5.80054 18.4551 5.01777 19.2556C3.94843 18.8845 3.10783 17.9863 2.84058 16.7951C2.57333 15.6036 2.97404 14.4124 3.77612 13.6116C4.82686 13.9829 5.66713 14.8811 5.93438 16.0724ZM4.04366 20.9155C4.55923 22.0286 4.40655 23.2592 3.79534 24.2162C2.68748 24.0794 1.67527 23.3763 1.17891 22.2632C0.682269 21.1501 0.816061 19.9001 1.42723 18.9625C2.5348 19.0994 3.54702 19.8024 4.04366 20.9155ZM3.20343 26.0323C3.90991 27.0086 4.02472 28.2585 3.60447 29.3133C2.49699 29.4107 1.36987 28.9422 0.663103 27.9656C-0.0626429 26.9893 -0.176842 25.7393 0.24313 24.6846C1.35094 24.5872 2.47768 25.0557 3.20343 26.0323ZM3.39429 31.2268C4.29202 32.0276 4.65487 33.2385 4.48289 34.3516C3.41323 34.6837 2.21043 34.4688 1.31242 33.6679C0.415068 32.8478 0.033288 31.6566 0.223823 30.5435C1.29349 30.1918 2.49694 30.4264 3.39429 31.2268ZM4.65487 36.2656C5.68634 36.8708 6.29723 37.9449 6.33571 39.0971C5.36136 39.6439 4.13897 39.683 3.10778 39.0971C2.05738 38.4918 1.46542 37.398 1.40835 36.2656C2.38208 35.699 3.60447 35.66 4.65487 36.2656ZM6.9084 40.9329C8.05407 41.2846 8.85649 42.2219 9.12378 43.335C8.28351 44.0771 7.09931 44.3897 5.95331 44.0187C4.82685 43.6476 4.00551 42.71 3.73826 41.6166C4.57854 40.8549 5.76268 40.5619 6.9084 40.9329ZM10.0596 45.0147C11.2435 45.1121 12.2368 45.8738 12.7145 46.8892C12.0459 47.8072 10.9573 48.354 9.75421 48.2369C8.57002 48.1198 7.59595 47.3777 7.09931 46.362C7.76789 45.4441 8.85648 44.8972 10.0596 45.0147ZM13.9748 48.3347C15.159 48.1782 16.2668 48.7057 16.954 49.604C16.4959 50.639 15.5218 51.4008 14.3377 51.5373C13.1537 51.6934 12.0267 51.1662 11.3395 50.268C11.8165 49.2329 12.7716 48.4712 13.9748 48.3347Z" fill="#890C25"/>
<path fill-rule="evenodd" clip-rule="evenodd" d="M27.9931 0L28.9671 3.1051L32.1565 3.08579L29.5783 4.99938L30.5712 8.10448L27.993 6.1712L25.4337 8.10448L26.4081 4.99938L23.8295 3.08579L27.0189 3.1051L27.9931 0ZM20.43 4.90192L19.8 6.91325H17.7373L19.3989 8.14348L18.7684 10.1552L20.43 8.92493L22.1106 10.1552L21.4612 8.14348L23.142 6.91325H21.0794L20.43 4.90192ZM35.5561 4.90192L36.2055 6.91325H38.2678L36.5873 8.14348L37.2367 10.1552L35.5562 8.92493L33.8945 10.1552L34.525 8.14348L32.8634 6.91325H34.9257L35.5561 4.90192Z" fill="#890C25"/>
<path fill-rule="evenodd" clip-rule="evenodd" d="M27.9931 49.5454C28.7188 49.5454 29.2918 50.1313 29.2918 50.8734C29.2918 51.6154 28.7188 52.2014 27.9931 52.2014C27.2866 52.2014 26.6943 51.6154 26.6943 50.8734C26.6943 50.1313 27.2866 49.5454 27.9931 49.5454Z" fill="#890C25"/>
<g clip-path="url(#clip0_1_2601)">
<path d="M78.9225 26.7827C77.6406 26.7827 76.5502 26.6511 75.6513 26.3877C74.7523 26.1244 74.0115 25.7212 73.4289 25.1781C72.8628 24.6186 72.4467 23.9027 72.1803 23.0305C71.9139 22.1583 71.7808 21.105 71.7808 19.8707V10.737H70.0078V9.25586H77.0497V10.737H75.2767V20.0435C75.2767 20.8828 75.3433 21.6152 75.4765 22.2405C75.6097 22.8659 75.8261 23.3843 76.1257 23.7957C76.442 24.1907 76.8499 24.4952 77.3493 24.7091C77.8654 24.9066 78.498 25.0053 79.2471 25.0053C80.762 25.0053 81.8275 24.6104 82.4434 23.8204C83.0594 23.014 83.3673 21.7715 83.3673 20.0929V10.737H81.5944V9.25586H86.9382V10.737H85.1653V19.846C85.1653 22.15 84.6742 23.8863 83.692 25.0547C82.7264 26.2067 81.1366 26.7827 78.9225 26.7827ZM89.0061 25.0053H90.7791V10.737H89.0061V9.25586H94.9992L102.79 21.9937H102.915V10.737H101.142V9.25586H106.486V10.737H104.713V26.4865H101.642L92.7019 11.996H92.577V25.0053H94.35V26.4865H89.0061V25.0053ZM108.661 25.0053H110.434V10.737H108.661V9.25586H115.703V10.737H113.93V25.0053H115.703V26.4865H108.661V25.0053ZM117.952 25.0053H119.725V10.737H117.952V9.25586H127.142C128.906 9.25586 130.23 9.65083 131.112 10.4408C131.994 11.2307 132.436 12.3992 132.436 13.9461C132.436 15.4931 131.961 16.7027 131.012 17.5749C130.063 18.4307 128.715 18.8586 126.967 18.8586H123.221V25.0053H125.593V26.4865H117.952V25.0053ZM123.221 17.2293H126.118C126.984 17.2293 127.649 17.0072 128.116 16.5628C128.598 16.1185 128.84 15.4849 128.84 14.662V13.4277C128.84 12.6049 128.598 11.9713 128.116 11.5269C127.649 11.0826 126.984 10.8604 126.118 10.8604H123.221V17.2293ZM134.559 25.0053H136.332V10.737H134.559V9.25586H141.601V10.737H139.828V25.0053H141.601V26.4865H134.559V25.0053ZM143.276 25.0053H144.874L149.968 18.1921L144.999 10.737H143.575V9.25586H150.692V10.737H148.994L152.265 15.7482H152.39L155.861 10.737H154.213V9.25586H159.607V10.737H158.009L153.264 17.1553L158.483 25.0053H159.906V26.4865H152.79V25.0053H154.488L150.967 19.5992H150.817L147.021 25.0053H148.669V26.4865H143.276V25.0053Z" fill="#890C25"/>
</g>
<g clip-path="url(#clip1_1_2601)">
<path d="M76.293 35.9231H77.7339V41.9943C77.7339 42.6403 77.5774 43.2127 77.2644 43.7116C76.9515 44.2073 76.5115 44.5979 75.9445 44.8834C75.3774 45.1659 74.7128 45.3071 73.9505 45.3071C73.1914 45.3071 72.5283 45.1659 71.9613 44.8834C71.3942 44.5979 70.9543 44.2073 70.6413 43.7116C70.3284 43.2127 70.1719 42.6403 70.1719 41.9943V35.9231H71.608V41.8816C71.608 42.2993 71.7026 42.6704 71.8916 42.9949C72.0837 43.3194 72.3548 43.5748 72.7049 43.7611C73.0551 43.9444 73.4703 44.0361 73.9505 44.0361C74.4339 44.0361 74.8507 43.9444 75.2008 43.7611C75.554 43.5748 75.8236 43.3194 76.0095 42.9949C76.1985 42.6704 76.293 42.2993 76.293 41.8816V35.9231ZM88.8135 35.9231V45.1538H87.4935L82.6552 38.384H82.5669V45.1538H81.1307V35.9231H82.46L87.303 42.7019H87.3913V35.9231H88.8135ZM93.6536 35.9231V45.1538H92.2173V35.9231H93.6536ZM97.8859 35.9231L100.535 43.4411H100.642L103.291 35.9231H104.844L101.418 45.1538H99.7589L96.3335 35.9231H97.8859ZM107.527 45.1538V35.9231H113.495V37.122H108.963V39.9345H113.183V41.1289H108.963V43.9549H113.551V45.1538H107.527ZM116.722 45.1538V35.9231H120.115C120.852 35.9231 121.464 36.0463 121.951 36.2927C122.44 36.5391 122.806 36.8801 123.048 37.3158C123.289 37.7485 123.41 38.2488 123.41 38.8167C123.41 39.3816 123.288 39.8789 123.043 40.3086C122.801 40.7353 122.436 41.0673 121.946 41.3047C121.46 41.5421 120.848 41.6608 120.11 41.6608H117.54V40.4618H119.98C120.445 40.4618 120.823 40.3972 121.114 40.268C121.409 40.1388 121.624 39.951 121.76 39.7046C121.897 39.4582 121.965 39.1623 121.965 38.8167C121.965 38.4681 121.895 38.1662 121.756 37.9108C121.619 37.6553 121.404 37.46 121.11 37.3248C120.818 37.1866 120.436 37.1175 119.962 37.1175H118.158V45.1538H116.722ZM121.421 40.9892L123.773 45.1538H122.137L119.831 40.9892H121.421ZM131.658 38.348C131.609 37.9213 131.404 37.5907 131.045 37.3564C130.685 37.119 130.233 37.0003 129.688 37.0003C129.297 37.0003 128.959 37.0604 128.674 37.1806C128.389 37.2978 128.168 37.46 128.01 37.6674C127.855 37.8717 127.777 38.1046 127.777 38.366C127.777 38.5853 127.83 38.7746 127.935 38.9339C128.044 39.0932 128.185 39.2269 128.358 39.335C128.535 39.4402 128.724 39.5288 128.925 39.601C129.127 39.6701 129.32 39.7272 129.506 39.7722L130.436 40.0066C130.74 40.0787 131.051 40.1764 131.37 40.2996C131.689 40.4228 131.985 40.585 132.258 40.7864C132.531 40.9877 132.75 41.2371 132.918 41.5346C133.088 41.832 133.173 42.1881 133.173 42.6028C133.173 43.1256 133.034 43.5898 132.755 43.9955C132.479 44.4011 132.078 44.7211 131.551 44.9555C131.028 45.1899 130.394 45.3071 129.65 45.3071C128.938 45.3071 128.321 45.1974 127.801 44.9781C127.28 44.7587 126.873 44.4477 126.578 44.045C126.284 43.6394 126.121 43.1587 126.09 42.6028H127.531C127.559 42.9363 127.67 43.2142 127.866 43.4366C128.064 43.656 128.316 43.8197 128.623 43.9279C128.933 44.033 129.272 44.0857 129.641 44.0857C130.047 44.0857 130.408 44.0241 130.724 43.9009C131.043 43.7746 131.294 43.6004 131.477 43.378C131.66 43.1526 131.751 42.8897 131.751 42.5892C131.751 42.3158 131.671 42.0919 131.51 41.9177C131.352 41.7434 131.136 41.5992 130.863 41.485C130.594 41.3708 130.289 41.2701 129.948 41.183L128.823 40.8855C128.061 40.6842 127.457 40.3882 127.01 39.9976C126.567 39.607 126.346 39.0901 126.346 38.4471C126.346 37.9153 126.494 37.451 126.792 37.0544C127.089 36.6578 127.492 36.3498 128 36.1304C128.509 35.9081 129.082 35.7969 129.72 35.7969C130.365 35.7969 130.933 35.9066 131.426 36.1259C131.922 36.3452 132.312 36.6472 132.597 37.0319C132.882 37.4135 133.031 37.8522 133.043 38.348H131.658ZM137.635 35.9231V45.1538H136.198V35.9231H137.635ZM140.566 37.122V35.9231H147.932V37.122H144.962V45.1538H143.531V37.122H140.566ZM150.135 35.9231H151.766L154.253 40.1193H154.355L156.841 35.9231H158.473L155.019 41.53V45.1538H153.588V41.53L150.135 35.9231Z" fill="#890C25"/>
</g>
<defs>
<clipPath id="clip0_1_2601">
<rect width="90" height="18" fill="white" transform="translate(70 9)"/>
</clipPath>
<clipPath id="clip1_1_2601">
<rect width="89" height="11" fill="white" transform="translate(70 35)"/>
</clipPath>
</defs>
</svg>
