<svg width="150" height="52" viewBox="0 0 150 52" fill="none" xmlns="http://www.w3.org/2000/svg">
<path fill-rule="evenodd" clip-rule="evenodd" d="M26.7095 43.5845C27.3544 38.0918 30.7562 32.9839 34.0327 31.3176C31.6514 28.242 30.2906 24.1957 29.8966 21.1198H26.2442H22.6096C22.1978 24.1957 20.8371 28.242 18.4558 31.3176C21.7322 32.9839 25.1521 38.0918 25.7967 43.5845V30.9882C25.2595 30.8052 24.8654 30.274 24.8654 29.6516C24.8654 28.8827 25.4923 28.242 26.2442 28.242C27.0142 28.242 27.623 28.8827 27.623 29.6516C27.623 30.274 27.2467 30.8052 26.7095 30.9882V43.5845ZM26.2442 14.8767L35.7697 17.5131L29.8966 19.1241V20.5158H22.6096V19.1241L21.589 18.8494L26.2978 17.8425C26.4054 17.8243 26.477 17.7145 26.4412 17.5863V17.5678C26.4232 17.6413 26.3693 17.6961 26.2978 17.7145L20.8013 18.8863V20.9733C20.8909 21.0465 20.9625 21.1564 20.9625 21.3028C20.9625 21.3944 20.9264 21.4861 20.8728 21.5593L20.9264 21.7238L21.2665 22.914H20.5862H19.9059L20.246 21.7238L20.2999 21.5408C20.246 21.4676 20.2106 21.3944 20.2106 21.3028C20.2106 21.1564 20.2821 21.0466 20.3892 20.9733V18.9228C20.3892 18.758 20.3715 18.5566 20.443 18.5381L16.7188 17.513L26.2442 14.8767Z" fill="#890C25"/>
<path fill-rule="evenodd" clip-rule="evenodd" d="M39.4029 46.0014C38.2931 45.8731 37.2544 46.3492 36.6099 47.1914C37.0397 48.1617 37.9529 48.8759 39.0628 49.0038C40.1729 49.1502 41.2116 48.656 41.8558 47.8138C41.4263 46.8435 40.5132 46.1293 39.4029 46.0014ZM35.1776 48.2715C34.1212 47.9052 32.9934 48.1432 32.2053 48.8389C32.4384 49.8828 33.1723 50.7796 34.2287 51.1459C35.303 51.5122 36.4129 51.2557 37.2187 50.56C36.9862 49.5349 36.252 48.6378 35.1776 48.2715ZM40.3519 11.2515C40.9429 12.0755 41.8558 12.515 42.7693 12.5331L42.9125 12.698C45.5623 15.9203 47.1736 19.7651 47.6928 23.7747C48.2122 27.7659 47.6392 31.922 45.9025 35.7301C44.1655 39.5383 41.4263 42.6508 38.1138 44.8296C35.4461 46.5504 32.3845 47.6856 29.1797 48.07V48.6925C32.5099 48.3081 35.679 47.1547 38.4362 45.3604C41.8558 43.1269 44.685 39.9044 46.4575 35.9863C48.248 32.0684 48.8388 27.8025 48.3015 23.6831C47.7644 19.5636 46.1173 15.609 43.3958 12.2951L43.2346 12.1121C43.4674 11.2149 43.3065 10.2261 42.7155 9.4391C42.0528 8.52348 40.9788 8.08432 39.9401 8.17564C39.5642 9.16448 39.6716 10.3362 40.3519 11.2515ZM40.7818 15.9569C41.9097 15.9203 42.8587 15.2793 43.3781 14.3456C42.8048 13.4484 41.8023 12.881 40.6921 12.9176C39.5642 12.9542 38.5971 13.5952 38.0961 14.5289C38.669 15.426 39.6716 15.9935 40.7818 15.9569ZM42.8944 19.7466C43.9869 19.9847 45.061 19.6002 45.7771 18.8313C45.437 17.8244 44.5957 17.0189 43.5032 16.7808C42.4111 16.5428 41.319 16.9272 40.6028 17.6961C40.9607 18.7031 41.7843 19.5086 42.8944 19.7466ZM44.0224 23.9392C45.0429 24.4519 46.1712 24.3421 47.0662 23.7747C46.9589 22.7128 46.332 21.7239 45.3295 21.2115C44.327 20.717 43.1811 20.8087 42.3037 21.3945C42.411 22.4565 43.0198 23.4269 44.0224 23.9392ZM44.1478 28.2968C45.0074 29.0291 46.135 29.2124 47.1201 28.8827C47.281 27.821 46.9231 26.704 46.0635 25.9716C45.2042 25.2393 44.0585 25.0563 43.0734 25.3857C42.9124 26.4477 43.2885 27.5463 44.1478 28.2968ZM43.2346 32.5444C43.8791 33.4782 44.9358 33.9358 45.9919 33.8442C46.3859 32.8557 46.2966 31.7024 45.634 30.7686C44.9713 29.8348 43.9153 29.3769 42.8764 29.4685C42.4827 30.4574 42.5723 31.6107 43.2346 32.5444ZM41.337 36.4443C41.7488 37.506 42.6616 38.2202 43.7002 38.385C44.327 37.5426 44.5057 36.3708 44.0939 35.3091C43.6644 34.2471 42.7513 33.5514 41.7307 33.3684C41.1039 34.229 40.9249 35.3823 41.337 36.4443ZM38.5794 39.7579C38.7226 40.8931 39.4568 41.8084 40.4058 42.2298C41.2116 41.5522 41.6591 40.4721 41.5156 39.3369C41.3548 38.2017 40.6386 37.3045 39.6716 36.8653C38.8658 37.5426 38.4185 38.6228 38.5794 39.7579ZM35.106 42.303C34.9806 43.4379 35.482 44.4999 36.3055 45.1409C37.2545 44.6829 37.9349 43.7492 38.0603 42.6143C38.1854 41.4791 37.6843 40.4171 36.8608 39.7579C35.9295 40.2156 35.2314 41.1493 35.106 42.303ZM31.1492 43.8958C30.7552 44.976 30.9877 46.1293 31.6326 46.9533C32.6531 46.7518 33.5483 46.0195 33.9423 44.9394C34.318 43.8592 34.1032 42.7056 33.4589 41.8819C32.4203 42.0831 31.5249 42.8157 31.1492 43.8958ZM44.2909 11.7092C44.2732 12.8444 44.8639 13.8698 45.7413 14.4372C46.6367 13.888 47.2455 12.881 47.2632 11.7458C47.2632 10.5924 46.6903 9.5855 45.8129 9.01804C44.8997 9.56703 44.309 10.5559 44.2909 11.7092ZM46.9408 15.7555C46.6903 16.8722 47.0485 17.9893 47.8005 18.7397C48.7849 18.3919 49.5907 17.5498 49.8236 16.433C50.0741 15.316 49.7162 14.1992 48.9642 13.4485C47.9794 13.7966 47.1737 14.6387 46.9408 15.7555ZM48.6956 20.2959C48.2299 21.3395 48.3554 22.4931 48.9464 23.3903C49.9847 23.262 50.9337 22.6029 51.3993 21.5594C51.8649 20.5158 51.7395 19.344 51.1484 18.465C50.1102 18.5933 49.1612 19.2524 48.6956 20.2959ZM49.5014 25.0929C48.8388 26.0082 48.7133 27.18 49.1074 28.1688C50.1456 28.2601 51.22 27.821 51.8827 26.9053C52.5453 25.99 52.6704 24.8182 52.2767 23.8294C51.2381 23.7381 50.1637 24.1773 49.5014 25.0929ZM49.3044 29.9628C48.4627 30.7135 48.1226 31.8487 48.3015 32.8923C49.3044 33.2036 50.4323 33.0021 51.2739 32.2513C52.1151 31.4824 52.4553 30.3657 52.2767 29.3221C51.2739 28.9925 50.1456 29.2124 49.3044 29.9628ZM48.1406 34.6866C47.1556 35.254 46.6006 36.261 46.5468 37.3411C47.4602 37.8538 48.6062 37.8904 49.5907 37.3411C50.5577 36.7737 51.1306 35.7482 51.1661 34.6866C50.2534 34.1554 49.1074 34.1189 48.1406 34.6866ZM46.0279 39.0622C44.9536 39.392 44.2016 40.2706 43.933 41.3142C44.7208 42.0099 45.8309 42.303 46.9053 41.9551C47.9794 41.6073 48.7313 40.7283 48.9999 39.7032C48.2122 38.9891 47.1021 38.7144 46.0279 39.0622ZM43.0734 42.8889C41.9635 42.9802 41.0323 43.6943 40.5667 44.6463C41.1935 45.5068 42.2321 46.0195 43.342 45.9098C44.4522 45.8 45.383 45.1042 45.8487 44.152C45.2222 43.2915 44.1836 42.7788 43.0734 42.8889Z" fill="#890C25"/>
<path fill-rule="evenodd" clip-rule="evenodd" d="M17.309 48.2715C18.3653 47.9052 19.4932 48.1432 20.2991 48.8389C20.0662 49.8828 19.3323 50.7796 18.2579 51.1459C17.2016 51.5122 16.0737 51.2557 15.2856 50.56C15.5187 49.5349 16.2526 48.6378 17.309 48.2715ZM12.1524 11.2515C11.5617 12.0755 10.6485 12.515 9.71723 12.5331L9.57406 12.698C6.94223 15.9203 5.31289 19.7651 4.79374 23.7747C4.27427 27.7659 4.86531 31.922 6.584 35.7301C8.32101 39.5383 11.0602 42.6508 14.3905 44.8296C17.0581 46.5504 20.102 47.6856 23.3249 48.07V48.6925C19.9766 48.3081 16.8256 47.1547 14.0503 45.3604C10.6307 43.1269 7.8193 39.9044 6.02904 35.9863C4.25653 32.0684 3.64775 27.8025 4.18496 23.6831C4.72217 19.5637 6.387 15.609 9.10846 12.2951L9.25195 12.1121C9.03689 11.2149 9.19809 10.2261 9.7711 9.4391C10.4514 8.52348 11.5078 8.08432 12.5464 8.17564C12.9405 9.16448 12.815 10.3362 12.1524 11.2515ZM11.7048 15.9569C10.5946 15.9203 9.62788 15.2793 9.10846 14.3456C9.69949 13.4484 10.6843 12.881 11.8122 12.9176C12.9224 12.9542 13.8894 13.5952 14.4082 14.5289C13.8356 15.426 12.8328 15.9935 11.7048 15.9569ZM9.61017 19.7466C8.5177 19.9847 7.42557 19.6002 6.70942 18.8313C7.04959 17.8244 7.89091 17.0189 8.98334 16.7808C10.0755 16.5428 11.1676 16.9272 11.8838 17.6961C11.5436 18.7031 10.7023 19.5086 9.61017 19.7466ZM8.46419 23.9392C7.46138 24.4519 6.31539 24.3421 5.43801 23.7747C5.52767 22.7128 6.15451 21.7239 7.15701 21.2115C8.15951 20.717 9.3055 20.8087 10.1829 21.3945C10.0935 22.4565 9.46669 23.4269 8.46419 23.9392ZM8.35651 28.2968C7.49714 29.0291 6.35151 29.2124 5.36644 28.8827C5.20552 27.821 5.58118 26.704 6.44082 25.9716C7.30045 25.2393 8.42807 25.0563 9.41313 25.3857C9.57406 26.4477 9.19808 27.5463 8.35651 28.2968ZM9.27 32.5444C8.60736 33.4782 7.55074 33.9358 6.51243 33.8442C6.1184 32.8557 6.20807 31.7024 6.87035 30.7686C7.51524 29.8348 8.57156 29.3769 9.61017 29.4685C10.022 30.4574 9.93229 31.6107 9.27 32.5444ZM11.1676 36.4443C10.7378 37.506 9.82492 38.2202 8.8044 38.385C8.17757 37.5426 7.99859 36.3708 8.41037 35.3091C8.82215 34.2471 9.73529 33.5514 10.7739 33.3684C11.4004 34.229 11.5797 35.3823 11.1676 36.4443ZM13.9249 39.7579C13.764 40.8931 13.0475 41.8084 12.0808 42.2298C11.275 41.5522 10.8275 40.4721 10.9887 39.3369C11.1319 38.2017 11.8661 37.3045 12.815 36.8653C13.6208 37.5426 14.0861 38.6228 13.9249 39.7579ZM17.3806 42.303C17.506 43.4379 17.0226 44.4999 16.1991 45.1409C15.2501 44.6829 14.5517 43.7492 14.4443 42.6143C14.3189 41.4791 14.8022 40.4171 15.6258 39.7579C16.5747 40.2156 17.2732 41.1493 17.3806 42.303ZM21.3554 43.8958C21.7314 44.976 21.5166 46.1293 20.872 46.9533C19.8334 46.7518 18.9383 46.0195 18.5624 44.9394C18.1686 43.8592 18.4011 42.7056 19.0457 41.8819C20.0662 42.0831 20.9617 42.8157 21.3554 43.8958ZM8.21333 11.7092C8.21333 12.8444 7.64067 13.8698 6.76329 14.4372C5.84979 13.888 5.25907 12.881 5.24097 11.7458C5.22327 10.5924 5.8143 9.5855 6.69168 9.01804C7.58681 9.56703 8.19558 10.5559 8.21333 11.7092ZM5.56348 15.7555C5.81434 16.8722 5.43801 17.9893 4.70416 18.7397C3.70166 18.3919 2.91359 17.5498 2.66304 16.433C2.41249 15.316 2.78816 14.1992 3.54011 13.4485C4.52518 13.7966 5.31293 14.6387 5.56348 15.7555ZM3.79093 20.2959C4.27428 21.3395 4.13114 22.4931 3.55813 23.3903C2.51951 23.262 1.57056 22.6029 1.10523 21.5594C0.639628 20.5158 0.765057 19.344 1.33803 18.465C2.37638 18.5933 3.32533 19.2524 3.79093 20.2959ZM3.00321 25.0929C3.66554 26.0082 3.77318 27.18 3.37919 28.1688C2.34093 28.2601 1.28425 27.821 0.621659 26.9053C-0.0587277 25.99 -0.165789 24.8182 0.227934 23.8294C1.26651 23.7381 2.32283 24.1773 3.00321 25.0929ZM3.18215 29.9628C4.02377 30.7135 4.36394 31.8487 4.20271 32.8923C3.1999 33.2036 2.07228 33.0021 1.23039 32.2513C0.389127 31.4824 0.0312075 30.3657 0.209834 29.3221C1.21264 28.9925 2.34088 29.2124 3.18215 29.9628ZM4.36394 34.6866C5.33095 35.254 5.90366 36.261 5.93973 37.3411C5.02627 37.8538 3.88028 37.8904 2.91355 37.3411C1.92879 36.7737 1.37383 35.7482 1.32033 34.6866C2.2332 34.1554 3.37919 34.1189 4.36394 34.6866ZM6.47662 39.0622C7.55069 39.392 8.30296 40.2706 8.55355 41.3142C7.76579 42.0099 6.65561 42.303 5.58123 41.9551C4.52518 41.6073 3.75517 40.7283 3.50462 39.7032C4.29238 38.9891 5.40251 38.7144 6.47662 39.0622ZM9.43088 42.8889C10.5408 42.9802 11.472 43.6943 11.9199 44.6463C11.2931 45.5068 10.2725 46.0195 9.14457 45.9098C8.03439 45.8 7.1212 45.1042 6.6556 44.152C7.28239 43.2915 8.30295 42.7788 9.43088 42.8889ZM13.1013 46.0014C14.2115 45.8547 15.2501 46.3492 15.8944 47.1914C15.4649 48.1617 14.5517 48.8759 13.4415 49.0038C12.3316 49.1502 11.275 48.656 10.6307 47.8138C11.078 46.8435 11.9734 46.1293 13.1013 46.0014Z" fill="#890C25"/>
<path fill-rule="evenodd" clip-rule="evenodd" d="M26.2437 0.6875L27.1569 3.59853L30.1469 3.58043L27.7298 5.37442L28.6607 8.28545L26.2436 6.473L23.8443 8.28545L24.7577 5.37442L22.3404 3.58043L25.3304 3.59853L26.2437 0.6875ZM19.1533 5.28305L18.5627 7.16867H16.6289L18.1866 8.32202L17.5956 10.208L19.1533 9.05462L20.7288 10.208L20.1201 8.32202L21.6958 7.16867H19.7621L19.1533 5.28305ZM33.334 5.28305L33.9428 7.16867H35.8762L34.3008 8.32202L34.9095 10.208L33.3341 9.05462L31.7763 10.208L32.3673 8.32202L30.8096 7.16867H32.7431L33.334 5.28305Z" fill="#890C25"/>
<path fill-rule="evenodd" clip-rule="evenodd" d="M26.2429 47.1362C26.9233 47.1362 27.4605 47.6855 27.4605 48.3812C27.4605 49.0769 26.9233 49.6262 26.2429 49.6262C25.5806 49.6262 25.0254 49.0769 25.0254 48.3812C25.0253 47.6855 25.5806 47.1362 26.2429 47.1362Z" fill="#890C25"/>
<g clip-path="url(#clip0_1_846)">
<path d="M73.9903 25.7967C72.7886 25.7967 71.7663 25.6732 70.9236 25.4264C70.0808 25.1795 69.3863 24.8015 68.84 24.2924C68.3094 23.7678 67.9192 23.0967 67.6695 22.279C67.4198 21.4612 67.295 20.4738 67.295 19.3167V10.7538H65.6328V9.36523H72.2345V10.7538H70.5724V19.4787C70.5724 20.2655 70.6348 20.9521 70.7597 21.5384C70.8845 22.1247 71.0874 22.6107 71.3684 22.9964C71.6649 23.3667 72.0473 23.6521 72.5155 23.8527C72.9993 24.0378 73.5923 24.1304 74.2947 24.1304C75.7149 24.1304 76.7137 23.7601 77.2912 23.0195C77.8687 22.2635 78.1574 21.0987 78.1574 19.525V10.7538H76.4952V9.36523H81.5051V10.7538H79.8429V19.2935C79.8429 21.4535 79.3825 23.0812 78.4617 24.1767C77.5565 25.2567 76.066 25.7967 73.9903 25.7967ZM83.4437 24.1304H85.1059V10.7538H83.4437V9.36523H89.0622L96.3663 21.307H96.4833V10.7538H94.8212V9.36523H99.831V10.7538H98.1689V25.519H95.2894L86.9085 11.9341H86.7914V24.1304H88.4536V25.519H83.4437V24.1304ZM101.87 24.1304H103.532V10.7538H101.87V9.36523H108.472V10.7538H106.81V24.1304H108.472V25.519H101.87V24.1304ZM110.581 24.1304H112.243V10.7538H110.581V9.36523H119.196C120.85 9.36523 122.091 9.73552 122.918 10.4761C123.745 11.2167 124.159 12.3121 124.159 13.7624C124.159 15.2127 123.714 16.3467 122.824 17.1644C121.935 17.9667 120.671 18.3678 119.032 18.3678H115.52V24.1304H117.744V25.519H110.581V24.1304ZM115.52 16.8404H118.236C119.048 16.8404 119.672 16.6321 120.109 16.2155C120.561 15.7989 120.788 15.2049 120.788 14.4335V13.2764C120.788 12.5049 120.561 11.9109 120.109 11.4944C119.672 11.0778 119.048 10.8695 118.236 10.8695H115.52V16.8404ZM126.15 24.1304H127.812V10.7538H126.15V9.36523H132.751V10.7538H131.089V24.1304H132.751V25.519H126.15V24.1304ZM134.321 24.1304H135.82L140.595 17.743L135.937 10.7538H134.602V9.36523H141.274V10.7538H139.682L142.749 15.4518H142.866L146.12 10.7538H144.575V9.36523H149.632V10.7538H148.134L143.686 16.7709L148.578 24.1304H149.913V25.519H143.241V24.1304H144.833L141.532 19.0621H141.391L137.833 24.1304H139.378V25.519H134.321V24.1304Z" fill="#890C25"/>
</g>
<g clip-path="url(#clip1_1_846)">
<path d="M71.5238 34.3644H72.8745V40.0562C72.8745 40.6618 72.7278 41.1985 72.4344 41.6661C72.141 42.1309 71.7285 42.4971 71.197 42.7647C70.6654 43.0295 70.0423 43.1619 69.3277 43.1619C68.616 43.1619 67.9943 43.0295 67.4627 42.7647C66.9311 42.4971 66.5186 42.1309 66.2252 41.6661C65.9319 41.1985 65.7852 40.6618 65.7852 40.0562V34.3644H67.1316V39.9505C67.1316 40.3421 67.2202 40.69 67.3974 40.9942C67.5775 41.2985 67.8316 41.5379 68.1599 41.7125C68.4881 41.8844 68.8774 41.9703 69.3277 41.9703C69.7808 41.9703 70.1715 41.8844 70.4998 41.7125C70.8309 41.5379 71.0837 41.2985 71.258 40.9942C71.4352 40.69 71.5238 40.3421 71.5238 39.9505V34.3644ZM83.2617 34.3644V43.0183H82.0242L77.4882 36.6715H77.4055V43.0183H76.0591V34.3644H77.3052L81.8456 40.7196H81.9283V34.3644H83.2617ZM87.7992 34.3644V43.0183H86.4528V34.3644H87.7992ZM91.767 34.3644L94.2507 41.4126H94.3509L96.8345 34.3644H98.2899L95.0786 43.0183H93.523L90.3117 34.3644H91.767ZM100.806 43.0183V34.3644H106.4V35.4884H102.152V38.1251H106.108V39.2449H102.152V41.8943H106.453V43.0183H100.806ZM109.426 43.0183V34.3644H112.607C113.298 34.3644 113.872 34.4799 114.328 34.7109C114.787 34.9419 115.13 35.2616 115.356 35.6701C115.583 36.0757 115.696 36.5448 115.696 37.0772C115.696 37.6068 115.581 38.073 115.352 38.4758C115.125 38.8758 114.783 39.1871 114.324 39.4097C113.867 39.6322 113.294 39.7435 112.602 39.7435H110.193V38.6195H112.48C112.916 38.6195 113.27 38.5589 113.544 38.4378C113.82 38.3167 114.021 38.1406 114.149 37.9096C114.277 37.6786 114.341 37.4011 114.341 37.0772C114.341 36.7504 114.276 36.4673 114.145 36.2279C114.017 35.9884 113.815 35.8053 113.539 35.6785C113.266 35.549 112.907 35.4842 112.463 35.4842H110.772V43.0183H109.426ZM113.831 39.1139L116.036 43.0183H114.502L112.341 39.1139H113.831ZM123.429 36.6377C123.382 36.2377 123.19 35.9278 122.853 35.7081C122.517 35.4856 122.092 35.3743 121.581 35.3743C121.215 35.3743 120.898 35.4306 120.631 35.5433C120.364 35.6532 120.156 35.8053 120.008 35.9997C119.863 36.1912 119.79 36.4096 119.79 36.6546C119.79 36.8603 119.84 37.0378 119.938 37.1871C120.04 37.3364 120.172 37.4617 120.335 37.5631C120.501 37.6617 120.678 37.7448 120.866 37.8124C121.055 37.8772 121.237 37.9307 121.411 37.973L122.283 38.1927C122.567 38.2603 122.859 38.3519 123.158 38.4674C123.458 38.5829 123.735 38.735 123.991 38.9237C124.246 39.1125 124.453 39.3463 124.609 39.6252C124.769 39.9041 124.849 40.2379 124.849 40.6266C124.849 41.1168 124.718 41.552 124.457 41.9323C124.198 42.3126 123.822 42.6126 123.328 42.8323C122.838 43.052 122.243 43.1619 121.546 43.1619C120.878 43.1619 120.3 43.0591 119.812 42.8535C119.324 42.6478 118.942 42.3563 118.666 41.9788C118.39 41.5985 118.238 41.1478 118.209 40.6266H119.559C119.585 40.9393 119.69 41.1999 119.873 41.4083C120.059 41.614 120.296 41.7675 120.583 41.8689C120.874 41.9675 121.192 42.0168 121.538 42.0168C121.918 42.0168 122.256 41.9591 122.553 41.8436C122.852 41.7252 123.087 41.5619 123.259 41.3534C123.43 41.1421 123.516 40.8956 123.516 40.6139C123.516 40.3576 123.44 40.1477 123.289 39.9843C123.141 39.821 122.939 39.6857 122.683 39.5787C122.431 39.4716 122.145 39.3773 121.825 39.2956L120.771 39.0167C120.056 38.828 119.49 38.5505 119.071 38.1843C118.656 37.8181 118.448 37.3335 118.448 36.7307C118.448 36.2321 118.588 35.7969 118.867 35.425C119.145 35.0532 119.523 34.7644 119.999 34.5588C120.476 34.3503 121.013 34.2461 121.612 34.2461C122.216 34.2461 122.749 34.3489 123.211 34.5546C123.676 34.7602 124.042 35.0433 124.309 35.4039C124.576 35.7616 124.715 36.1729 124.727 36.6377H123.429ZM129.032 34.3644V43.0183H127.685V34.3644H129.032ZM131.779 35.4884V34.3644H138.686V35.4884H135.901V43.0183H134.559V35.4884H131.779ZM140.75 34.3644H142.28L144.611 38.2984H144.707L147.038 34.3644H148.567L145.33 39.6209V43.0183H143.988V39.6209L140.75 34.3644Z" fill="#890C25"/>
</g>
<defs>
<clipPath id="clip0_1_846">
<rect width="84.375" height="16.875" fill="white" transform="translate(65.625 9.125)"/>
</clipPath>
<clipPath id="clip1_1_846">
<rect width="83.4375" height="10.3125" fill="white" transform="translate(65.625 33.5)"/>
</clipPath>
</defs>
</svg>
