<svg width="57" height="60" viewBox="0 0 57 60" fill="none" xmlns="http://www.w3.org/2000/svg">
<path d="M32.41 4.73834L50.915 41.7123C51.553 42.9873 53.105 43.5044 54.38 42.8664C55.656 42.2284 56.172 40.6763 55.534 39.4013L37.029 2.42733C36.391 1.15233 34.839 0.635339 33.564 1.27334C32.288 1.91134 31.772 3.46334 32.41 4.73834Z" stroke="#DDD8F9" stroke-width="1.3" stroke-miterlimit="10" stroke-linejoin="round"/>
<path d="M33.564 1.27344L1 17.5714L21.817 59.1644L54.381 42.8665" stroke="#DDD8F9" stroke-width="1.3" stroke-miterlimit="10" stroke-linejoin="round"/>
<path d="M30.0509 11.8832L9.84375 21.998L14.1788 30.6584L34.3859 20.5435L30.0509 11.8832Z" stroke="#DDD8F9" stroke-width="1.3" stroke-miterlimit="10" stroke-linejoin="round"/>
<path d="M16.009 34.323L36.217 24.209" stroke="#DDD8F9" stroke-width="1.3" stroke-miterlimit="10" stroke-linejoin="round"/>
<path d="M17.136 36.575L37.344 26.4609" stroke="#DDD8F9" stroke-width="1.3" stroke-miterlimit="10" stroke-linejoin="round"/>
<path d="M48.9119 37.7109L43.1379 40.6009L45.2039 42.1659L45.1609 44.6419L50.9149 41.7129" stroke="#DDD8F9" stroke-width="1.3" stroke-miterlimit="10" stroke-linejoin="round"/>
</svg>
