<svg width="61" height="48" viewBox="0 0 61 48" fill="none" xmlns="http://www.w3.org/2000/svg">
<path d="M1 32.837C1 32.837 9.10799 24.116 19.055 30.164C19.055 30.164 27.14 35.13 34.883 30.304C43.225 25.104 41.729 16.032 41.729 16.032C40.68 4.43801 52.081 1 52.081 1" stroke="#DDD8F9" stroke-width="1.3" stroke-miterlimit="10" stroke-linejoin="round"/>
<path d="M9.45093 46.3976C9.45093 46.3976 20.8509 42.9596 19.8029 31.3656C19.8029 31.3656 18.905 21.9196 26.649 17.0936C34.991 11.8936 42.477 17.2336 42.477 17.2336C52.424 23.2816 60.532 14.5605 60.532 14.5605" stroke="#DDD8F9" stroke-width="1.3" stroke-miterlimit="10" stroke-linejoin="round"/>
<path d="M3.38599 30.8594L12.277 45.1254" stroke="#DDD8F9" stroke-width="1.3" stroke-miterlimit="10" stroke-linejoin="round"/>
<path d="M7.21997 28.9453L15.569 42.3413" stroke="#DDD8F9" stroke-width="1.3" stroke-miterlimit="10" stroke-linejoin="round"/>
<path d="M11.8179 28.0312L18.5319 38.8022" stroke="#DDD8F9" stroke-width="1.3" stroke-miterlimit="10" stroke-linejoin="round"/>
<path d="M49.448 2.15039L58.34 16.4154" stroke="#DDD8F9" stroke-width="1.3" stroke-miterlimit="10" stroke-linejoin="round"/>
<path d="M46.041 4.75L54.39 18.145" stroke="#DDD8F9" stroke-width="1.3" stroke-miterlimit="10" stroke-linejoin="round"/>
<path d="M43.1941 8.47656L49.9081 19.2466" stroke="#DDD8F9" stroke-width="1.3" stroke-miterlimit="10" stroke-linejoin="round"/>
<path d="M20.7439 24.6191L25.5249 32.2901" stroke="#DDD8F9" stroke-width="1.3" stroke-miterlimit="10" stroke-linejoin="round"/>
<path d="M22.6951 20.7949L29.9951 32.1929" stroke="#DDD8F9" stroke-width="1.3" stroke-miterlimit="10" stroke-linejoin="round"/>
<path d="M35.9761 15.127L40.757 22.798" stroke="#DDD8F9" stroke-width="1.3" stroke-miterlimit="10" stroke-linejoin="round"/>
<path d="M31.6821 15.1934L38.7001 26.7664" stroke="#DDD8F9" stroke-width="1.3" stroke-miterlimit="10" stroke-linejoin="round"/>
<path d="M26.6489 17.0938L34.8829 30.3047" stroke="#DDD8F9" stroke-width="1.3" stroke-miterlimit="10" stroke-linejoin="round"/>
</svg>
