<svg width="32" height="48" viewBox="0 0 32 48" fill="none" xmlns="http://www.w3.org/2000/svg">
<path d="M31.33 16.165C31.33 7.79001 24.54 1 16.165 1C7.78998 1 1 7.79001 1 16.165C1 20.092 2.49299 23.671 4.94199 26.364C5.43099 32.138 10.265 36.674 16.165 36.674C22.066 36.674 26.899 32.138 27.388 26.364C29.838 23.671 31.33 20.092 31.33 16.165Z" stroke="#DDD8F9" stroke-width="1.3" stroke-miterlimit="10" stroke-linejoin="round"/>
<path d="M8.55005 33.6768L9.33405 41.3578C9.33405 41.3578 16.6341 46.0988 23.1201 40.9188L23.781 33.6758" stroke="#DDD8F9" stroke-width="1.3" stroke-miterlimit="10" stroke-linejoin="round"/>
<path d="M11.5249 42.4132L11.8239 45.3432C11.8239 45.3432 16.3939 48.3112 20.4539 45.0682L20.8049 42.3672" stroke="#DDD8F9" stroke-width="1.3" stroke-miterlimit="10" stroke-linejoin="round"/>
<path d="M9.01709 38.5098C9.01709 38.5098 16.0761 43.9778 23.3141 38.5098" stroke="#DDD8F9" stroke-width="1.3" stroke-miterlimit="10" stroke-linejoin="round"/>
<path d="M13.7319 36.4308L12.4649 24.2378C12.4649 24.2378 12.1349 22.7838 10.6549 23.2878C9.14488 23.8018 9.16487 26.1748 10.8099 26.8888C12.2659 27.5208 15.4419 27.4388 15.4419 27.4388L15.1259 26.7078C15.1259 26.7078 14.3169 25.2928 15.2309 24.1348C16.0209 23.1348 18.3659 23.8678 17.2299 26.7078L16.8889 27.4388C16.8889 27.4388 20.0649 27.5208 21.5209 26.8888C23.1649 26.1748 23.1859 23.8018 21.6759 23.2878C20.1959 22.7838 19.8659 24.2378 19.8659 24.2378L18.5989 36.4308" stroke="#DDD8F9" stroke-width="1.3" stroke-miterlimit="10" stroke-linejoin="round"/>
<path d="M16.165 13.4536C16.165 13.2286 16.165 8.84766 16.165 8.84766" stroke="#DDD8F9" stroke-width="1.3" stroke-miterlimit="10" stroke-linejoin="round"/>
<path d="M22.783 14.9699L24.412 11.8809" stroke="#DDD8F9" stroke-width="1.3" stroke-miterlimit="10" stroke-linejoin="round"/>
<path d="M9.36386 14.9699L7.73486 11.8809" stroke="#DDD8F9" stroke-width="1.3" stroke-miterlimit="10" stroke-linejoin="round"/>
</svg>
