<svg width="71" height="56" viewBox="0 0 71 56" fill="none" xmlns="http://www.w3.org/2000/svg">
<mask id="path-1-inside-1_1_277" fill="white">
<path fill-rule="evenodd" clip-rule="evenodd" d="M64.3981 29.4195H47.0704C45.5099 29.4195 44.0134 28.7996 42.91 27.6962C41.8065 26.5928 41.1866 25.0962 41.1866 23.5358V5.88447C41.1866 4.324 41.8065 2.82744 42.91 1.72402C44.0134 0.620602 45.5099 0.000705719 47.0704 0.000705719H64.7217C66.2822 0.000705719 67.7787 0.620602 68.8822 1.72402C69.9856 2.82744 70.6055 4.324 70.6055 5.88447V25.448C70.6037 30.7747 69.287 36.0185 66.7724 40.7142C64.2577 45.41 60.6228 49.4123 56.1902 52.3662L50.9243 55.8965L47.6882 51.013L52.9542 47.4827C56.0128 45.433 58.6103 42.768 60.5807 39.6578C62.5512 36.5476 63.8513 33.0606 64.3981 29.4195ZM23.2106 29.4195H5.8829C4.32243 29.4195 2.82587 28.7996 1.72245 27.6962C0.619026 26.5928 -0.000869751 25.0962 -0.000869751 23.5358V5.88447C-0.000869751 4.324 0.619026 2.82744 1.72245 1.72402C2.82587 0.620602 4.32243 0.000705719 5.8829 0.000705719H23.5342C25.0947 0.000705719 26.5912 0.620602 27.6947 1.72402C28.7981 2.82744 29.418 4.324 29.418 5.88447V25.448C29.4162 30.7747 28.0995 36.0185 25.5849 40.7142C23.0702 45.41 19.4353 49.4123 15.0027 52.3662L9.70735 55.8965L6.50069 51.013L11.7667 47.4827C14.8253 45.433 17.4228 42.768 19.3932 39.6578C21.3637 36.5476 22.6638 33.0606 23.2106 29.4195Z"/>
</mask>
<path d="M64.3981 29.4195L65.387 29.568L65.5595 28.4195H64.3981V29.4195ZM68.8822 1.72402L68.175 2.43113L68.8822 1.72402ZM70.6055 25.448L71.6055 25.4483V25.448H70.6055ZM66.7724 40.7142L65.8908 40.2422L66.7724 40.7142ZM56.1902 52.3662L55.6357 51.5341L55.6334 51.5356L56.1902 52.3662ZM50.9243 55.8965L50.0907 56.4489L50.646 57.2869L51.4811 56.7271L50.9243 55.8965ZM47.6882 51.013L47.1314 50.1823L46.3052 50.7362L46.8546 51.5653L47.6882 51.013ZM52.9542 47.4827L52.3975 46.652L52.3973 46.6521L52.9542 47.4827ZM60.5807 39.6578L59.736 39.1226L60.5807 39.6578ZM23.2106 29.4195L24.1995 29.568L24.372 28.4195H23.2106V29.4195ZM1.72245 27.6962L2.42956 26.9891V26.9891L1.72245 27.6962ZM1.72245 1.72402L2.42956 2.43113V2.43113L1.72245 1.72402ZM29.418 25.448L30.418 25.4483V25.448H29.418ZM25.5849 40.7142L24.7033 40.2422L25.5849 40.7142ZM15.0027 52.3662L14.4482 51.5341L14.448 51.5342L15.0027 52.3662ZM9.70735 55.8965L8.87144 56.4454L9.42417 57.2871L10.262 56.7285L9.70735 55.8965ZM6.50069 51.013L5.94386 50.1823L5.12113 50.7339L5.66479 51.5618L6.50069 51.013ZM11.7667 47.4827L11.21 46.652L11.2098 46.6521L11.7667 47.4827ZM19.3932 39.6578L18.5485 39.1226L19.3932 39.6578ZM47.0704 30.4195H64.3981V28.4195H47.0704V30.4195ZM42.2028 28.4033C43.4938 29.6943 45.2447 30.4195 47.0704 30.4195V28.4195C45.7751 28.4195 44.5329 27.905 43.6171 26.9891L42.2028 28.4033ZM40.1866 23.5358C40.1866 25.3615 40.9119 27.1124 42.2028 28.4033L43.6171 26.9891C42.7012 26.0732 42.1866 24.831 42.1866 23.5358H40.1866ZM40.1866 5.88447V23.5358H42.1866V5.88447H40.1866ZM42.2028 1.01691C40.9119 2.30787 40.1866 4.05878 40.1866 5.88447H42.1866C42.1866 4.58922 42.7012 3.34701 43.6171 2.43113L42.2028 1.01691ZM47.0704 -0.999294C45.2447 -0.999294 43.4938 -0.27404 42.2028 1.01691L43.6171 2.43113C44.5329 1.51524 45.7751 1.00071 47.0704 1.00071V-0.999294ZM64.7217 -0.999294H47.0704V1.00071H64.7217V-0.999294ZM69.5893 1.01691C68.2983 -0.27404 66.5474 -0.999294 64.7217 -0.999294V1.00071C66.017 1.00071 67.2592 1.51524 68.175 2.43113L69.5893 1.01691ZM71.6055 5.88447C71.6055 4.05878 70.8802 2.30787 69.5893 1.01691L68.175 2.43113C69.0909 3.34701 69.6055 4.58922 69.6055 5.88447H71.6055ZM71.6055 25.448V5.88447H69.6055V25.448H71.6055ZM67.6539 41.1863C70.2463 36.3455 71.6036 30.9396 71.6055 25.4483L69.6055 25.4477C69.6037 30.6097 68.3278 35.6915 65.8908 40.2422L67.6539 41.1863ZM56.7448 53.1984C61.3144 50.1532 65.0616 46.0272 67.6539 41.1863L65.8908 40.2422C63.4539 44.7928 59.9313 48.6715 55.6357 51.5341L56.7448 53.1984ZM51.4811 56.7271L56.7471 53.1968L55.6334 51.5356L50.3674 55.0659L51.4811 56.7271ZM46.8546 51.5653L50.0907 56.4489L51.7579 55.3441L48.5218 50.4606L46.8546 51.5653ZM52.3973 46.6521L47.1314 50.1823L48.245 51.8436L53.511 48.3133L52.3973 46.6521ZM59.736 39.1226C57.8399 42.1153 55.3406 44.6797 52.3975 46.652L53.5109 48.3134C56.685 46.1863 59.3806 43.4206 61.4255 40.193L59.736 39.1226ZM63.4092 29.271C62.8831 32.7746 61.6321 36.1299 59.736 39.1226L61.4255 40.193C63.4704 36.9653 64.8196 33.3466 65.387 29.568L63.4092 29.271ZM5.8829 30.4195H23.2106V28.4195H5.8829V30.4195ZM1.01534 28.4033C2.3063 29.6943 4.05721 30.4195 5.8829 30.4195V28.4195C4.58764 28.4195 3.34544 27.905 2.42956 26.9891L1.01534 28.4033ZM-1.00087 23.5358C-1.00087 25.3615 -0.27562 27.1124 1.01534 28.4033L2.42956 26.9891C1.51367 26.0732 0.99913 24.831 0.99913 23.5358H-1.00087ZM-1.00087 5.88447V23.5358H0.99913V5.88447H-1.00087ZM1.01534 1.01691C-0.27562 2.30787 -1.00087 4.05878 -1.00087 5.88447H0.99913C0.99913 4.58922 1.51367 3.34702 2.42956 2.43113L1.01534 1.01691ZM5.8829 -0.999294C4.05721 -0.999294 2.3063 -0.27404 1.01534 1.01692L2.42956 2.43113C3.34544 1.51524 4.58764 1.00071 5.8829 1.00071V-0.999294ZM23.5342 -0.999294H5.8829V1.00071H23.5342V-0.999294ZM28.4018 1.01691C27.1108 -0.27404 25.3599 -0.999294 23.5342 -0.999294V1.00071C24.8295 1.00071 26.0717 1.51524 26.9875 2.43113L28.4018 1.01691ZM30.418 5.88447C30.418 4.05878 29.6927 2.30787 28.4018 1.01691L26.9875 2.43113C27.9034 3.34701 28.418 4.58922 28.418 5.88447H30.418ZM30.418 25.448V5.88447H28.418V25.448H30.418ZM26.4664 41.1863C29.0588 36.3455 30.4161 30.9396 30.418 25.4483L28.418 25.4477C28.4162 30.6097 27.1403 35.6915 24.7033 40.2422L26.4664 41.1863ZM15.5573 53.1984C20.1269 50.1532 23.8741 46.0272 26.4664 41.1863L24.7033 40.2422C22.2664 44.7928 18.7438 48.6715 14.4482 51.5341L15.5573 53.1984ZM10.262 56.7285L15.5574 53.1983L14.448 51.5342L9.15265 55.0644L10.262 56.7285ZM5.66479 51.5618L8.87144 56.4454L10.5433 55.3476L7.3366 50.4641L5.66479 51.5618ZM11.2098 46.6521L5.94386 50.1823L7.05753 51.8436L12.3235 48.3133L11.2098 46.6521ZM18.5485 39.1226C16.6525 42.1153 14.1531 44.6797 11.21 46.652L12.3234 48.3134C15.4975 46.1863 18.1931 43.4206 20.238 40.193L18.5485 39.1226ZM22.2217 29.271C21.6956 32.7746 20.4446 36.1299 18.5485 39.1226L20.238 40.193C22.2829 36.9653 23.6321 33.3466 24.1995 29.568L22.2217 29.271Z" fill="#B71A34" mask="url(#path-1-inside-1_1_277)"/>
</svg>
