<svg width="90" height="72" viewBox="0 0 90 72" fill="none" xmlns="http://www.w3.org/2000/svg">
<mask id="path-1-inside-1_1_2349" fill="white">
<path fill-rule="evenodd" clip-rule="evenodd" d="M7.91249 33.75H30C31.9891 33.75 33.8967 34.5401 35.3033 35.9467C36.7098 37.3532 37.5 39.2608 37.5 41.25V63.7499C37.5 65.7391 36.7098 67.6467 35.3033 69.0532C33.8967 70.4597 31.9891 71.2499 30 71.2499H7.49999C5.51087 71.2499 3.60322 70.4597 2.1967 69.0532C0.790175 67.6467 0 65.7391 0 63.7499V38.8125C0.00227657 32.0226 1.68058 25.3383 4.88599 19.3527C8.0914 13.3671 12.7248 8.26528 18.375 4.49999L25.0875 0L29.2125 6.22499L22.5 10.725C18.6012 13.3377 15.2902 16.7348 12.7784 20.6994C10.2667 24.6639 8.60943 29.1087 7.91249 33.75ZM60.4124 33.75H82.4999C84.489 33.75 86.3966 34.5401 87.8032 35.9467C89.2097 37.3532 89.9999 39.2608 89.9999 41.25V63.7499C89.9999 65.7391 89.2097 67.6467 87.8032 69.0532C86.3966 70.4597 84.489 71.2499 82.4999 71.2499H59.9999C58.0108 71.2499 56.1031 70.4597 54.6966 69.0532C53.2901 67.6467 52.4999 65.7391 52.4999 63.7499V38.8125C52.5022 32.0226 54.1805 25.3383 57.3859 19.3527C60.5913 13.3671 65.2247 8.26528 70.8749 4.49999L77.6249 0L81.7124 6.22499L74.9999 10.725C71.1011 13.3377 67.7901 16.7348 65.2783 20.6994C62.7666 24.6639 61.1093 29.1087 60.4124 33.75Z"/>
</mask>
<path d="M7.91249 33.75L6.92358 33.6015L6.75112 34.75H7.91249V33.75ZM35.3033 69.0532L34.5962 68.3461L35.3033 69.0532ZM2.1967 69.0532L2.9038 68.3461H2.9038L2.1967 69.0532ZM0 38.8125L-1 38.8121V38.8125H0ZM4.88599 19.3527L5.76754 19.8248L4.88599 19.3527ZM18.375 4.49999L18.9295 5.33215L18.9318 5.33061L18.375 4.49999ZM25.0875 0L25.9211 -0.552381L25.3657 -1.39045L24.5306 -0.83062L25.0875 0ZM29.2125 6.22499L29.7693 7.05561L30.5955 6.50175L30.0461 5.67261L29.2125 6.22499ZM22.5 10.725L23.0567 11.5557L23.0568 11.5556L22.5 10.725ZM60.4124 33.75L59.4235 33.6015L59.251 34.75H60.4124V33.75ZM87.8032 35.9467L87.096 36.6538L87.8032 35.9467ZM87.8032 69.0532L87.096 68.3461L87.8032 69.0532ZM54.6966 69.0532L55.4037 68.3461L54.6966 69.0532ZM52.4999 38.8125L51.4999 38.8121V38.8125H52.4999ZM57.3859 19.3527L58.2674 19.8248L57.3859 19.3527ZM70.8749 4.49999L71.4294 5.33215L71.4296 5.33205L70.8749 4.49999ZM77.6249 0L78.4608 -0.548876L77.9081 -1.39064L77.0702 -0.832051L77.6249 0ZM81.7124 6.22499L82.2692 7.05561L83.0919 6.50407L82.5483 5.67612L81.7124 6.22499ZM74.9999 10.725L75.5566 11.5557L75.5567 11.5556L74.9999 10.725ZM65.2783 20.6994L64.4336 20.1642L65.2783 20.6994ZM30 32.75H7.91249V34.75H30V32.75ZM36.0104 35.2396C34.4163 33.6455 32.2543 32.75 30 32.75V34.75C31.7239 34.75 33.3772 35.4348 34.5962 36.6538L36.0104 35.2396ZM38.5 41.25C38.5 38.9956 37.6044 36.8336 36.0104 35.2396L34.5962 36.6538C35.8151 37.8728 36.5 39.5261 36.5 41.25H38.5ZM38.5 63.7499V41.25H36.5V63.7499H38.5ZM36.0104 69.7603C37.6044 68.1663 38.5 66.0043 38.5 63.7499H36.5C36.5 65.4738 35.8151 67.1271 34.5962 68.3461L36.0104 69.7603ZM30 72.2499C32.2543 72.2499 34.4163 71.3544 36.0104 69.7603L34.5962 68.3461C33.3772 69.5651 31.7239 70.2499 30 70.2499V72.2499ZM7.49999 72.2499H30V70.2499H7.49999V72.2499ZM1.48959 69.7603C3.08365 71.3544 5.24565 72.2499 7.49999 72.2499V70.2499C5.77609 70.2499 4.12279 69.5651 2.9038 68.3461L1.48959 69.7603ZM-1 63.7499C-1 66.0043 -0.104468 68.1663 1.48959 69.7603L2.9038 68.3461C1.68482 67.1271 1 65.4738 1 63.7499H-1ZM-1 38.8125V63.7499H1V38.8125H-1ZM4.00444 18.8806C0.721325 25.0113 -0.997668 31.8577 -1 38.8121L1 38.8128C1.00222 32.1875 2.63984 25.6653 5.76754 19.8248L4.00444 18.8806ZM17.8204 3.66784C12.0333 7.5244 7.28755 12.7499 4.00444 18.8806L5.76754 19.8248C8.89524 13.9843 13.4163 9.00615 18.9295 5.33215L17.8204 3.66784ZM24.5306 -0.83062L17.8181 3.66937L18.9318 5.33061L25.6443 0.83062L24.5306 -0.83062ZM30.0461 5.67261L25.9211 -0.552381L24.2539 0.552381L28.3789 6.77737L30.0461 5.67261ZM23.0568 11.5556L29.7693 7.05561L28.6556 5.39437L21.9431 9.89437L23.0568 11.5556ZM13.6232 21.2345C16.0605 17.3874 19.2734 14.091 23.0567 11.5557L21.9433 9.89427C17.929 12.5844 14.5199 16.0821 11.9337 20.1642L13.6232 21.2345ZM8.90141 33.8985C9.57769 29.3948 11.1859 25.0816 13.6232 21.2345L11.9337 20.1642C9.34754 24.2462 7.64117 28.8227 6.92358 33.6015L8.90141 33.8985ZM82.4999 32.75H60.4124V34.75H82.4999V32.75ZM88.5103 35.2396C86.9162 33.6455 84.7542 32.75 82.4999 32.75V34.75C84.2238 34.75 85.8771 35.4348 87.096 36.6538L88.5103 35.2396ZM90.9999 41.25C90.9999 38.9956 90.1043 36.8336 88.5103 35.2396L87.096 36.6538C88.315 37.8728 88.9999 39.5261 88.9999 41.25H90.9999ZM90.9999 63.7499V41.25H88.9999V63.7499H90.9999ZM88.5103 69.7603C90.1043 68.1663 90.9999 66.0043 90.9999 63.7499H88.9999C88.9999 65.4738 88.315 67.1271 87.096 68.3461L88.5103 69.7603ZM82.4999 72.2499C84.7542 72.2499 86.9162 71.3544 88.5103 69.7603L87.096 68.3461C85.8771 69.5651 84.2238 70.2499 82.4999 70.2499V72.2499ZM59.9999 72.2499H82.4999V70.2499H59.9999V72.2499ZM53.9895 69.7603C55.5835 71.3544 57.7455 72.2499 59.9999 72.2499V70.2499C58.276 70.2499 56.6227 69.5651 55.4037 68.3461L53.9895 69.7603ZM51.4999 63.7499C51.4999 66.0043 52.3954 68.1663 53.9895 69.7603L55.4037 68.3461C54.1847 67.1271 53.4999 65.4738 53.4999 63.7499H51.4999ZM51.4999 38.8125V63.7499H53.4999V38.8125H51.4999ZM56.5043 18.8806C53.2212 25.0113 51.5022 31.8577 51.4999 38.8121L53.4999 38.8128C53.5021 32.1875 55.1397 25.6653 58.2674 19.8248L56.5043 18.8806ZM70.3203 3.66784C64.5331 7.5244 59.7874 12.7499 56.5043 18.8806L58.2674 19.8248C61.3951 13.9843 65.9162 9.00615 71.4294 5.33215L70.3203 3.66784ZM77.0702 -0.832051L70.3202 3.66794L71.4296 5.33205L78.1796 0.832051L77.0702 -0.832051ZM82.5483 5.67612L78.4608 -0.548876L76.789 0.548876L80.8765 6.77387L82.5483 5.67612ZM75.5567 11.5556L82.2692 7.05561L81.1555 5.39437L74.443 9.89437L75.5567 11.5556ZM66.1231 21.2345C68.5604 17.3874 71.7733 14.091 75.5566 11.5557L74.4432 9.89427C70.4289 12.5844 67.0198 16.0821 64.4336 20.1642L66.1231 21.2345ZM61.4013 33.8985C62.0776 29.3948 63.6857 25.0816 66.1231 21.2345L64.4336 20.1642C61.8474 24.2462 60.1411 28.8227 59.4235 33.6015L61.4013 33.8985Z" fill="#890C25" mask="url(#path-1-inside-1_1_2349)"/>
</svg>
