<svg width="150" height="143" viewBox="0 0 150 143" fill="none" xmlns="http://www.w3.org/2000/svg">
<path fill-rule="evenodd" clip-rule="evenodd" d="M76.3106 121.171C78.1532 105.656 87.8727 91.2274 97.2339 86.5204C90.4302 77.8328 86.5424 66.4035 85.4166 57.715H74.9812H64.5965C63.42 66.4035 59.5322 77.8328 52.7285 86.5204C62.0897 91.2272 71.8609 105.656 73.7025 121.171V85.59C72.1676 85.0732 71.0418 83.5728 71.0418 81.8145C71.0418 79.6426 72.8328 77.8329 74.9812 77.8329C77.1811 77.8329 78.9206 79.6426 78.9206 81.8145C78.9206 83.5728 77.8455 85.0732 76.3106 85.59V121.171ZM74.9812 40.0801L102.197 47.527L85.4166 52.0775V56.0087H64.5965V52.0775L61.6806 51.3017L75.1342 48.4574C75.4419 48.4061 75.6464 48.096 75.5441 47.7337V47.6816C75.4925 47.8892 75.3386 48.0439 75.1342 48.0959L59.4299 51.4059V57.3012C59.6861 57.5079 59.8906 57.8182 59.8906 58.2317C59.8906 58.4906 59.7874 58.7496 59.6344 58.9563L59.7874 59.4211L60.7593 62.7831H58.8155H56.8716L57.8436 59.4211L57.9974 58.9041C57.8435 58.6974 57.7423 58.4906 57.7423 58.2317C57.7423 57.8182 57.9467 57.508 58.2526 57.3012V51.5092C58.2526 51.0435 58.2019 50.4745 58.4064 50.4223L47.7656 47.5268L74.9812 40.0801Z" fill="#FFF5F5"/>
<path fill-rule="evenodd" clip-rule="evenodd" d="M112.58 127.998C109.409 127.635 106.442 128.98 104.6 131.359C105.828 134.1 108.437 136.117 111.608 136.478C114.78 136.892 117.748 135.496 119.589 133.117C118.361 130.376 115.752 128.359 112.58 127.998ZM100.508 134.41C97.4898 133.375 94.2673 134.048 92.0157 136.013C92.6817 138.961 94.7785 141.495 97.7967 142.529C100.866 143.564 104.037 142.84 106.34 140.874C105.675 137.979 103.578 135.445 100.508 134.41ZM115.292 29.84C116.98 32.1675 119.589 33.4089 122.198 33.4602L122.608 33.9259C130.179 43.0277 134.782 53.8881 136.266 65.2142C137.75 76.4881 136.113 88.2276 131.151 98.9845C126.188 109.741 118.361 118.533 108.897 124.688C101.275 129.548 92.5277 132.755 83.3711 133.841V135.599C92.8861 134.513 101.94 131.255 109.818 126.187C119.589 119.878 127.672 110.775 132.736 99.7082C137.852 88.6411 139.54 76.5914 138.005 64.9553C136.47 53.3191 131.764 42.1486 123.989 32.7878L123.528 32.2708C124.193 29.7366 123.733 26.9436 122.045 24.7204C120.151 22.1341 117.083 20.8936 114.115 21.1516C113.041 23.9447 113.348 27.2546 115.292 29.84ZM116.52 43.1312C119.743 43.0278 122.454 41.2172 123.938 38.5798C122.3 36.0456 119.436 34.4427 116.264 34.5461C113.041 34.6495 110.278 36.46 108.846 39.0976C110.483 41.6317 113.348 43.2346 116.52 43.1312ZM122.556 53.836C125.677 54.5085 128.746 53.4224 130.792 51.2505C129.82 48.4062 127.417 46.1309 124.295 45.4585C121.175 44.7861 118.055 45.872 116.009 48.0439C117.031 50.8884 119.384 53.1637 122.556 53.836ZM125.779 65.6789C128.695 67.1271 131.918 66.8169 134.476 65.2142C134.169 62.2144 132.378 59.4213 129.514 57.9739C126.649 56.577 123.375 56.836 120.868 58.4909C121.175 61.4906 122.914 64.2315 125.779 65.6789ZM126.137 77.9876C128.593 80.056 131.815 80.5739 134.629 79.6425C135.089 76.6435 134.067 73.4883 131.611 71.4197C129.155 69.3511 125.882 68.8343 123.067 69.7648C122.608 72.7645 123.682 75.8677 126.137 77.9876ZM123.528 89.9859C125.37 92.6235 128.389 93.9162 131.406 93.6573C132.532 90.865 132.277 87.6073 130.383 84.9697C128.49 82.3321 125.473 81.0386 122.505 81.2974C121.38 84.0906 121.636 87.3484 123.528 89.9859ZM118.106 101.002C119.283 104.001 121.891 106.018 124.858 106.484C126.649 104.104 127.16 100.794 125.983 97.7953C124.756 94.7954 122.147 92.8303 119.231 92.3134C117.44 94.7441 116.929 98.002 118.106 101.002ZM110.227 110.362C110.637 113.568 112.734 116.154 115.446 117.344C117.748 115.43 119.027 112.379 118.617 109.172C118.157 105.966 116.111 103.432 113.348 102.191C111.046 104.104 109.768 107.155 110.227 110.362ZM100.303 117.551C99.945 120.756 101.378 123.756 103.731 125.567C106.442 124.273 108.386 121.636 108.744 118.43C109.102 115.223 107.67 112.224 105.317 110.362C102.656 111.654 100.662 114.292 100.303 117.551ZM88.9984 122.05C87.8726 125.101 88.5368 128.359 90.3794 130.686C93.2952 130.117 95.8528 128.049 96.9786 124.998C98.0519 121.947 97.4384 118.688 95.5975 116.361C92.63 116.93 90.0717 118.999 88.9984 122.05ZM126.546 31.1328C126.495 34.3394 128.183 37.2359 130.69 38.8386C133.248 37.2871 134.988 34.4427 135.038 31.2361C135.038 27.9783 133.401 25.134 130.895 23.5311C128.286 25.0818 126.598 27.875 126.546 31.1328ZM134.117 42.5622C133.401 45.7166 134.425 48.8721 136.573 50.9918C139.386 50.0093 141.688 47.6305 142.354 44.4761C143.069 41.3208 142.047 38.1664 139.898 36.0457C137.085 37.029 134.782 39.4076 134.117 42.5622ZM139.131 55.3876C137.8 58.3353 138.159 61.594 139.848 64.1282C142.814 63.7659 145.525 61.9042 146.856 58.9565C148.186 56.0087 147.828 52.6987 146.139 50.2158C143.172 50.5782 140.461 52.4399 139.131 55.3876ZM141.433 68.9376C139.54 71.523 139.182 74.833 140.307 77.6261C143.274 77.884 146.344 76.6435 148.237 74.0572C150.13 71.4718 150.488 68.1618 149.363 65.3687C146.395 65.1108 143.325 66.3514 141.433 68.9376ZM140.87 82.6935C138.466 84.8141 137.494 88.0207 138.005 90.9684C140.87 91.8477 144.093 91.2786 146.497 89.1579C148.901 86.986 149.873 83.8316 149.362 80.8839C146.497 79.9526 143.274 80.5738 140.87 82.6935ZM137.545 96.0368C134.731 97.6396 133.145 100.484 132.991 103.535C135.601 104.983 138.875 105.087 141.688 103.535C144.451 101.932 146.088 99.0356 146.19 96.0368C143.582 94.5364 140.307 94.4331 137.545 96.0368ZM131.509 108.397C128.439 109.328 126.291 111.81 125.523 114.758C127.774 116.723 130.946 117.551 134.016 116.568C137.085 115.586 139.233 113.103 140 110.207C137.75 108.19 134.578 107.414 131.509 108.397ZM123.067 119.206C119.896 119.464 117.236 121.481 115.905 124.17C117.696 126.601 120.664 128.049 123.835 127.739C127.007 127.429 129.666 125.463 130.997 122.774C129.207 120.343 126.239 118.895 123.067 119.206Z" fill="white"/>
<path fill-rule="evenodd" clip-rule="evenodd" d="M49.4541 134.41C52.4723 133.375 55.6948 134.048 57.9973 136.013C57.332 138.961 55.2352 141.495 52.1656 142.529C49.1475 143.564 45.9248 142.84 43.6732 140.874C44.3392 137.979 46.4361 135.445 49.4541 134.41ZM34.7211 29.84C33.0333 32.1675 30.4242 33.4089 27.7635 33.4602L27.3545 33.9259C19.8349 43.0277 15.1797 53.8881 13.6964 65.2142C12.2122 76.4881 13.9009 88.2276 18.8114 98.9845C23.7743 109.741 31.6006 118.533 41.1156 124.688C48.7374 129.548 57.4342 132.755 66.6425 133.841V135.599C57.076 134.513 48.0731 131.255 40.1437 126.187C30.3734 119.878 22.3408 110.775 17.2258 99.7082C12.1615 88.6411 10.4221 76.5914 11.957 64.9553C13.4919 53.3193 18.2486 42.1486 26.0242 32.7878L26.4341 32.2708C25.8197 29.7366 26.2802 26.9436 27.9174 24.7204C29.8613 22.1341 32.8794 20.8936 35.8469 21.1516C36.9727 23.9447 36.6142 27.2546 34.7211 29.84ZM33.4423 43.1312C30.2703 43.0278 27.5082 41.2172 26.0242 38.5798C27.7128 36.0456 30.5265 34.4427 33.7491 34.5461C36.921 34.6495 39.6839 36.46 41.1663 39.0976C39.5302 41.6317 36.6651 43.2346 33.4423 43.1312ZM27.4576 53.836C24.3363 54.5085 21.2159 53.4224 19.1698 51.2505C20.1417 48.4062 22.5455 46.1309 25.6667 45.4585C28.787 44.7861 31.9074 45.872 33.9537 48.0439C32.9816 50.8884 30.578 53.1637 27.4576 53.836ZM24.1834 65.6789C21.3182 67.1271 18.044 66.8169 15.5372 65.2142C15.7934 62.2144 17.5843 59.4213 20.4486 57.9739C23.3129 56.577 26.5871 56.836 29.0939 58.4909C28.8386 61.4906 27.0477 64.2315 24.1834 65.6789ZM23.8757 77.9876C21.4204 80.056 18.1472 80.5739 15.3327 79.6425C14.8729 76.6435 15.9462 73.4883 18.4023 71.4197C20.8584 69.3511 24.0802 68.8343 26.8947 69.7648C27.3544 72.7645 26.2802 75.8677 23.8757 77.9876ZM26.4857 89.9859C24.5925 92.6235 21.5735 93.9162 18.6069 93.6573C17.4811 90.865 17.7373 87.6073 19.6296 84.9697C21.4721 82.3321 24.4902 81.0386 27.4576 81.2974C28.6342 84.0906 28.378 87.3484 26.4857 89.9859ZM31.9075 101.002C30.6794 104.001 28.0712 106.018 25.1554 106.484C23.3645 104.104 22.8531 100.794 24.0296 97.7953C25.2061 94.7954 27.8151 92.8303 30.7826 92.3134C32.5727 94.7441 33.0848 98.002 31.9075 101.002ZM39.7854 110.362C39.3256 113.568 37.2786 116.154 34.5166 117.344C32.2143 115.43 30.9356 112.379 31.3963 109.172C31.8054 105.966 33.9031 103.432 36.6144 102.191C38.9166 104.104 40.246 107.155 39.7854 110.362ZM49.6588 117.551C50.0171 120.756 48.6361 123.756 46.2831 125.567C43.5718 124.273 41.5763 121.636 41.2695 118.43C40.9111 115.223 42.2921 112.224 44.6451 110.362C47.3564 111.654 49.352 114.292 49.6588 117.551ZM61.0154 122.05C62.0896 125.101 61.476 128.359 59.6344 130.686C56.6669 130.117 54.1095 128.049 53.0353 124.998C51.9102 121.947 52.5746 118.688 54.4163 116.361C57.332 116.93 59.8904 118.999 61.0154 122.05ZM23.4667 31.1328C23.4667 34.3394 21.8305 37.2359 19.3237 38.8386C16.7137 37.2871 15.0259 34.4427 14.9742 31.2361C14.9236 27.9783 16.6123 25.134 19.1191 23.5311C21.6766 25.0818 23.4159 27.875 23.4667 31.1328ZM15.8957 42.5622C16.6124 45.7166 15.5372 48.8721 13.4404 50.9918C10.5762 50.0093 8.32454 47.6305 7.60869 44.4761C6.89284 41.3208 7.96617 38.1664 10.1146 36.0457C12.9291 37.029 15.1798 39.4076 15.8957 42.5622ZM10.8312 55.3876C12.2122 58.3353 11.8033 61.594 10.1661 64.1282C7.1986 63.7659 4.48732 61.9042 3.15779 58.9565C1.82751 56.0087 2.18588 52.6987 3.82294 50.2158C6.78965 50.5782 9.50094 52.4399 10.8312 55.3876ZM8.58061 68.9376C10.473 71.523 10.7805 74.833 9.65483 77.6261C6.68837 77.884 3.6693 76.6435 1.77617 74.0572C-0.167794 71.4718 -0.473684 68.1618 0.651241 65.3687C3.61859 65.1108 6.63665 66.3514 8.58061 68.9376ZM9.09186 82.6935C11.4965 84.8141 12.4684 88.0207 12.0077 90.9684C9.14257 91.8477 5.9208 91.2786 3.51541 89.1579C1.11179 86.986 0.0891642 83.8316 0.599526 80.8839C3.4647 79.9526 6.68824 80.5738 9.09186 82.6935ZM12.4684 96.0368C15.2313 97.6396 16.8676 100.484 16.9706 103.535C14.3608 104.983 11.0865 105.087 8.32441 103.535C5.51083 101.932 3.92524 99.0356 3.77236 96.0368C6.38058 94.5364 9.65483 94.4331 12.4684 96.0368ZM18.5046 108.397C21.5734 109.328 23.7227 111.81 24.4387 114.758C22.188 116.723 19.016 117.551 15.9464 116.568C12.9291 115.586 10.729 113.103 10.0132 110.207C12.2639 108.19 15.4358 107.414 18.5046 108.397ZM26.9454 119.206C30.1166 119.464 32.7771 121.481 34.0567 124.17C32.2659 126.601 29.35 128.049 26.1274 127.739C22.9554 127.429 20.3463 125.463 19.016 122.774C20.8068 120.343 23.7227 118.895 26.9454 119.206ZM37.4324 127.998C40.6043 127.583 43.5718 128.98 45.4126 131.359C44.1854 134.1 41.5762 136.117 38.4044 136.478C35.2332 136.892 32.2143 135.496 30.3735 133.117C31.6513 130.376 34.2097 128.359 37.4324 127.998Z" fill="white"/>
<path fill-rule="evenodd" clip-rule="evenodd" d="M74.9805 0L77.5897 8.22277L86.1327 8.17164L79.2267 13.2391L81.8864 21.4619L74.9804 16.3423L68.1251 21.4619L70.735 13.2391L63.8283 8.17164L72.3713 8.22277L74.9805 0ZM54.7224 12.981L53.0347 18.3073H47.5098L51.9604 21.5652L50.2717 26.8924L54.7224 23.6345L59.2239 26.8924L57.4845 21.5652L61.9867 18.3073H56.4619L54.7224 12.981ZM95.2387 12.981L96.9781 18.3073H102.502L98.0008 21.5652L99.7402 26.8924L95.2388 23.6345L90.7881 26.8924L92.4767 21.5652L88.0261 18.3073H93.5502L95.2387 12.981Z" fill="white"/>
<path fill-rule="evenodd" clip-rule="evenodd" d="M74.9807 131.203C76.9245 131.203 78.4594 132.755 78.4594 134.72C78.4594 136.685 76.9245 138.237 74.9807 138.237C73.0883 138.237 71.502 136.685 71.502 134.72C71.5018 132.755 73.0883 131.203 74.9807 131.203Z" fill="white"/>
</svg>
