<svg width="39" height="30" viewBox="0 0 39 30" fill="none" xmlns="http://www.w3.org/2000/svg">
<path id="Vector" d="M38.2202 25.9772L22.8766 28.0593V28.1723C22.8766 29.1801 21.9458 30 20.8016 30H17.9795C16.8353 30 15.9044 29.1802 15.9044 28.1723V28.0595L0.530074 25.9772C0.188902 25.931 -0.045082 25.65 0.00733984 25.3495C0.0598398 25.049 0.378434 24.843 0.720074 24.8891L16.6244 27.0432C16.9293 27.0846 17.1544 27.3155 17.1544 27.5873V28.1723C17.1544 28.573 17.5245 28.8991 17.9795 28.8991H20.8016C21.2565 28.8991 21.6266 28.5731 21.6266 28.1723V27.5873C21.6266 27.3156 21.8516 27.0845 22.1565 27.0433L38.03 24.8892C38.3702 24.842 38.6902 25.0488 38.7428 25.3494C38.7953 25.6498 38.5614 25.9309 38.2202 25.9772ZM0.449215 17.7612C0.383824 17.5931 0.414684 17.4075 0.532027 17.2629C0.649371 17.1184 0.838746 17.0325 1.04054 17.0325C4.54187 17.0325 8.13242 17.7243 11.1509 18.9804C14.7111 20.4619 17.473 22.6659 19.3752 25.5396C21.2773 22.6658 24.0391 20.4619 27.5994 18.9804C30.6179 17.7243 34.2084 17.0325 37.7098 17.0325C37.9116 17.0325 38.1009 17.1183 38.2183 17.2629C38.3356 17.4076 38.3664 17.5931 38.3011 17.7612L35.8553 24.0538C35.7688 24.2764 35.5312 24.426 35.2641 24.426C28.8535 24.426 23.3378 25.6463 19.7329 27.8622C19.7311 27.8633 19.7291 27.864 19.7273 27.8651C19.7034 27.8796 19.6786 27.8924 19.6531 27.9036C19.6492 27.9053 19.6452 27.9067 19.6412 27.9084C19.6173 27.9184 19.5927 27.927 19.5678 27.9341C19.5644 27.935 19.561 27.9363 19.5576 27.9371C19.5309 27.9443 19.5039 27.9496 19.4766 27.9535C19.4706 27.9543 19.4648 27.955 19.4587 27.9557C19.431 27.959 19.4031 27.9612 19.3752 27.9612C19.3472 27.9612 19.3193 27.959 19.2916 27.9557C19.2856 27.955 19.2797 27.9543 19.2737 27.9535C19.2464 27.9496 19.2194 27.9443 19.1927 27.9371C19.1893 27.9363 19.1859 27.935 19.1825 27.9341C19.1576 27.927 19.133 27.9184 19.1091 27.9084C19.1052 27.9067 19.1011 27.9053 19.0972 27.9036C19.0716 27.8924 19.0469 27.8796 19.023 27.8651C19.0212 27.864 19.0191 27.8633 19.0173 27.8622C15.4124 25.6463 9.89671 24.426 3.48617 24.426C3.21898 24.426 2.9814 24.2764 2.89492 24.0538L0.449215 17.7612ZM3.93367 23.3271C7.91898 23.3619 11.5713 23.8626 14.6603 24.7763C11.1548 22.7157 6.88812 21.0709 3.02 20.9764L3.93367 23.3271ZM35.7302 20.9763C31.8621 21.0708 27.5954 22.7157 24.0899 24.7763C27.1789 23.8625 30.8312 23.3619 34.8166 23.327L35.7302 20.9763ZM20.8747 25.4925C25.0211 22.5025 30.8316 19.8705 36.0791 19.8705C36.1059 19.8705 36.1321 19.8725 36.158 19.8754L36.8285 18.1504C33.3423 18.2807 25.4152 19.2936 20.8747 25.4925ZM1.92164 18.1504L2.59211 19.8754C2.61804 19.8725 2.64421 19.8705 2.67101 19.8705C7.91851 19.8705 13.7291 22.5025 17.8755 25.4925C13.335 19.2936 5.40789 18.2807 1.92164 18.1504ZM3.40382 4.04553C3.40382 3.79597 3.59445 3.57757 3.86836 3.51358L18.8079 0.0184233C18.913 -0.00614109 19.0237 -0.00614109 19.1287 0.0184233L34.0682 3.51358C34.3421 3.57764 34.5327 3.79597 34.5327 4.04553C34.5327 4.2951 34.3421 4.51349 34.0682 4.57748L33.6289 4.68028V10.5204L35.0337 11.2348C35.2271 11.3331 35.3462 11.5147 35.3462 11.7115V16.3245C35.3462 16.5332 35.2123 16.7239 35.0003 16.817C34.7884 16.9104 34.5348 16.8899 34.3455 16.7644L33.0039 15.8759L31.6622 16.7644C31.5519 16.8375 31.4196 16.8749 31.2865 16.8749C31.1913 16.8749 31.0958 16.8559 31.0074 16.8169C30.7955 16.7238 30.6616 16.5331 30.6616 16.3245V11.7114C30.6616 11.5147 30.7806 11.333 30.9741 11.2347L32.3787 10.5204V4.97265L29.8086 5.57396V12.3382C29.8086 12.604 29.5929 12.8319 29.296 12.8797C27.5565 13.1598 26.1222 13.4041 24.9697 13.6003C21.9969 14.1064 20.4825 14.3595 18.9682 14.3595C17.4537 14.3595 15.9393 14.1064 12.9666 13.6003C11.8141 13.4041 10.3798 13.1599 8.64031 12.8797C8.34343 12.8319 8.12773 12.604 8.12773 12.3382V5.57396L3.86828 4.57748C3.59453 4.51349 3.40382 4.2951 3.40382 4.04553ZM34.0962 12.0292L33.0041 11.4738L31.9118 12.0293V15.2218L32.6285 14.7473C32.8509 14.5998 33.1572 14.5998 33.3798 14.7473L34.0963 15.2218V12.0292H34.0962ZM28.5587 5.86646L19.1288 8.07257C19.0762 8.08489 19.0223 8.09108 18.9684 8.09108C18.9144 8.09108 18.8605 8.08489 18.8079 8.07257L9.37789 5.86646V11.8798C10.8947 12.1262 12.1638 12.3424 13.204 12.5195C18.9684 13.501 18.9685 13.5009 24.7327 12.5195C25.7727 12.3424 27.0419 12.1262 28.5587 11.8798V5.86646ZM6.46328 4.04553L18.9683 6.9711L31.4732 4.04553L18.9684 1.1199L6.46328 4.04553Z" fill="white"/>
</svg>
