<svg width="40" height="40" viewBox="0 0 40 40" fill="none" xmlns="http://www.w3.org/2000/svg">
<g id="university (1) 1">
<g id="Group">
<g id="Group_2">
<path id="Vector" d="M39.3103 18.7174H30.4897V17.014C30.4892 16.7652 30.3548 16.5359 30.1379 16.414L20.6897 11.1036V8.40018H22.5586V9.42776C22.5586 9.80862 22.8674 10.1174 23.2483 10.1174H28.8828C29.2636 10.1172 29.5722 9.80836 29.5722 9.4275C29.5722 9.34768 29.5582 9.26845 29.531 9.19328L28.9655 7.58638L29.5379 6.01397C29.6674 5.65578 29.4821 5.26043 29.1239 5.13095C29.0488 5.1038 28.9696 5.08992 28.8897 5.08983H26.3241V4.08983C26.3241 3.70897 26.0153 3.40017 25.6345 3.40017H20.6897V2.5588C20.6897 2.17793 20.3809 1.86914 20 1.86914C19.6191 1.86914 19.3103 2.17793 19.3103 2.5588V11.1036L9.86207 16.4071C9.64517 16.529 9.51078 16.7583 9.51034 17.0071V18.7105H0.689655C0.308793 18.7105 0 19.0193 0 19.4002V37.4416C0 37.8224 0.308793 38.1312 0.689655 38.1312H39.3103C39.6912 38.1312 40 37.8224 40 37.4416V19.4071C40 19.0262 39.6912 18.7174 39.3103 18.7174ZM26.3241 7.71052L26.2966 7.68293V6.49673H27.869L27.5862 7.37949C27.5297 7.53311 27.5297 7.70173 27.5862 7.85535L27.9103 8.73811H23.9379V8.40018H25.6345C26.0153 8.40018 26.3241 8.09138 26.3241 7.71052ZM20.6897 4.77949H24.9448V5.80707V7.02086H20.6897V4.77949ZM9.51034 36.7519H1.37931V20.0967H9.51034V36.7519ZM19.3103 36.7519H15.6897V28.876H19.3103V36.7519ZM24.3103 36.7519H20.6897V28.876H24.3103V36.7519ZM29.1379 36.7519H25.6897V28.1864C25.6897 27.8055 25.3809 27.4967 25 27.4967H15C14.6191 27.4967 14.3103 27.8055 14.3103 28.1864V36.7519H10.8621V17.4416L20 12.2967L29.1103 17.414L29.1379 19.4002V36.7519ZM38.6207 36.7519H30.4897V20.0967H38.6207V36.7519Z" fill="white"/>
</g>
</g>
<g id="Group_3">
<g id="Group_4">
<path id="Vector_2" d="M20 14.4062C18.4029 14.41 17.1104 15.7057 17.1104 17.3028C17.1141 18.8988 18.411 20.1894 20.0069 20.1856C21.6029 20.1818 22.8935 18.885 22.8897 17.289C22.8859 15.6958 21.5932 14.4062 20 14.4062ZM20 18.8063C19.1659 18.8025 18.4928 18.1231 18.4966 17.289C18.5004 16.4603 19.1712 15.7894 20 15.7856C20.8353 15.7894 21.5104 16.4675 21.5104 17.3028H21.5172C21.5135 18.1369 20.8341 18.81 20 18.8063Z" fill="white"/>
</g>
</g>
<g id="Group_5">
<g id="Group_6">
<path id="Vector_3" d="M4.42069 21.6133H3.04138V24.3719H4.42069V21.6133Z" fill="white"/>
</g>
</g>
<g id="Group_7">
<g id="Group_8">
<path id="Vector_4" d="M7.82072 21.6133H6.44141V24.3719H7.82072V21.6133Z" fill="white"/>
</g>
</g>
<g id="Group_9">
<g id="Group_10">
<path id="Vector_5" d="M15.7172 21.6133H12.9586V22.9926H15.7172V21.6133Z" fill="white"/>
</g>
</g>
<g id="Group_11">
<g id="Group_12">
<path id="Vector_6" d="M21.3793 21.6133H18.6207V22.9926H21.3793V21.6133Z" fill="white"/>
</g>
</g>
<g id="Group_13">
<g id="Group_14">
<path id="Vector_7" d="M27.0413 21.6133H24.2827V22.9926H27.0413V21.6133Z" fill="white"/>
</g>
</g>
<g id="Group_15">
<g id="Group_16">
<path id="Vector_8" d="M15.7172 24.8281H12.9586V26.2074H15.7172V24.8281Z" fill="white"/>
</g>
</g>
<g id="Group_17">
<g id="Group_18">
<path id="Vector_9" d="M21.3793 24.8281H18.6207V26.2074H21.3793V24.8281Z" fill="white"/>
</g>
</g>
<g id="Group_19">
<g id="Group_20">
<path id="Vector_10" d="M27.0413 24.8281H24.2827V26.2074H27.0413V24.8281Z" fill="white"/>
</g>
</g>
<g id="Group_21">
<g id="Group_22">
<path id="Vector_11" d="M4.42069 27.041H3.04138V29.7996H4.42069V27.041Z" fill="white"/>
</g>
</g>
<g id="Group_23">
<g id="Group_24">
<path id="Vector_12" d="M7.82072 27.041H6.44141V29.7996H7.82072V27.041Z" fill="white"/>
</g>
</g>
<g id="Group_25">
<g id="Group_26">
<path id="Vector_13" d="M4.42069 32.4766H3.04138V35.2352H4.42069V32.4766Z" fill="white"/>
</g>
</g>
<g id="Group_27">
<g id="Group_28">
<path id="Vector_14" d="M7.82072 32.4766H6.44141V35.2352H7.82072V32.4766Z" fill="white"/>
</g>
</g>
<g id="Group_29">
<g id="Group_30">
<path id="Vector_15" d="M33.5586 21.6133H32.1793V24.3719H33.5586V21.6133Z" fill="white"/>
</g>
</g>
<g id="Group_31">
<g id="Group_32">
<path id="Vector_16" d="M36.9587 21.6133H35.5793V24.3719H36.9587V21.6133Z" fill="white"/>
</g>
</g>
<g id="Group_33">
<g id="Group_34">
<path id="Vector_17" d="M33.5586 27.041H32.1793V29.7996H33.5586V27.041Z" fill="white"/>
</g>
</g>
<g id="Group_35">
<g id="Group_36">
<path id="Vector_18" d="M36.9587 27.041H35.5793V29.7996H36.9587V27.041Z" fill="white"/>
</g>
</g>
<g id="Group_37">
<g id="Group_38">
<path id="Vector_19" d="M33.5586 32.4766H32.1793V35.2352H33.5586V32.4766Z" fill="white"/>
</g>
</g>
<g id="Group_39">
<g id="Group_40">
<path id="Vector_20" d="M36.9587 32.4766H35.5793V35.2352H36.9587V32.4766Z" fill="white"/>
</g>
</g>
</g>
</svg>
