<svg width="50" height="50" viewBox="0 0 50 50" fill="none" xmlns="http://www.w3.org/2000/svg">
<path d="M46.7266 39.2579C46.4532 38.1329 45.3985 37.3986 44.2813 37.4767L42.1329 31.7579C42.0547 31.5548 41.8985 31.3908 41.7032 31.3126C41.5079 31.2267 41.2813 31.2345 41.086 31.3204L25.5157 38.3283C25.3438 38.3048 25.1719 38.2814 25 38.2814C24.8282 38.2814 24.6563 38.3048 24.4844 38.3283L8.91411 31.3204C8.7188 31.2345 8.49224 31.2267 8.29692 31.3126C8.0938 31.3986 7.93755 31.5548 7.86723 31.7579L5.72661 37.4689C5.26567 37.4454 4.81255 37.5548 4.4063 37.8048C3.86724 38.1329 3.49224 38.6486 3.3438 39.2579C3.19536 39.8673 3.29692 40.4923 3.61724 41.0314C3.94536 41.5626 4.46099 41.9454 5.06255 42.0861L24.4454 46.7892C24.625 46.8361 24.8125 46.8517 25 46.8517C25.1875 46.8517 25.3672 46.8283 25.5547 46.7892L45.0079 42.0861C45.6172 41.9376 46.1329 41.5626 46.4532 41.0314C46.7813 40.4923 46.875 39.8673 46.7266 39.2579ZM40.9688 33.0861L41.5235 34.5704L35.6641 36.7658C35.2579 36.9142 35.0547 37.3673 35.2032 37.7736C35.3204 38.0861 35.625 38.2814 35.9375 38.2814C36.0313 38.2814 36.125 38.2658 36.211 38.2345L42.0704 36.0392L42.7344 37.8204L29.2813 41.0704C28.9219 40.2579 28.336 39.5861 27.6094 39.1017L40.9688 33.0861ZM25 42.1017L22.2813 41.4454C22.8204 40.4767 23.8438 39.8517 25 39.8517C26.1563 39.8517 27.1797 40.4845 27.7188 41.4533L25 42.1017ZM9.0313 33.0861L22.3829 39.0939C21.6641 39.5783 21.0782 40.2501 20.7188 41.0626L7.26567 37.797L7.92973 36.0314L13.7891 38.2267C13.875 38.2658 13.9688 38.2814 14.0625 38.2814C14.375 38.2814 14.6797 38.0861 14.7969 37.7736C14.9454 37.3673 14.7422 36.922 14.336 36.7658L8.47661 34.5704L9.0313 33.0861ZM4.94536 40.2189C4.83599 40.0392 4.80474 39.8283 4.85161 39.6251C4.89849 39.422 5.0313 39.2423 5.21099 39.1408C5.32817 39.0626 5.4688 39.0236 5.60161 39.0236C5.66411 39.0236 5.72661 39.0314 5.79692 39.047L21 42.7345C21.0079 42.7345 21.0157 42.7423 21.0235 42.7423H21.0547L21.3594 42.8126L21.5157 44.4611L5.42973 40.5704C5.22661 40.5158 5.05474 40.3908 4.94536 40.2189ZM25.1875 45.2736C25.0625 45.3048 24.9375 45.3048 24.8204 45.2736L23.125 44.8595L22.9688 43.2111L24.8204 43.6642C24.9454 43.6954 25.0704 43.6954 25.1875 43.6642L27.0391 43.2189L26.8829 44.8673L25.1875 45.2736ZM45.1172 40.2189C45.0079 40.3986 44.836 40.5236 44.6329 40.5704L28.4844 44.4767L28.6407 42.8283L28.9532 42.7501H28.9688C28.9688 42.7501 28.9766 42.7501 28.9766 42.7423L44.2579 39.047C44.6797 38.9454 45.1016 39.2033 45.2032 39.6251C45.2579 39.8283 45.2266 40.0392 45.1172 40.2189Z" fill="white"/>
<path d="M18.75 23.0227V24.218V28.9055C18.75 29.9446 19.4297 30.8118 20.3672 31.1243C20.6797 33.3977 22.6406 35.1555 25 35.1555C27.3594 35.1555 29.3203 33.3977 29.6328 31.1243C30.5703 30.8118 31.25 29.9446 31.25 28.9055V24.218V23.0227C34.6328 20.6633 36.3906 16.6946 35.8359 12.5696C35.1875 7.68678 31.1562 3.74147 26.2578 3.19459C23.1484 2.84303 20.0312 3.83522 17.7109 5.90553C15.3906 7.98365 14.0625 10.9524 14.0625 14.0618C14.0625 17.6555 15.8047 20.9758 18.75 23.0227ZM29.6875 24.9993V26.5618H20.3125V24.9993H29.6875ZM25 33.593C23.5469 33.593 22.3359 32.593 21.9844 31.2493H28.0156C27.6641 32.593 26.4531 33.593 25 33.593ZM28.9062 29.6868H21.0938C20.6641 29.6868 20.3125 29.3352 20.3125 28.9055V28.1243H29.6875V28.9055C29.6875 29.3352 29.3359 29.6868 28.9062 29.6868ZM18.75 7.06959C20.4922 5.5149 22.6719 4.68678 24.9844 4.68678C25.3438 4.68678 25.7109 4.71022 26.0781 4.74928C30.2734 5.21803 33.7266 8.59303 34.2812 12.7805C34.7734 16.4446 33.1406 19.9602 30.0391 21.9524C29.8203 22.093 29.6875 22.343 29.6875 22.6087V23.4368H25.7812V14.843H28.125C28.5547 14.843 28.9062 14.4915 28.9062 14.0618C28.9062 13.6321 28.5547 13.2805 28.125 13.2805H21.875C21.4453 13.2805 21.0938 13.6321 21.0938 14.0618C21.0938 14.4915 21.4453 14.843 21.875 14.843H24.2188V23.4368H20.3125V22.6087C20.3125 22.343 20.1797 22.093 19.9531 21.9524C17.2422 20.2102 15.625 17.2649 15.625 14.0618C15.625 11.3977 16.7656 8.85084 18.75 7.06959Z" fill="white"/>
<path d="M39.8438 14.8438H42.9688C43.3984 14.8438 43.75 14.4922 43.75 14.0625C43.75 13.6328 43.3984 13.2812 42.9688 13.2812H39.8438C39.4141 13.2812 39.0625 13.6328 39.0625 14.0625C39.0625 14.4922 39.4141 14.8438 39.8438 14.8438Z" fill="white"/>
<path d="M39.8438 10.1554C39.961 10.1554 40.0782 10.132 40.1954 10.0695L43.3204 8.507C43.7032 8.31169 43.8594 7.84294 43.6719 7.46012C43.4766 7.07731 43.0079 6.92106 42.625 7.10856L39.5 8.67106C39.1172 8.86637 38.961 9.33512 39.1485 9.71794C39.2813 9.99919 39.5547 10.1554 39.8438 10.1554Z" fill="white"/>
<path d="M40.1954 18.0548C39.8048 17.8595 39.336 18.0157 39.1485 18.4063C38.9532 18.7892 39.1095 19.2579 39.5001 19.4532L42.6251 21.0157C42.7345 21.0704 42.8517 21.0938 42.9688 21.0938C43.2579 21.0938 43.5314 20.9376 43.672 20.6642C43.8673 20.2814 43.711 19.8126 43.3204 19.6173L40.1954 18.0548Z" fill="white"/>
<path d="M7.03125 14.8438H10.1562C10.5859 14.8438 10.9375 14.4922 10.9375 14.0625C10.9375 13.6328 10.5859 13.2812 10.1562 13.2812H7.03125C6.60156 13.2812 6.25 13.6328 6.25 14.0625C6.25 14.4922 6.60156 14.8438 7.03125 14.8438Z" fill="white"/>
<path d="M6.67974 8.50616L9.80474 10.0687C9.92193 10.1312 10.0391 10.1546 10.1563 10.1546C10.4454 10.1546 10.7188 9.99834 10.8594 9.72491C11.0547 9.34209 10.8985 8.87334 10.5079 8.67803L7.38286 7.11553C6.99224 6.92022 6.52349 7.07647 6.33599 7.45928C6.14068 7.84991 6.29693 8.31866 6.67974 8.50616Z" fill="white"/>
<path d="M9.80473 18.053L6.67973 19.6155C6.29692 19.8108 6.14067 20.2796 6.32817 20.6624C6.46879 20.9358 6.74223 21.0921 7.03129 21.0921C7.14848 21.0921 7.26567 21.0687 7.38285 21.0062L10.5079 19.4437C10.8907 19.2483 11.0469 18.7796 10.8594 18.3968C10.6641 18.014 10.1954 17.8577 9.80473 18.053Z" fill="white"/>
</svg>
