<svg width="50" height="50" viewBox="0 0 50 50" fill="none" xmlns="http://www.w3.org/2000/svg">
<path d="M38.931 34.4394C43.1724 30.1979 45.5084 24.5583 45.5084 18.5596C45.5084 12.5608 43.1724 6.92132 38.931 2.67981C37.7891 1.5379 35.9307 1.5378 34.7884 2.67981C34.4943 2.9739 34.2765 3.31574 34.1338 3.68043C28.2015 -0.747181 20.1033 -1.26712 13.5937 2.59515C13.1299 2.87031 12.977 3.46933 13.2521 3.93312C13.5272 4.39701 14.1264 4.54992 14.5901 4.27467C16.8303 2.94549 19.2808 2.19649 21.7507 2.00345L21.3467 3.44082C21.0152 4.62071 20.9014 4.86442 20.0696 5.60981C19.7649 5.88291 19.46 6.16216 19.1652 6.43224C18.875 6.69831 18.5747 6.97336 18.2786 7.23865C18.2653 7.25056 18.2524 7.26277 18.2398 7.27536C17.5276 7.98755 17.3093 8.91436 17.6411 9.81812C18.0957 11.0568 19.5718 12.0837 21.0747 12.2069L26.8086 12.6768C28.3299 12.8013 29.1848 12.6307 30.2281 11.2895C30.3716 11.1049 30.5707 10.9882 30.7743 10.9692C30.9918 10.9489 31.2118 11.0365 31.4302 11.2294L34.3146 13.7774C35.0593 14.4353 35.8178 15.0124 36.7777 15.0123C37.1749 15.0123 37.6068 14.9134 38.0862 14.6804L39.0653 14.2047C40.5656 19.7586 39.1402 25.9452 34.7884 30.2969C34.4247 30.6606 34.0476 31.0026 33.6598 31.3254L32.7117 30.4143C31.6406 29.3848 30.6402 29.242 29.4664 29.3447L24.3894 29.7888C23.4214 29.8737 23.3676 29.7641 23.1085 29.2383L22.6597 28.3276C22.6262 28.2597 22.6228 28.1702 22.6509 28.0994C22.6734 28.0429 22.7099 28.0089 22.773 27.9853L24.5403 27.3278C25.9574 26.8006 26.3694 26.0227 26.6699 24.681L27.4335 21.2733C27.6292 20.4006 27.4361 19.5418 26.9038 18.9171C26.3901 18.3138 25.6358 18.0099 24.781 18.0626L21.923 18.2371C20.533 18.3219 19.6595 18.9391 19.1743 20.1796L18.5437 21.7923C18.2348 22.5818 18.0889 22.7013 17.2421 22.8575L15.8014 23.1233C15.6764 23.1465 15.2967 23.2163 15.066 22.5786L14.2299 20.2685C13.7462 18.9318 12.7721 18.2175 11.2522 18.0846L6.46854 17.6663C6.60788 15.0594 7.36381 12.462 8.76583 10.0989C9.04098 9.63514 8.88808 9.03611 8.42429 8.76096C7.96049 8.48581 7.36147 8.63862 7.08632 9.10251C3.22424 15.612 3.74418 23.7099 8.17188 29.6423C7.8072 29.7849 7.46536 30.0027 7.17126 30.2968C6.02916 31.4389 6.02916 33.2972 7.17126 34.4394C11.1818 38.4498 16.4423 40.7553 22.0744 40.9947V43.6532H15.2397C13.6245 43.6532 12.3105 44.9673 12.3105 46.5824V49.0235C12.3105 49.5627 12.7476 49.9999 13.2869 49.9999H36.7205C37.2597 49.9999 37.6969 49.5627 37.6969 49.0235V46.5824C37.6969 44.9673 36.383 43.6532 34.7678 43.6532H27.933V40.4869C32.068 39.5751 35.8649 37.5055 38.931 34.4394ZM37.2327 12.924C36.8065 13.1312 36.6299 13.2171 35.6073 12.3138L32.7228 9.76588C32.1023 9.21763 31.3457 8.95459 30.5926 9.02498C29.8543 9.09392 29.1596 9.48233 28.6866 10.0906C28.153 10.7766 28.041 10.8184 26.968 10.7307L21.2341 10.2607C20.4372 10.1954 19.6477 9.61796 19.4743 9.14547C19.427 9.01668 19.4017 8.88331 19.6046 8.6727C19.9012 8.40663 20.1976 8.13509 20.4845 7.87224C20.7753 7.60578 21.0761 7.33014 21.3727 7.06436C22.5749 5.98709 22.8358 5.35995 23.2266 3.96925L23.7884 1.96996C27.8239 2.15148 31.7699 3.80424 34.7883 6.8227C36.4136 8.44793 37.6304 10.3293 38.4394 12.3378L37.2327 12.924ZM12.3938 20.9329L13.2299 23.2429C13.712 24.5757 14.8609 25.2827 16.1559 25.0436L17.5965 24.7778C19.1086 24.4989 19.8065 23.9249 20.3624 22.5035L20.9931 20.8909C21.1755 20.4245 21.3214 20.2302 22.042 20.1863L24.9001 20.0118C25.1336 19.9974 25.3081 20.0552 25.4174 20.1835C25.5458 20.3343 25.5872 20.5821 25.528 20.8463L24.7642 24.254C24.5508 25.2067 24.4652 25.2722 23.8592 25.4975L22.0919 26.1551C21.5095 26.3718 21.0635 26.806 20.8361 27.3779C20.603 27.9642 20.6291 28.6249 20.9077 29.1906L21.3566 30.1016C22.109 31.6287 23.1399 31.8586 24.5594 31.7342L29.6363 31.2901C30.4268 31.2211 30.8056 31.2909 31.3583 31.8223L32.0632 32.4997C25.635 36.6574 16.9406 35.9237 11.3138 30.2968C8.37781 27.3608 6.73383 23.5473 6.47919 19.6275L11.0819 20.03C11.937 20.1047 12.2027 20.4049 12.3938 20.9329ZM8.55229 31.6777C8.9328 31.2971 9.55203 31.297 9.93273 31.6773C9.93283 31.6774 9.93293 31.6776 9.93313 31.6777C13.5498 35.2943 18.3004 37.1027 23.0512 37.1027C27.8018 37.1027 32.5526 35.2943 36.1694 31.6777C43.4026 24.4444 43.4026 12.6749 36.1694 5.44157C35.9849 5.25713 35.8834 5.01196 35.8834 4.75116C35.8834 4.49036 35.9849 4.24518 36.1694 4.06074C36.5501 3.68004 37.1696 3.68014 37.5502 4.06074C45.5449 12.0555 45.5449 25.0638 37.5502 33.0585C29.5556 41.0533 16.5472 41.0533 8.55239 33.0585C8.17159 32.6778 8.17159 32.0584 8.55229 31.6777ZM35.7443 46.5825V48.0472H14.2635V46.5825C14.2635 46.0442 14.7015 45.6061 15.2399 45.6061H34.768C35.3064 45.6061 35.7443 46.0442 35.7443 46.5825ZM25.9804 43.6533H24.0275V40.9948C24.684 40.9668 25.3353 40.9109 25.9804 40.8274V43.6533Z" fill="white"/>
<path d="M10.6236 7.10906C11.1629 7.10906 11.6001 6.67193 11.6001 6.13266C11.6001 5.59339 11.1629 5.15625 10.6236 5.15625H10.6229C10.0836 5.15625 9.64685 5.59339 9.64685 6.13266C9.64685 6.67193 10.0844 7.10906 10.6236 7.10906Z" fill="white"/>
</svg>
