<svg width="50" height="50" viewBox="0 0 50 50" fill="none" xmlns="http://www.w3.org/2000/svg">
<path d="M39.2955 26.5977C36.0682 26.5977 33.4395 29.2264 33.4395 32.4537C33.4395 35.681 36.0682 38.3098 39.2955 38.3098C42.5228 38.3098 45.1516 35.681 45.1516 32.4537C45.1516 29.2264 42.5228 26.5977 39.2955 26.5977ZM39.2955 37.181C36.6895 37.181 34.5758 35.0598 34.5758 32.4613C34.5758 29.8628 36.697 27.7416 39.2955 27.7416C41.894 27.7416 44.0152 29.8628 44.0152 32.4613C44.0152 35.0598 41.9016 37.181 39.2955 37.181Z" fill="white"/>
<path d="M45.2728 37.9467C46.6061 36.4998 47.4243 34.5755 47.4243 32.4543C47.4243 28.1588 44.0758 24.6437 39.8637 24.3482V13.2346C39.8637 11.1891 38.197 9.52248 36.1516 9.52248H22.6743L20.5985 4.69673L23.1819 2.4543L24.3258 5.11339C23.6364 5.68157 23.3637 6.65127 23.7349 7.51491C24.0682 8.29521 24.8334 8.76491 25.6364 8.76491C25.9091 8.76491 26.1819 8.71188 26.447 8.59824C26.9546 8.37854 27.341 7.97703 27.5455 7.46945C27.75 6.9543 27.7425 6.3937 27.5228 5.8937C27.3031 5.38612 26.9016 4.99976 26.394 4.79521C26.0607 4.66642 25.7122 4.62854 25.3713 4.674L23.9167 1.28764C23.8864 1.21945 23.8485 1.16642 23.7955 1.11339C23.7879 1.10582 23.7728 1.09824 23.7652 1.08309C23.7197 1.04521 23.6743 1.01491 23.6288 0.992181C23.6137 0.984605 23.5985 0.977029 23.5834 0.977029C23.5379 0.961878 23.4849 0.954302 23.4319 0.946726C23.4091 0.946726 23.394 0.939151 23.3713 0.946726C23.3637 0.946726 23.3485 0.946726 23.341 0.946726L11.8258 2.06794C11.7046 2.08309 11.5985 2.12854 11.5076 2.2043L2.7652 9.78763C2.5758 9.94673 2.5152 10.2119 2.61368 10.4391C2.70459 10.6513 2.90914 10.7801 3.13641 10.7801H3.18944L7.37126 10.371L9.49247 15.3028C9.48489 15.3331 9.47732 15.3634 9.47732 15.3937V45.3255C9.47732 47.371 11.144 49.0376 13.1894 49.0376H39.2879C39.5985 49.0376 39.8561 48.7801 39.8561 48.4695V40.5604H39.894L41.6137 44.8104C41.697 45.0149 41.8864 45.1513 42.0985 45.1664H42.1364C42.341 45.1664 42.5228 45.0604 42.6288 44.8861L43.9394 42.621L46.4546 43.3407C46.6667 43.4013 46.8864 43.3331 47.0304 43.174C47.1743 43.0149 47.2197 42.7801 47.1364 42.5831L45.2728 37.9467ZM25.2576 5.84824C25.3788 5.79521 25.5 5.77248 25.6213 5.77248C25.7349 5.77248 25.8561 5.79521 25.9622 5.84067C26.1894 5.93157 26.3713 6.10582 26.4697 6.33309C26.5682 6.56036 26.5682 6.81036 26.4773 7.04521C26.3864 7.27248 26.2122 7.4543 25.9849 7.55279C25.5152 7.75733 24.9697 7.53764 24.7652 7.06794C24.5758 6.59824 24.7955 6.05279 25.2576 5.84824ZM38.7273 13.2346V24.3482C37.7955 24.4164 36.9016 24.6285 36.0758 24.9846V17.6588C36.0758 17.3482 35.8182 17.0907 35.5076 17.0907C33.7349 17.0907 32.2879 15.6437 32.2879 13.871C32.2879 13.5604 32.0303 13.3028 31.7197 13.3028H18.8107C20.1364 12.5604 21.3864 11.674 22.5303 10.6513H36.144C37.5682 10.6588 38.7273 11.8179 38.7273 13.2346ZM4.85611 9.4846L12.1137 3.18157L21.6819 2.24976L14.4243 8.55279L4.85611 9.4846ZM14.7122 9.66642C14.8334 9.65127 14.9394 9.60582 15.0303 9.53006L19.697 5.47703L21.6213 9.9543C18.5228 12.6816 14.5985 14.371 10.4849 14.7422L8.56065 10.2649L14.7122 9.66642ZM10.6137 45.3407V15.8558C11.5076 15.7725 12.394 15.6361 13.2652 15.4391V40.9088C13.2652 41.227 13.5228 41.477 13.841 41.477C15.6061 41.4846 17.0455 42.9164 17.0531 44.6892C17.0531 45.0073 17.3031 45.2649 17.6137 45.2649H34.1516C34.4622 45.2649 34.7197 45.0073 34.7197 44.6967C34.7197 44.3861 34.4622 44.1285 34.1516 44.1285H18.1516C17.894 42.1816 16.3485 40.6361 14.4016 40.3785V15.1437C15.0985 14.9467 15.7803 14.7119 16.447 14.4467C16.4546 14.4467 16.4622 14.4543 16.4697 14.4543H31.1894C31.447 16.4013 32.9925 17.9467 34.9394 18.2043V25.6058C32.6743 27.0528 31.1667 29.5831 31.1667 32.4619C31.1667 34.5831 31.9849 36.5073 33.3182 37.9543L31.447 42.5831C31.3637 42.7876 31.4091 43.0149 31.5531 43.174C31.697 43.3331 31.9243 43.4013 32.1288 43.3407L34.644 42.621L35.9546 44.8861C36.0531 45.0604 36.2425 45.1664 36.447 45.1664H36.4849C36.7046 45.1513 36.894 45.0149 36.9697 44.8104L38.6894 40.5604H38.7273V47.9164H13.197C11.7728 47.9164 10.6137 46.7573 10.6137 45.3407ZM34.2046 38.7876C35.1591 39.5604 36.2955 40.1134 37.5379 40.3937L36.3637 43.3028L35.4167 41.6588C35.2879 41.4316 35.0228 41.3255 34.7652 41.3937L32.9394 41.9164L34.2046 38.7876ZM39.2955 39.4543C35.4394 39.4543 32.3031 36.3179 32.3031 32.4619C32.3031 28.6058 35.4394 25.4695 39.2955 25.4695C43.1516 25.4695 46.2879 28.6058 46.2879 32.4619C46.2879 36.3179 43.1516 39.4543 39.2955 39.4543ZM43.8334 41.3937C43.5834 41.3255 43.3182 41.4316 43.1819 41.6588L42.2349 43.3028L41.0607 40.3937C42.3031 40.121 43.4319 39.5604 44.394 38.7876L45.6591 41.924L43.8334 41.3937Z" fill="white"/>
<path d="M20.0833 22.0973H29.25C29.5606 22.0973 29.8182 21.8397 29.8182 21.5291C29.8182 21.2185 29.5606 20.9609 29.25 20.9609H20.0833C19.7727 20.9609 19.5151 21.2185 19.5151 21.5291C19.5151 21.8397 19.7727 22.0973 20.0833 22.0973Z" fill="white"/>
<path d="M17.053 26.0914H32.2803C32.5909 26.0914 32.8485 25.8339 32.8485 25.5233C32.8485 25.2127 32.5909 24.9551 32.2803 24.9551H17.053C16.7424 24.9551 16.4849 25.2127 16.4849 25.5233C16.4849 25.8339 16.7424 26.0914 17.053 26.0914Z" fill="white"/>
<path d="M29.9091 28.9551H17.053C16.7424 28.9551 16.4849 29.2127 16.4849 29.5233C16.4849 29.8339 16.7424 30.0914 17.053 30.0914H29.9015C30.2121 30.0914 30.4697 29.8339 30.4697 29.5233C30.4697 29.2127 30.2197 28.9551 29.9091 28.9551Z" fill="white"/>
<path d="M29.5227 32.9551H17.053C16.7424 32.9551 16.4849 33.2127 16.4849 33.5233C16.4849 33.8339 16.7424 34.0914 17.053 34.0914H29.5152C29.8258 34.0914 30.0833 33.8339 30.0833 33.5233C30.0833 33.2127 29.8334 32.9551 29.5227 32.9551Z" fill="white"/>
<path d="M21.6818 36.9473H17.0606C16.75 36.9473 16.4924 37.2048 16.4924 37.5154C16.4924 37.8261 16.75 38.0836 17.0606 38.0836H21.6818C21.9924 38.0836 22.25 37.8261 22.25 37.5154C22.25 37.2048 21.9924 36.9473 21.6818 36.9473Z" fill="white"/>
<path d="M41.553 30.1355L38.1136 33.5749L37.0303 32.4915C36.8106 32.2718 36.447 32.2718 36.2273 32.4915C36.0076 32.7112 36.0076 33.0749 36.2273 33.2946L37.7121 34.7794C37.8258 34.8931 37.9697 34.9461 38.1136 34.9461C38.2576 34.9461 38.4015 34.8931 38.5152 34.7794L42.3561 30.9385C42.5758 30.7188 42.5758 30.3552 42.3561 30.1355C42.1364 29.9158 41.7727 29.9158 41.553 30.1355Z" fill="white"/>
</svg>
