<svg width="49" height="50" viewBox="0 0 49 50" fill="none" xmlns="http://www.w3.org/2000/svg">
<path fill-rule="evenodd" clip-rule="evenodd" d="M22.5626 42.3337V47.7436L23.9007 46.4979C24.166 46.2556 24.5697 46.2556 24.835 46.4979L26.1731 47.7436V42.3337C25.008 42.6221 23.7276 42.6221 22.5626 42.3337ZM42.0107 40.3497H29.5874C28.9992 40.9495 28.3071 41.457 27.5342 41.8261V49.3239C27.5342 49.9122 26.8075 50.2121 26.3807 49.82L24.3736 47.9282L22.355 49.82C21.9282 50.2237 21.2015 49.9007 21.2015 49.3239V41.8261C20.4286 41.457 19.7365 40.9495 19.1482 40.3497H6.72494C3.92192 40.3497 1.64951 38.0657 1.64951 35.2742C1.64951 32.4712 3.92192 30.1988 6.72494 30.1988H19.1482C21.9858 27.2804 26.7498 27.2804 29.5874 30.1988H42.0107C44.8137 30.1988 47.0861 32.4712 47.0861 35.2742C47.0861 38.0657 44.8137 40.3497 42.0107 40.3497ZM29.8989 37.3621C31.3177 33.6132 28.5954 29.3567 24.3621 29.3567C20.0249 29.3567 17.441 33.6824 18.8368 37.3852C20.7285 42.3914 27.9725 42.4721 29.8989 37.3621ZM30.6371 38.977H42.0107C44.0524 38.977 45.725 37.3159 45.725 35.2742C45.725 33.221 44.0524 31.5599 42.0107 31.5599H30.6371C31.9752 33.8323 31.9752 36.7161 30.6371 38.977ZM6.72494 31.5599C4.68324 31.5599 3.01065 33.221 3.01065 35.2742C3.01065 37.3159 4.68324 38.977 6.72494 38.977H18.0985C16.7489 36.7161 16.7605 33.8323 18.0985 31.5599H6.72494ZM23.5777 17.6371C22.851 17.5102 15.457 14.8226 12.7809 13.8651L11.9619 17.591C14.2689 17.591 18.6522 18.1562 23.5777 21.6629C28.5147 18.1562 32.898 17.591 35.205 17.591L34.386 13.8651C31.6984 14.8226 24.3275 17.5102 23.5777 17.6371ZM11.4774 13.4037C6.4135 11.5927 1.46495 9.81634 0.449868 9.45875C-0.149956 9.25112 -0.149956 8.38599 0.449868 8.17836L23.3585 0.0346052C23.4969 -0.0115351 23.6584 -0.0115351 23.8084 0.0346052C26 0.81899 46.6593 8.07455 46.9131 8.29371C47.0746 8.4206 47.1669 8.60516 47.1669 8.81279V17.8447C49.5662 18.8022 49.0817 23.5431 46.4863 23.5431C43.8794 23.5431 43.3949 18.8022 45.7942 17.8447V9.78174C44.8599 10.1163 40.3727 11.7312 35.6895 13.4037L37.7197 22.6779C37.7197 23.1047 37.339 23.4393 36.8776 23.347C34.2015 22.8048 28.9992 23.6007 23.9929 27.315C23.7507 27.4881 23.4162 27.4881 23.174 27.315C18.1677 23.5892 12.977 22.8048 10.2777 23.347C9.7702 23.4508 9.36647 22.9894 9.47029 22.528L11.4774 13.4037ZM46.4863 19.079C46.0595 19.079 45.5981 19.7365 45.5981 20.6247C45.5981 21.5129 46.0595 22.1704 46.4863 22.1704C46.9016 22.1704 47.3745 21.5129 47.3745 20.6247C47.3745 19.7365 46.9016 19.079 46.4863 19.079ZM42.5183 9.50489H27.4881C26.3576 12.5155 19.5519 12.0195 19.5519 8.81279C19.5519 5.61758 26.3576 5.12157 27.4881 8.13222H42.5183L23.5777 1.40728L2.72228 8.81279L23.5777 16.2298L42.5183 9.50489ZM23.5777 7.47472C22.055 7.47472 20.9246 8.1899 20.9246 8.81279C20.9246 9.44722 22.055 10.1509 23.5777 10.1509C25.1118 10.1509 26.2423 9.44722 26.2423 8.81279C26.2423 8.1899 25.1118 7.47472 23.5777 7.47472ZM23.174 23.0586C18.1447 19.3328 13.7383 18.906 11.6504 18.9636L11.016 21.8705C13.7498 21.6744 18.4676 22.2857 23.5777 25.9193C28.6992 22.2742 33.4171 21.6744 36.1509 21.8705L35.5165 18.9636C33.4402 18.906 29.0222 19.3328 23.9929 23.0586C23.7507 23.2432 23.4162 23.2432 23.174 23.0586ZM23.0355 38.5617C22.2742 38.5617 21.6859 37.8581 21.8128 37.1083L21.9628 36.2662C21.4322 35.7587 20.7631 35.2396 21.0284 34.4091C21.3053 33.567 22.1473 33.544 22.874 33.4402C23.2086 32.7711 23.4854 31.9752 24.3621 31.9752C25.2503 31.9752 25.5271 32.7711 25.8501 33.4402C26.5883 33.544 27.4304 33.567 27.7072 34.3976C27.9725 35.2396 27.3035 35.7587 26.7729 36.2662C26.8998 36.993 27.142 37.8119 26.4268 38.3195C25.7232 38.8386 25.0196 38.3656 24.3621 38.0196C23.9583 38.2387 23.52 38.5617 23.0355 38.5617ZM22.4818 34.8705C23.5085 35.8741 23.4508 35.678 23.2086 37.0852C24.4659 36.4162 24.2698 36.4162 25.5271 37.0852C25.2849 35.678 25.2272 35.8741 26.2538 34.8705C24.835 34.6744 24.9965 34.7898 24.3621 33.5094C23.7392 34.7898 23.9007 34.6744 22.4818 34.8705Z" fill="white"/>
</svg>
