<svg width="60" height="60" viewBox="0 0 60 60" fill="none" xmlns="http://www.w3.org/2000/svg">
<path d="M22.2608 10.9399L20.8677 9.68555L13.1689 18.2393L10.1089 14.4143L8.64453 15.5862L13.0845 21.1362L22.2608 10.9399Z" fill="#890C25"/>
<path d="M12.1875 32.8125H14.0625V34.6875H12.1875V32.8125Z" fill="#890C25"/>
<path d="M46.875 21.5625C45.3244 21.5625 44.0625 22.8244 44.0625 24.375C44.0625 25.9256 45.3244 27.1875 46.875 27.1875C48.4256 27.1875 49.6875 25.9256 49.6875 24.375C49.6875 22.8244 48.4256 21.5625 46.875 21.5625ZM46.875 25.3125C46.3575 25.3125 45.9375 24.8916 45.9375 24.375C45.9375 23.8584 46.3575 23.4375 46.875 23.4375C47.3925 23.4375 47.8125 23.8584 47.8125 24.375C47.8125 24.8916 47.3925 25.3125 46.875 25.3125Z" fill="#890C25"/>
<path d="M59.0625 35.0947C59.0625 30.0922 56.8706 25.4122 53.0569 22.1937C52.6069 20.9225 51.7781 19.8312 50.7028 19.0559L51.8447 17.2484C52.1156 16.8181 52.2 16.3091 52.0819 15.8131C51.9637 15.3191 51.6591 14.9019 51.2231 14.6403L49.1841 13.4169L49.7766 12.2309L50.3681 12.5759C50.6634 12.7484 50.9887 12.8309 51.3112 12.8309C51.8841 12.8309 52.4466 12.5684 52.8131 12.0809L54.4931 9.84124C54.8138 9.41374 54.9375 8.86811 54.8316 8.34499C54.7256 7.82093 54.4003 7.3653 53.9381 7.09624L44.3184 1.48624C43.4953 1.00624 42.4453 1.21905 41.8744 1.9803L40.1944 4.21999C39.8737 4.64749 39.75 5.19311 39.8559 5.71624C39.9619 6.2403 40.2872 6.69593 40.7494 6.96499L41.3766 7.33155L40.6519 8.29811L38.7797 7.17499C37.8994 6.64718 36.75 6.9303 36.2147 7.80499L27.7659 21.6294C27.5766 21.59 27.3834 21.5628 27.1875 21.5628H25.2534C26.4713 19.6662 27.1875 17.4172 27.1875 15.0003C27.1875 8.2803 21.72 2.8128 15 2.8128C8.28 2.8128 2.8125 8.2803 2.8125 15.0003C2.8125 17.4172 3.52875 19.6662 4.74656 21.5628H3.75C2.19937 21.5628 0.9375 22.8247 0.9375 24.3753V28.1253C0.9375 29.6759 2.19937 30.9378 3.75 30.9378H4.52531L1.00406 52.9475C0.96 53.2231 0.9375 53.5034 0.9375 53.7828C0.9375 56.6947 3.30562 59.0628 6.2175 59.0628H16.875H17.8125H37.5C38.5341 59.0628 39.375 58.2219 39.375 57.1878V55.3128C39.375 55.3034 39.3722 55.295 39.3722 55.2856C50.2753 55.0025 59.0625 46.0644 59.0625 35.0947ZM51.5625 24.3753C51.5625 26.96 49.4597 29.0628 46.875 29.0628C44.2903 29.0628 42.1875 26.96 42.1875 24.3753C42.1875 21.7906 44.2903 19.6878 46.875 19.6878C49.4597 19.6878 51.5625 21.7906 51.5625 24.3753ZM39.3722 47.7875C39.3591 46.7656 38.5247 45.9378 37.5 45.9378H28.8113L27.0591 34.9859C27.3113 35.1059 27.5775 35.1894 27.8559 35.1894C27.9759 35.1894 28.0959 35.1781 28.2159 35.1547C28.7362 35.0525 29.1909 34.7337 29.4628 34.279L31.0275 31.6719L32.2894 32.4884L30.5691 35.3562C30.0731 36.1831 30.2803 37.2434 31.0528 37.8209L33.2944 39.5028C33.6216 39.7475 34.0172 39.8778 34.4203 39.8778C34.5403 39.8778 34.6603 39.8666 34.7803 39.8431C35.3006 39.7409 35.7553 39.4222 36.0272 38.9675L37.7822 36.0425L39.0281 36.8487C39.3403 37.0503 39.6919 37.1469 40.0406 37.1469C40.6491 37.1469 41.2472 36.8534 41.6063 36.3134L42.4416 35.0619C42.7228 34.6409 42.8203 34.1356 42.7172 33.6406C42.6347 33.2431 42.4275 32.8953 42.1303 32.6309L43.7147 30.1231C44.6513 30.6406 45.7294 30.9378 46.875 30.9378C48.0431 30.9378 49.1391 30.6275 50.0906 30.0894C51.0431 31.5106 51.5625 33.1944 51.5625 34.9147V35.1294C51.5625 41.9572 46.1372 47.5259 39.3722 47.7875ZM31.1438 51.5628L31.6125 53.4378H22.7625L23.2313 51.5628H31.1438ZM16.875 49.6878V47.8128H37.5L37.5009 49.6878H16.875ZM26.5163 24.7269L40.8797 34.0212L40.0444 35.2737L25.6819 25.9794L26.5163 24.7269ZM36.2062 35.0225L34.4184 38.0019L32.1759 36.32L33.8644 33.5066L36.2062 35.0225ZM27.1106 29.1369L29.4525 30.6519L27.8559 33.3144L25.6134 31.6325L27.1106 29.1369ZM43.3744 3.10624L52.9941 8.71718L51.3141 10.9578L41.6944 5.34593L43.3744 3.10624ZM43.0069 8.28218L48.1537 11.2841L47.5716 12.4484L42.2691 9.26655L43.0069 8.28218ZM37.815 8.7828L50.2575 16.2481L49.0341 18.185C48.3572 17.9478 47.6325 17.8128 46.875 17.8128C43.2572 17.8128 40.3125 20.7566 40.3125 24.3753C40.3125 26.1716 41.0391 27.8 42.2119 28.9859L40.5694 31.5866L28.6088 23.8466L37.815 8.7828ZM15 4.6878C20.6859 4.6878 25.3125 9.31436 25.3125 15.0003C25.3125 20.6862 20.6859 25.3128 15 25.3128C9.31406 25.3128 4.6875 20.6862 4.6875 15.0003C4.6875 9.31436 9.31406 4.6878 15 4.6878ZM2.8125 28.1253V24.3753C2.8125 23.8587 3.2325 23.4378 3.75 23.4378H6.22594C8.445 25.7441 11.5547 27.1878 15 27.1878C18.4453 27.1878 21.555 25.7441 23.7741 23.4378H25.1625C25.0894 23.5147 25.0181 23.5962 24.9572 23.6872L24.1219 24.9387C23.8406 25.3597 23.7431 25.865 23.8463 26.36C23.9484 26.855 24.2391 27.2787 24.6637 27.5525L25.5356 28.1169L24.9684 29.0628H3.75C3.2325 29.0628 2.8125 28.6419 2.8125 28.1253ZM6.2175 57.1878C4.33969 57.1878 2.8125 55.6606 2.8125 53.7828C2.8125 53.6028 2.8275 53.4237 2.85563 53.2447L4.02469 45.9378H11.25V44.0628H4.32469L4.92469 40.3128H14.0625V38.4378H5.22469L5.82469 34.6878H10.3125V32.8128H6.12469L6.42469 30.9378H23.8772C23.565 31.7141 23.7994 32.6159 24.4903 33.1325L24.9169 33.4522L26.9128 45.9378H16.875C15.8409 45.9378 15 46.7787 15 47.8128V49.6878C15 50.7219 15.8409 51.5628 16.875 51.5628H21.3L20.8312 53.4378H16.875C15.8409 53.4378 15 54.2787 15 55.3128V57.1878H6.2175ZM17.8125 57.1878H16.875V55.3128H37.5L37.5009 57.1878H17.8125ZM38.8444 53.4378H37.5H33.5437L33.075 51.5628H37.5C38.5341 51.5628 39.375 50.7219 39.375 49.6878V49.6625C47.1722 49.3981 53.4375 42.9903 53.4375 35.1303V34.9156C53.4375 32.7809 52.7822 30.6912 51.5794 28.9409C52.5591 27.9312 53.2172 26.6103 53.3897 25.1403C55.8141 27.8675 57.1875 31.3765 57.1875 35.0947C57.1875 45.2094 48.9591 53.4378 38.8444 53.4378Z" fill="#890C25"/>
</svg>
