<svg width="58" height="56" viewBox="0 0 58 56" fill="none" xmlns="http://www.w3.org/2000/svg">
<path d="M27.138 53.2711C24.0178 53.5083 20.9256 52.5379 18.5004 50.5604C16.0752 48.583 14.5022 45.7495 14.1064 42.6454C18.3477 44.6158 21.8559 44.6179 24.5525 41.2647C25.5839 40.1388 26.3987 39.2498 28.0636 39.2498C31.5571 39.3602 34.9192 40.6071 37.64 42.8012C37.8364 42.9482 38.0826 43.0123 38.3258 42.9798C38.569 42.9473 38.7897 42.8208 38.9407 42.6274C39.0917 42.4341 39.1608 42.1892 39.1333 41.9454C39.1058 41.7016 38.9838 41.4783 38.7935 41.3235C35.7432 38.8722 31.9751 37.4855 28.0636 37.3748C21.2532 37.8071 24.0522 45.3401 14.0252 40.5445C14.1553 38.0271 15.0587 35.611 16.6121 33.6258C18.1656 31.6406 20.2936 30.1829 22.7059 29.4513C22.8995 29.3937 23.0693 29.2752 23.1901 29.1133C23.3108 28.9513 23.376 28.7548 23.3761 28.5528V11.6403C23.3761 11.431 23.306 11.2277 23.1771 11.0627C23.0482 10.8978 22.8678 10.7808 22.6647 10.7303C21.0708 10.3343 20.5942 9.81016 20.5617 9.73557C21.78 7.86245 30.6052 7.91716 31.8154 9.70124C31.7829 9.81019 31.3063 10.3343 29.7124 10.7303C29.5093 10.7808 29.3289 10.8978 29.2 11.0627C29.0711 11.2276 29.0011 11.4309 29.0011 11.6403V28.5528C28.9825 29.4063 29.9377 29.508 30.5465 29.7493C30.6777 29.7927 30.8167 29.8073 30.954 29.7921C31.0913 29.777 31.2238 29.7324 31.3424 29.6615C31.4609 29.5906 31.5629 29.495 31.6412 29.3812C31.7195 29.2674 31.7725 29.1381 31.7964 29.002C31.8203 28.866 31.8146 28.7263 31.7797 28.5926C31.7449 28.459 31.6816 28.3343 31.5943 28.2273C31.507 28.1202 31.3977 28.0332 31.2737 27.9721C31.1498 27.9111 31.0142 27.8774 30.8761 27.8735V12.3485C32.697 11.7616 33.6886 10.8415 33.6886 9.71861C33.6886 7.46408 29.8008 6.43732 26.1886 6.43732C22.5764 6.43732 18.6886 7.46408 18.6886 9.71857C18.6886 10.8415 19.6801 11.7616 21.5011 12.3484V27.8726C19.8617 28.4564 18.3462 29.342 17.0328 30.4837C16.3423 30.0048 15.5946 29.614 14.8072 29.3205V18.6202C16.5339 18.01 16.8136 17.0863 16.8136 16.5529C16.8136 14.7462 13.9882 13.9373 11.1886 13.9373C8.38888 13.9373 5.56356 14.7462 5.56356 16.5529C5.56356 17.0862 5.84326 18.01 7.56994 18.6202V29.3232C-4.78964 34.5247 1.50145 52.4783 14.4017 48.7692C15.7829 50.8991 17.7149 52.6155 19.9927 53.7363C22.2705 54.8571 24.8091 55.3404 27.3394 55.1351C27.583 55.104 27.8046 54.9786 27.9567 54.7859C28.1088 54.5931 28.1792 54.3484 28.1528 54.1043C28.1264 53.8602 28.0054 53.6362 27.8156 53.4804C27.6258 53.3246 27.3825 53.2495 27.138 53.2711ZM8.77523 30.8952C8.96873 30.8375 9.13844 30.7188 9.2591 30.5569C9.37976 30.395 9.44494 30.1985 9.44495 29.9966V17.9217C9.44486 17.7123 9.37474 17.509 9.24575 17.3441C9.11675 17.1792 8.93631 17.0622 8.73312 17.0117C8.318 16.9247 7.92066 16.7679 7.55804 16.5479C8.68446 15.9936 9.93519 15.7401 11.1886 15.8123C12.4419 15.7401 13.6927 15.9936 14.8191 16.5479C14.4565 16.7679 14.0591 16.9247 13.644 17.0117C13.4408 17.0622 13.2604 17.1792 13.1314 17.3441C13.0024 17.509 12.9323 17.7123 12.9322 17.9217V29.9966C12.9322 30.1991 12.9978 30.3962 13.1192 30.5584C13.2405 30.7206 13.4112 30.839 13.6056 30.8961C14.3347 31.1123 15.0301 31.429 15.6718 31.8371C14.5699 33.0859 13.6956 34.5184 13.0888 36.0694C7.66975 35.7233 9.5915 41.7922 2.77516 38.3988C2.89984 36.6882 3.53992 35.0556 4.61102 33.7161C5.68213 32.3766 7.13399 31.393 8.77523 30.8952ZM11.1886 47.4154C9.2164 47.4122 7.30754 46.7189 5.79291 45.4559C4.27827 44.1928 3.25335 42.4396 2.89583 40.5001C5.79319 41.7977 8.42459 41.5353 10.2158 39.262C11.001 38.4053 11.5001 37.9204 12.5061 37.9122C11.779 40.9942 12.1206 44.2319 13.4747 47.0944C12.7312 47.3069 11.9618 47.415 11.1886 47.4154Z" fill="#890C25"/>
<path d="M55.25 47.6875H53.2281C58.6989 38.7038 52.4975 26.3993 42.125 25.3266V24.25C42.1245 23.7529 41.9268 23.2762 41.5753 22.9247C41.2238 22.5732 40.7471 22.3755 40.25 22.375V19.5625C40.25 19.3139 40.1512 19.0754 39.9754 18.8996C39.7996 18.7238 39.5611 18.625 39.3125 18.625H35.5625C35.3139 18.625 35.0754 18.7238 34.8996 18.8996C34.7238 19.0754 34.625 19.3139 34.625 19.5625V22.375C34.1279 22.3755 33.6512 22.5732 33.2997 22.9247C32.9482 23.2762 32.7505 23.7529 32.75 24.25V35.5C32.7505 35.9971 32.9482 36.4738 33.2997 36.8253C33.6512 37.1768 34.1279 37.3745 34.625 37.375H40.25C40.7471 37.3745 41.2238 37.1768 41.5753 36.8253C41.9268 36.4738 42.1245 35.9971 42.125 35.5V31.0107C49.9244 32.5548 52.3393 42.9421 45.8496 47.6875H32.75V45.8125H43.0625C43.308 45.8077 43.5418 45.7068 43.7137 45.5315C43.8856 45.3562 43.9819 45.1205 43.9819 44.875C43.9819 44.6294 43.8856 44.3937 43.7136 44.2184C43.5417 44.0431 43.3079 43.9423 43.0624 43.9375H31.8125C31.5639 43.9375 31.3254 44.0363 31.1496 44.2121C30.9738 44.3879 30.875 44.6264 30.875 44.875V47.6875C30.3779 47.688 29.9012 47.8857 29.5497 48.2372C29.1982 48.5887 29.0005 49.0654 29 49.5625V53.3125C29.0005 53.8096 29.1982 54.2863 29.5497 54.6378C29.9012 54.9893 30.3779 55.187 30.875 55.1875H55.25C55.7471 55.187 56.2238 54.9893 56.5753 54.6378C56.9268 54.2863 57.1245 53.8096 57.125 53.3125V49.5625C57.1245 49.0654 56.9268 48.5887 56.5753 48.2372C56.2238 47.8857 55.7471 47.688 55.25 47.6875ZM36.5 20.5H38.375V22.375H36.5V20.5ZM40.25 35.5H34.625V24.25H40.25V25.1875C39.5096 25.1958 38.8023 25.4958 38.2816 26.0224C37.761 26.5489 37.469 27.2595 37.469 28C37.469 28.7405 37.761 29.4511 38.2816 29.9776C38.8023 30.5042 39.5096 30.8042 40.25 30.8125V35.5ZM51.5 40.1875C51.4841 37.3857 50.4294 34.6894 48.5399 32.6205C46.6504 30.5515 44.0606 29.2572 41.2717 28.9879C40.5043 28.9216 39.3362 29.0923 39.3125 27.9999C39.3265 27.0198 40.3776 26.9863 41.1266 27.0983C51.145 27.6171 56.8936 39.5508 51.0084 47.6875H48.6192C50.4697 45.6272 51.4954 42.9568 51.5 40.1875ZM30.875 53.3125V49.5625H55.25L55.2514 53.3125H30.875Z" fill="#890C25"/>
<path d="M9.3125 8.31232C9.32084 9.05275 9.62084 9.76003 10.1474 10.2807C10.6739 10.8013 11.3846 11.0933 12.125 11.0933C12.8655 11.0933 13.5761 10.8013 14.1027 10.2806C14.6292 9.75996 14.9292 9.05267 14.9375 8.31223C14.9292 7.57179 14.6292 6.86451 14.1026 6.34387C13.5761 5.82323 12.8654 5.53124 12.125 5.53125C11.3845 5.53126 10.6739 5.82328 10.1473 6.34393C9.6208 6.86459 9.32082 7.57188 9.3125 8.31232ZM13.0625 8.31232C13.0577 8.55779 12.9568 8.7916 12.7815 8.9635C12.6062 9.13541 12.3705 9.2317 12.125 9.23169C11.8794 9.23168 11.6437 9.13538 11.4684 8.96346C11.2931 8.79155 11.1923 8.55774 11.1875 8.31226C11.1923 8.06678 11.2932 7.83298 11.4685 7.66108C11.6438 7.48917 11.8795 7.39288 12.125 7.39289C12.3706 7.39289 12.6063 7.4892 12.7816 7.66112C12.9569 7.83303 13.0577 8.06684 13.0625 8.31232Z" fill="#890C25"/>
<path d="M14.9375 3.62482C14.9458 4.36525 15.2458 5.07253 15.7724 5.59317C16.2989 6.11381 17.0096 6.40581 17.75 6.4058C18.4905 6.40579 19.2011 6.11377 19.7277 5.59311C20.2542 5.07246 20.5542 4.36517 20.5625 3.62473C20.5542 2.88429 20.2542 2.17701 19.7276 1.65637C19.2011 1.13573 18.4904 0.843739 17.75 0.84375C17.0095 0.843761 16.2989 1.13578 15.7723 1.65643C15.2458 2.17709 14.9458 2.88438 14.9375 3.62482ZM18.6875 3.62482C18.6827 3.87029 18.5818 4.1041 18.4065 4.276C18.2312 4.44791 17.9955 4.5442 17.75 4.54419C17.5045 4.54418 17.2687 4.44788 17.0934 4.27596C16.9181 4.10405 16.8173 3.87024 16.8125 3.62476C16.8173 3.37928 16.9182 3.14548 17.0935 2.97358C17.2688 2.80167 17.5045 2.70538 17.75 2.70539C17.9955 2.70539 18.2313 2.8017 18.4066 2.97361C18.5819 3.14553 18.6827 3.37934 18.6875 3.62482Z" fill="#890C25"/>
</svg>
