<svg width="70" height="50" viewBox="0 0 70 50" fill="none" xmlns="http://www.w3.org/2000/svg">
<path d="M68.5505 9.70899L59.2606 6.96961C58.7168 6.80926 58.1473 7.12038 57.9872 7.66396C57.8271 8.20754 58.1378 8.77807 58.6809 8.93829L67.8725 11.6492L64.0992 12.762L35.9209 10.438C35.3557 10.3912 34.8612 10.8115 34.8147 11.3763C34.7683 11.941 35.188 12.4366 35.7524 12.4833L58.6422 14.3711L35.6482 21.1514C35.2241 21.2764 34.7758 21.2764 34.3521 21.1514L25.3528 18.4977C24.8094 18.3376 24.2394 18.6483 24.0794 19.1919C23.9194 19.7356 24.2299 20.3061 24.7731 20.4662L33.7724 23.1199C34.1739 23.2383 34.587 23.2975 35 23.2975C35.413 23.2975 35.8262 23.2383 36.2277 23.1199L52.593 18.2941V22.5235C49.66 24.4546 43.7941 27.3515 35.0008 27.3515C26.2064 27.3515 20.3401 24.4546 17.407 22.5235V18.2942L20.408 19.1792C20.5047 19.2076 20.6022 19.2213 20.6982 19.2213C21.1412 19.2213 21.5498 18.9318 21.6814 18.4849C21.8413 17.9412 21.5308 17.3707 20.9876 17.2106L2.12763 11.6485L34.3521 2.1462C34.7761 2.02115 35.2244 2.02115 35.6482 2.1462L54.2356 7.62729C54.779 7.78737 55.3489 7.47666 55.509 6.93308C55.6691 6.38936 55.3583 5.81883 54.8153 5.65875L36.2277 0.177522C35.4245 -0.059174 34.5756 -0.059174 33.7725 0.177522L1.44963 9.70899C0.582561 9.9647 0 10.7442 0 11.6488C0 12.5534 0.582561 13.333 1.44963 13.5887L15.3563 17.6896V26.8714L9.66961 25.1336C9.66906 25.1335 9.66865 25.1334 9.6681 25.1331C7.45476 24.4572 4.87309 26.7073 3.79013 30.2567C2.70718 33.8059 3.59244 37.1159 5.80565 37.7924C5.80606 37.7925 5.80647 37.7925 5.80674 37.7926L45.3502 49.8758C45.6221 49.9588 45.8999 50 46.1809 50C47.1028 50 48.0568 49.5575 48.937 48.7072C49.9286 47.7493 50.7423 46.3448 51.2282 44.7523C51.7141 43.1599 51.8232 41.5401 51.5354 40.1912C51.2021 38.629 50.3772 37.5726 49.2128 37.2168L38.856 34.0522C45.8297 33.4601 50.515 31.369 52.858 30.0427C53.9597 29.4203 54.6438 28.2469 54.6438 26.9806V17.6898L63.1802 15.1726V22.3999C61.3457 22.8596 59.9826 24.5229 59.9826 26.4994C59.9826 27.8751 60.6432 29.0989 61.6631 29.8711C61.1307 30.5117 60.7969 31.3182 60.5885 32.0573C60.097 33.8011 60.0097 36.0275 59.9886 37.9756C59.9809 38.6985 60.2566 39.3797 60.7646 39.8938C61.2729 40.4078 61.9508 40.6909 62.6734 40.6909H65.7376C66.4602 40.6909 67.1381 40.4078 67.6464 39.8938C68.1544 39.3797 68.4299 38.6987 68.4224 37.9756C68.4015 36.0275 68.314 33.801 67.8225 32.0573C67.6141 31.3182 67.2802 30.5117 66.7479 29.8711C67.7679 29.0989 68.4286 27.8751 68.4286 26.4994C68.4286 24.5229 67.0656 22.8596 65.2308 22.3999V14.5676L68.5502 13.5887C69.4173 13.333 70 12.5534 70 11.6489C70.0001 10.7442 69.4174 9.9647 68.5505 9.70899ZM5.75137 30.8559C6.57688 28.1503 8.24117 26.8429 9.06914 27.0959C9.72238 27.2954 10.1433 28.457 10.093 29.9205C10.0735 30.4869 10.5166 30.9618 11.0825 30.9814C11.6504 31.0008 12.123 30.5575 12.1426 29.9911C12.1677 29.2597 12.104 28.5835 11.9618 27.9797L28.8329 33.1351C28.8357 33.1359 28.8383 33.1371 28.8411 33.1381C29.6699 33.3913 30.3191 35.4058 29.4936 38.1113C28.6694 40.8125 27.0105 42.1197 26.1802 41.8723L9.29103 36.7115C9.82219 36.2228 10.3183 35.596 10.7485 34.846C11.0304 34.3544 10.8607 33.7273 10.3696 33.4452C9.87865 33.1634 9.25179 33.333 8.96988 33.8244C8.07642 35.3823 7.00262 36.0117 6.4042 35.8293C5.57541 35.576 4.926 33.5614 5.75137 30.8559ZM49.5298 40.6194C49.743 41.6185 49.647 42.9064 49.2668 44.1526C48.8866 45.3991 48.2471 46.5208 47.5127 47.2304C46.9412 47.7824 46.3565 48.0371 45.949 47.9128L29.0565 42.7511C30.0644 41.826 30.9337 40.4194 31.4551 38.7106C31.9767 37.0011 32.0406 35.3484 31.7207 34.0175L48.6137 39.1796C49.0217 39.3041 49.3641 39.8423 49.5298 40.6194ZM51.8489 28.2558C49.7744 29.4301 43.9801 32.1617 35.0014 32.1617C34.1388 32.1617 33.271 32.1355 32.4193 32.0851L17.5147 27.5308C17.444 27.3568 17.407 27.1706 17.407 26.9804V24.9392C20.8118 26.9398 26.6928 29.404 35.0008 29.404C43.3076 29.404 49.1883 26.9398 52.593 24.9392V26.9804C52.5932 27.5077 52.3084 27.9963 51.8489 28.2558ZM66.3717 37.997C66.3737 38.1678 66.3086 38.3286 66.1885 38.4499C66.0686 38.5713 65.9084 38.6382 65.7378 38.6382H62.6735C62.5029 38.6382 62.3426 38.5713 62.2227 38.4499C62.1027 38.3286 62.0376 38.1678 62.0395 37.997C62.0758 34.6113 62.3547 30.725 64.2056 30.725C66.0566 30.725 66.3355 34.6113 66.3717 37.997ZM66.3779 26.4991C66.3779 27.6978 65.4034 28.6729 64.2056 28.6729C63.0078 28.6729 62.0334 27.6978 62.0334 26.4991C62.0334 25.3004 63.0078 24.3253 64.2056 24.3253C65.4034 24.3253 66.3779 25.3004 66.3779 26.4991Z" fill="white"/>
</svg>
