<svg width="60" height="60" viewBox="0 0 60 60" fill="none" xmlns="http://www.w3.org/2000/svg">
<g clip-path="url(#clip0_1115_13747)">
<path d="M7 30.5C6.44775 30.5 6 30.9478 6 31.5V47.5C6 48.0522 6.44775 48.5 7 48.5C7.55225 48.5 8 48.0522 8 47.5V31.5C8 30.9478 7.55225 30.5 7 30.5Z" fill="white"/>
<path d="M14.4399 22.5C14.9922 22.5 15.4399 22.0522 15.4399 21.5C15.4404 21.3906 15.4199 21.2817 15.3799 21.1802C15.2607 20.7944 14.9219 20.5186 14.52 20.48C12.0938 20.2529 10.1846 18.3101 10 15.8799C10.0054 15.8438 10.0054 15.8066 10 15.77V15.6602C9.99512 15.6069 9.99512 15.5532 10 15.5V10.5H14.1001C14.6523 10.5 15.1001 10.0522 15.1001 9.5C15.1001 8.94775 14.6523 8.5 14.1001 8.5H9C8.44775 8.5 8 8.94775 8 9.5V13.96C6.73047 12.8247 6.00342 11.2031 6 9.5V3.5H18C19.9614 3.50098 21.7988 4.46045 22.9199 6.06982C23.2461 6.49072 23.8442 6.58203 24.2813 6.27832C24.7183 5.97461 24.8408 5.38232 24.5601 4.93018C23.0654 2.78271 20.6157 1.50195 18 1.5H6C4.89551 1.5 4 2.39551 4 3.5V9.5C3.98633 12.396 5.53955 15.0737 8.06006 16.5C8.27149 18.0161 8.97412 19.4214 10.0601 20.5H7C3.13379 20.5 0 23.6338 0 27.5V47.5C0 48.0522 0.447754 48.5 1 48.5C1.55225 48.5 2 48.0522 2 47.5V27.5C2 24.7388 4.23877 22.5 7 22.5H14.4399Z" fill="white"/>
<path d="M13.9998 29.2598L13.2796 26.5H16.5399C17.0921 26.5 17.5399 26.0523 17.5399 25.5C17.5399 24.9478 17.0921 24.5 16.5399 24.5H11.9998C11.6922 24.4985 11.4007 24.6387 11.2098 24.8799C11.0204 25.1235 10.9539 25.4409 11.0296 25.7402L12.0296 29.7402C12.1624 30.2842 12.7108 30.6177 13.2547 30.4849C13.7987 30.3526 14.1322 29.8042 13.9998 29.2598Z" fill="white"/>
<path d="M53 30.5C52.4478 30.5 52 30.9478 52 31.5V47.5C52 48.0522 52.4478 48.5 53 48.5C53.5522 48.5 54 48.0522 54 47.5V31.5C54 30.9478 53.5522 30.5 53 30.5Z" fill="white"/>
<path d="M56.0002 21.1802V11.5C56.0002 5.97705 51.5231 1.5 46.0002 1.5H44.0002C41.0519 1.50537 38.256 2.81201 36.36 5.06982C36.0998 5.33936 36.0119 5.73145 36.132 6.08594C36.2521 6.44043 36.5602 6.69824 36.9304 6.75391C37.301 6.80957 37.6711 6.65381 37.8903 6.3501C39.4074 4.54639 41.6432 3.50342 44.0002 3.5H46.0002C50.4186 3.5 54.0002 7.08154 54.0002 11.5V20.5698C53.7736 20.5698 53.5436 20.5498 53.3102 20.5098H49.9103C51.2526 19.189 52.0056 17.3833 52.0002 15.5V9.5C52.0002 8.94775 51.5524 8.5 51.0002 8.5H43.4802C42.9279 8.5 42.4802 8.94775 42.4802 9.5C42.4802 10.0522 42.9279 10.5 43.4802 10.5H50.0002V15.5C50.0119 18.0845 48.0524 20.252 45.4802 20.5C45.0783 20.5386 44.7394 20.8145 44.6203 21.2002C44.5803 21.3018 44.5598 21.4106 44.5602 21.52C44.5602 22.0723 45.008 22.52 45.5602 22.52H48.3L44.5002 29.3501C44.2321 29.833 44.4069 30.4424 44.8903 30.71C45.0397 30.7949 45.2082 30.8394 45.3801 30.8398C45.7409 30.8394 46.0734 30.6445 46.2502 30.3301L50.59 22.5H53.2204C53.715 22.5195 54.2038 22.6138 54.6701 22.7798H54.7502C56.717 23.5147 58.0153 25.4004 58.0002 27.5V47.5C58.0002 48.0522 58.4479 48.5 59.0002 48.5C59.5524 48.5 60.0002 48.0522 60.0002 47.5V27.5C59.9982 24.7979 58.4416 22.3379 56.0002 21.1802Z" fill="white"/>
<path d="M39 30.5H35.6499C37.2085 29.2422 38.3032 27.5 38.7598 25.5498C41.3657 24.1626 42.9956 21.4522 43 18.5V16.5C43 12.0815 39.4185 8.5 35 8.5H19C17.8955 8.5 17 9.39551 17 10.5V18.5C17.0044 21.4522 18.6343 24.1626 21.2402 25.5498C21.6968 27.5 22.7915 29.2422 24.3501 30.5H21C17.1338 30.5 14 33.6338 14 37.5V57.5C14 58.0523 14.4478 58.5 15 58.5C15.5522 58.5 16 58.0523 16 57.5V37.5C16 34.7388 18.2388 32.5 21 32.5H39C41.7612 32.5 44 34.7388 44 37.5V57.5C44 58.0523 44.4478 58.5 45 58.5C45.5522 58.5 46 58.0523 46 57.5V37.5C46 33.6338 42.8662 30.5 39 30.5ZM19 18.5V10.5H35C38.3135 10.5 41 13.1865 41 16.5V18.5C40.9966 20.2031 40.2695 21.8247 39 22.96V15.5C39 14.9478 38.5522 14.5 38 14.5H22C21.4478 14.5 21 14.9478 21 15.5V22.96C19.7305 21.8247 19.0034 20.2031 19 18.5ZM23.1201 24.8198C23.1255 24.7837 23.1255 24.7466 23.1201 24.71C23.0576 24.3594 23.0176 24.0054 23 23.6499V16.5H37V23.6499C36.9854 24.0054 36.9487 24.3594 36.8901 24.71C36.8843 24.7466 36.8843 24.7837 36.8901 24.8198C36.269 28.1304 33.3784 30.5293 30.0098 30.5293C26.6416 30.5293 23.751 28.1304 23.1299 24.8198H23.1201Z" fill="white"/>
<path d="M33.24 34.5006C32.7044 34.3683 32.1629 34.6949 32.0296 35.2306L31.22 38.5006H28.7796L27.9998 35.2603C27.9255 34.9015 27.6609 34.6119 27.3103 34.506C26.9592 34.3995 26.5789 34.4937 26.3176 34.7516C26.0569 35.0089 25.9583 35.3883 26.0598 35.7408L27.0598 39.5807L25.9998 50.7906C25.9724 51.109 26.0989 51.421 26.3396 51.6305L29.3396 54.2506C29.7171 54.5821 30.2825 54.5821 30.6599 54.2506L33.6599 51.6305C33.9006 51.421 34.0271 51.109 33.9998 50.7906L32.9998 39.5807L33.9998 35.7408C34.0715 35.4747 34.031 35.1915 33.887 34.9566C33.7434 34.7223 33.509 34.5572 33.24 34.5006ZM29.9998 52.1705L27.9998 50.5006L28.8797 40.5006H31.0398L31.9998 50.5006L29.9998 52.1705Z" fill="white"/>
<path d="M21 40.5C20.4478 40.5 20 40.9478 20 41.5V57.5C20 58.0522 20.4478 58.5 21 58.5C21.5522 58.5 22 58.0522 22 57.5V41.5C22 40.9478 21.5522 40.5 21 40.5Z" fill="white"/>
<path d="M39 40.5C38.4478 40.5 38 40.9478 38 41.5V57.5C38 58.0522 38.4478 58.5 39 58.5C39.5522 58.5 40 58.0522 40 57.5V41.5C40 40.9478 39.5522 40.5 39 40.5Z" fill="white"/>
</g>
<defs>
<clipPath id="clip0_1115_13747">
<rect width="60" height="60" fill="white"/>
</clipPath>
</defs>
</svg>
