<svg width="60" height="60" viewBox="0 0 60 60" fill="none" xmlns="http://www.w3.org/2000/svg">
<g clip-path="url(#clip0_1115_13758)">
<path d="M27.1604 6.3367C27.0675 5.96639 26.761 5.68889 26.3832 5.63451L13.2582 3.75951C13.0163 3.72482 12.7707 3.78576 12.5747 3.93014L2.26223 11.4301C1.95379 11.6542 1.81223 12.0433 1.90317 12.4145C1.99598 12.7848 2.30254 13.0623 2.68035 13.1167L7.27879 13.7739L9.41535 20.8951C9.53348 21.2908 9.8991 21.5626 10.3125 21.5626H14.6222C18.7238 21.5626 22.545 19.7261 25.1082 16.5236C25.3069 16.2742 25.365 15.9433 25.2647 15.6414L23.3316 9.84389L26.8013 7.32014C27.1097 7.09607 27.2513 6.70701 27.1604 6.3367ZM23.3204 15.7379C21.1238 18.2551 17.9822 19.6876 14.6222 19.6876H11.01L9.32348 14.0654L15.8054 14.9917C15.8485 14.9973 15.8935 15.0001 15.9375 15.0001C16.1344 15.0001 16.3275 14.9383 16.4888 14.8211L21.7416 11.0008L23.3204 15.7379ZM15.6938 13.0811L5.23317 11.5858L13.3688 5.66826L23.8294 7.16357L15.6938 13.0811Z" fill="white"/>
<path d="M37.5 11.2497C37.5 16.9357 42.1266 21.5622 47.8125 21.5622C48.0619 21.5622 48.3 21.4638 48.4753 21.2875L51.615 18.1479L56.7947 20.5385C56.9203 20.5966 57.0544 20.6247 57.1875 20.6247C57.4312 20.6247 57.6713 20.5291 57.8503 20.35C58.1278 20.0725 58.2038 19.6507 58.0388 19.2944L52.4138 7.10692C52.32 6.90442 52.1578 6.74129 51.9553 6.64848L39.7678 1.02348C39.4125 0.85942 38.9897 0.93442 38.7122 1.21192C38.4347 1.48942 38.3587 1.91129 38.5237 2.26754L40.9144 7.44723L37.7747 10.5869C37.5984 10.7622 37.5 11.0004 37.5 11.2497ZM50.8556 8.20661L55.2703 17.77L45.7069 13.3554L41.2922 3.79192L50.8556 8.20661ZM41.7516 9.26129L44.1487 14.455C44.2425 14.6575 44.4047 14.8207 44.6072 14.9135L49.8009 17.3107L47.4328 19.6788C43.0809 19.4847 39.5775 15.9813 39.3834 11.6294L41.7516 9.26129Z" fill="white"/>
<path d="M12.4841 45.9863L11.8906 47.7638C13.3466 48.2504 14.4369 49.427 14.8091 50.9157L15.0275 51.7904L16.8453 51.3348L16.6269 50.461C16.1 48.3479 14.5513 46.6745 12.4841 45.9863Z" fill="white"/>
<path d="M56.5453 41.25C54.51 41.25 52.4719 41.6991 50.625 42.5531V40.4053L52.2403 32.3316C52.4119 31.4691 52.5 30.5859 52.5 29.7047C52.5 28.3162 51.3713 27.1875 49.9828 27.1875C48.8259 27.1875 47.8209 27.9713 47.5416 29.0944L46.875 31.7587V28.125C46.875 26.5744 45.6131 25.3125 44.0625 25.3125C43.935 25.3125 43.8112 25.3341 43.6875 25.3509C43.5619 25.3322 43.4363 25.3125 43.305 25.3125C42.2503 25.3125 41.3006 25.9387 40.8853 26.9081L40.8441 27.0038L41.2388 22.6603C41.2463 22.5806 41.25 22.4991 41.25 22.4184C41.25 20.9128 40.0247 19.6875 38.5191 19.6875C37.6538 19.6875 36.8981 20.1984 36.5625 20.9578V20.625C36.5625 19.0744 35.3006 17.8125 33.75 17.8125C32.1994 17.8125 30.9375 19.0744 30.9375 20.625V24.2587L30.2709 21.5944C29.9906 20.4713 28.9866 19.6875 27.8297 19.6875C26.4412 19.6875 25.3125 20.8162 25.3125 22.2047C25.3125 23.0859 25.4006 23.97 25.5722 24.8316L27.1875 32.9053V35.0531C25.9444 34.4794 24.6131 34.1053 23.2566 33.9103L23.4272 32.0353C23.4338 31.9556 23.4375 31.8741 23.4375 31.7934C23.4375 30.2878 22.2122 29.0625 20.7066 29.0625C19.8412 29.0625 19.0856 29.5734 18.75 30.3328V30C18.75 28.4494 17.4881 27.1875 15.9375 27.1875C14.3869 27.1875 13.125 28.4494 13.125 30V33.6337L12.4584 30.9694C12.1781 29.8463 11.1741 29.0625 10.0172 29.0625C8.62875 29.0625 7.5 30.1913 7.5 31.5797C7.5 32.4609 7.58813 33.345 7.75969 34.2066L9.375 42.2803V44.4281C7.52719 43.5741 5.48906 43.125 3.45469 43.125C2.06625 43.125 0.9375 44.2538 0.9375 45.6422C0.9375 46.7991 1.72125 47.8041 2.84437 48.0844C4.26469 48.4378 5.49281 49.3041 6.30469 50.5228C6.63937 51.0262 7.05469 51.4641 7.53562 51.8241L9.1875 53.0625C9.8925 53.5912 10.3125 54.4322 10.3125 55.3125V59.0625H12.1875V55.3125C12.1875 53.8462 11.4872 52.4428 10.3125 51.5625L8.65969 50.3231C8.34938 50.0906 8.08219 49.8075 7.86469 49.4831C6.79313 47.8753 5.17125 46.7325 3.29812 46.2656C3.01312 46.1925 2.8125 45.9366 2.8125 45.6422C2.8125 45.2878 3.10031 45 3.45469 45C5.34375 45 7.23375 45.4472 8.92312 46.2909L9.89344 46.7766C10.185 46.9209 10.5291 46.9078 10.8056 46.7353C11.0813 46.5638 11.25 46.2628 11.25 45.9375V42.1875C11.25 42.1266 11.2434 42.0638 11.2312 42.0037L9.59812 33.8381C9.45 33.0975 9.375 32.3372 9.375 31.5797C9.375 31.2253 9.66281 30.9375 10.0172 30.9375C10.3116 30.9375 10.5684 31.1381 10.6406 31.4241L13.1541 41.4778C13.2684 41.9372 13.7137 42.2447 14.1778 42.1809C14.6466 42.1228 15 41.7234 15 41.25V30C15 29.4825 15.42 29.0625 15.9375 29.0625C16.455 29.0625 16.875 29.4825 16.875 30V41.25C16.875 41.7384 17.2491 42.1444 17.7356 42.1847C18.2156 42.2184 18.6562 41.8856 18.7369 41.4038L19.3266 37.8656C19.6603 38.2706 20.1178 38.5753 20.6569 38.7094C20.7506 38.7328 20.8359 38.7769 20.9287 38.8041L20.6287 42.1022C20.5875 42.5616 20.8856 42.9825 21.3328 43.0969C21.4097 43.1156 21.4866 43.125 21.5625 43.125C21.9309 43.125 22.2741 42.9084 22.4241 42.5569L23.4019 40.275C23.6653 40.5412 23.9072 40.8309 24.1181 41.1478C24.2409 41.3316 24.3844 41.4966 24.5278 41.6625L22.5994 45.5184C22.5338 45.6478 22.5 45.7922 22.5 45.9375V51.1744C22.5 51.7791 22.2647 52.3472 21.8372 52.7747C21.0553 53.5566 20.625 54.5953 20.625 55.7006V59.0625H22.5V55.7006C22.5 55.0959 22.7353 54.5278 23.1628 54.1003C23.9447 53.3184 24.375 52.2797 24.375 51.1744V46.1588L25.9903 42.9291L27 43.6875C27.705 44.2162 28.125 45.0572 28.125 45.9375L28.1241 47.8125H26.25C25.7316 47.8125 25.3125 48.2316 25.3125 48.75V53.4375C25.3125 53.9559 25.7316 54.375 26.25 54.375V59.0625H28.125V54.375H40.3125V59.0625H42.1875V54.375C42.7059 54.375 43.125 53.9559 43.125 53.4375V48.75C43.125 48.2316 42.7059 47.8125 42.1875 47.8125H40.3125V46.3256C40.3125 45.7209 40.5478 45.1528 40.9753 44.7253C41.7572 43.9434 42.1875 42.9047 42.1875 41.7994V36.7838L45 31.1588V39.375C45 39.8484 45.3534 40.2478 45.8231 40.305C46.2844 40.3697 46.7316 40.0613 46.8469 39.6019L49.3603 29.5481C49.4325 29.2631 49.6875 29.0625 49.9828 29.0625C50.3372 29.0625 50.625 29.3503 50.625 29.7047C50.625 30.4631 50.55 31.2225 50.4019 31.9631L48.7687 40.1287C48.7566 40.1888 48.75 40.2516 48.75 40.3125V44.0625C48.75 44.3878 48.9187 44.6888 49.1953 44.8603C49.4709 45.0319 49.815 45.045 50.1075 44.9016L51.0778 44.4159C52.7672 43.5722 54.6572 43.125 56.5463 43.125C56.8997 43.125 57.1875 43.4128 57.1875 43.7672C57.1875 44.0616 56.9869 44.3184 56.7009 44.3897C54.8278 44.8575 53.205 46.0003 52.1344 47.6081C51.9178 47.9334 51.6497 48.2156 51.3384 48.4491L49.6866 49.6875C48.5128 50.5678 47.8125 51.9712 47.8125 53.4375V59.0625H49.6875V53.4375C49.6875 52.5572 50.1075 51.7162 50.8116 51.1875L52.4625 49.95C52.9453 49.5891 53.3597 49.1512 53.6944 48.6478C54.5062 47.4291 55.7363 46.5628 57.1547 46.2084C58.2788 45.9281 59.0625 44.9241 59.0625 43.7672C59.0625 42.3788 57.9338 41.25 56.5453 41.25ZM20.445 31.1597C20.4666 31.0312 20.5763 30.9375 20.7066 30.9375C21.1791 30.9375 21.5625 31.3209 21.5588 31.8712L21.3872 33.7566C21.3469 33.7566 21.3066 33.75 21.2663 33.75C20.7816 33.75 20.3334 33.8944 19.9491 34.1325L20.445 31.1597ZM41.25 52.5H27.1875V49.6875H41.25V52.5ZM43.6612 29.6428L40.4109 36.1434C40.3462 36.2728 40.3125 36.4172 40.3125 36.5625V41.7994C40.3125 42.4041 40.0772 42.9722 39.6497 43.3997C38.8678 44.1816 38.4375 45.2203 38.4375 46.3256V47.8125H29.9991L30 45.9375C30 44.4713 29.2997 43.0678 28.125 42.1875L26.4722 40.9481C26.1619 40.7156 25.8947 40.4325 25.6772 40.1081C24.6056 38.5003 22.9837 37.3575 21.1106 36.8906C20.8256 36.8175 20.625 36.5616 20.625 36.2672C20.625 35.9128 20.9128 35.625 21.2672 35.625C23.1562 35.625 25.0462 36.0722 26.7356 36.9159L27.7059 37.4016C27.9966 37.545 28.3416 37.5328 28.6181 37.3603C28.8937 37.1888 29.0625 36.8878 29.0625 36.5625V32.8125C29.0625 32.7516 29.0559 32.6888 29.0437 32.6288L27.4106 24.4631C27.2625 23.7225 27.1875 22.9622 27.1875 22.2047C27.1875 21.8503 27.4753 21.5625 27.8297 21.5625C28.1241 21.5625 28.3809 21.7631 28.4531 22.0491L30.9666 32.1028C31.0819 32.5631 31.5263 32.8697 31.9903 32.8059C32.4591 32.7478 32.8125 32.3484 32.8125 31.875V20.625C32.8125 20.1075 33.2325 19.6875 33.75 19.6875C34.2675 19.6875 34.6875 20.1075 34.6875 20.625V31.875C34.6875 32.3634 35.0616 32.7694 35.5481 32.8097C36.0347 32.8463 36.4697 32.5106 36.5494 32.0288L38.2566 21.7847C38.2791 21.6562 38.3888 21.5625 38.5191 21.5625C38.9916 21.5625 39.375 21.9459 39.3713 22.4963L38.4412 32.7272C38.4 33.1866 38.6981 33.6075 39.1453 33.7219C39.5934 33.8316 40.0556 33.6056 40.2366 33.1819L42.6084 27.6478C42.7284 27.3684 43.0013 27.1884 43.305 27.1884C43.7231 27.1875 44.0625 27.5269 44.0625 27.945C44.0625 28.5319 43.9247 29.1187 43.6612 29.6428Z" fill="white"/>
<path d="M47.5165 44.1113C45.4502 44.7995 43.9015 46.4738 43.3727 48.5851L43.1543 49.4598L44.9721 49.9154L45.1905 49.0398C45.5627 47.552 46.654 46.3745 48.109 45.8888L47.5165 44.1113Z" fill="white"/>
<path d="M30.2966 36.6113L29.7031 38.3888C31.1591 38.8754 32.2494 40.052 32.6216 41.5407L32.84 42.4154L34.6578 41.9598L34.4394 41.086C33.9125 38.9729 32.3638 37.2995 30.2966 36.6113Z" fill="white"/>
</g>
<defs>
<clipPath id="clip0_1115_13758">
<rect width="60" height="60" fill="white"/>
</clipPath>
</defs>
</svg>
