<svg width="60" height="60" viewBox="0 0 60 60" fill="none" xmlns="http://www.w3.org/2000/svg">
<g clip-path="url(#clip0_1293_15594)">
<path d="M22.5571 43.2632C22.2913 42.4657 22.1565 41.6307 22.1565 40.7812C22.1565 36.4563 25.6751 32.9378 30 32.9378C31.8309 32.9378 33.5538 33.5618 34.9357 34.6909H34.5274C34.0419 34.6909 33.6485 35.0844 33.6485 35.5698C33.6485 36.0552 34.0419 36.4487 34.5274 36.4487H36.9854C37.4345 36.4546 37.8765 36.0604 37.8643 35.5698V33.1118C37.8643 32.6264 37.4709 32.2329 36.9854 32.2329C36.4999 32.2329 36.1065 32.6264 36.1065 33.1118V33.3874C34.3989 31.9806 32.2351 31.1798 30.0001 31.1798C24.7059 31.1798 20.3988 35.487 20.3988 40.7811C20.3988 41.8198 20.5639 42.8418 20.8896 43.8189C21.0448 44.2846 21.5509 44.5249 22.0014 44.3748C22.4617 44.2214 22.7106 43.7236 22.5571 43.2632ZM30 26.6912C22.2307 26.6912 15.91 33.012 15.91 40.7812C15.91 48.5505 22.2307 54.8713 30 54.8713C37.7693 54.8713 44.0899 48.5505 44.0899 40.7812C44.0899 33.012 37.7693 26.6912 30 26.6912ZM30 53.1135C23.2 53.1135 17.6678 47.5813 17.6678 40.7812C17.6678 33.9812 23.2 28.449 30 28.449C36.7999 28.449 42.3321 33.9812 42.3321 40.7812C42.3321 47.5813 36.7999 53.1135 30 53.1135ZM39.1065 37.7316C38.9525 37.2713 38.4547 37.023 37.9941 37.177C37.5337 37.3311 37.2855 37.8292 37.4396 38.2895C37.7077 39.0901 37.8435 39.9285 37.8435 40.7814C37.8435 45.1063 34.3249 48.6248 30 48.6248C28.1691 48.6248 26.4462 48.0008 25.0643 46.8717H25.4726C25.958 46.8717 26.3515 46.4782 26.3515 45.9928C26.3515 45.5074 25.958 45.1139 25.4726 45.1139H23.0146C22.5654 45.108 22.1235 45.5023 22.1357 45.9928V48.4508C22.1357 48.9362 22.5292 49.3297 23.0146 49.3297C23.5 49.3297 23.8935 48.9362 23.8935 48.4508V48.1752C25.6011 49.582 27.7649 50.3828 29.9999 50.3828C35.2941 50.3828 39.6012 46.0757 39.6012 40.7815C39.6013 39.7384 39.4348 38.7123 39.1065 37.7316ZM57.1766 19.4522H48.0196C46.4627 19.4522 45.1962 20.7188 45.1962 22.2756C45.1962 23.5256 46.0131 24.5879 47.1409 24.9582V31.6042C45.1785 27.879 42.0229 24.8067 38.0546 22.9911C37.1275 22.5669 36.5284 21.6203 36.5284 20.5796V6.28488H37.3232C39.0559 6.28488 40.4655 4.87512 40.4655 3.14238C40.4655 1.40965 39.0559 0 37.3232 0H22.6767C20.944 0 19.5343 1.40965 19.5343 3.14238C19.5343 4.87512 20.944 6.28488 22.6767 6.28488H23.4716V20.6062C23.4716 21.6285 22.8588 22.5708 21.9107 23.0068C17.9006 24.8512 14.7232 27.9806 12.7734 31.7687V18.8918C12.7734 17.9549 12.0111 17.1926 11.0742 17.1926H10.8635V15.0602C10.8635 14.3171 10.2589 13.7126 9.51586 13.7126H8.14453V0.878906C8.14453 0.393516 7.75102 0 7.26562 0C6.78023 0 6.38672 0.393516 6.38672 0.878906V13.7126H5.01539C4.2723 13.7126 3.66773 14.3171 3.66773 15.0602V17.1926H3.45703C2.52012 17.1926 1.75781 17.9549 1.75781 18.8918V24.9506C1.75781 25.436 2.15133 25.8295 2.63672 25.8295C3.12211 25.8295 3.51562 25.436 3.51562 24.9506V18.9504H4.54547H4.54664H9.98461H9.98578H11.0156V36.7556C10.7564 38.021 10.6193 39.3216 10.6207 40.6423C10.6208 40.7947 10.6232 40.9468 10.6269 41.0988H3.51562V29.0522C3.51562 28.5668 3.12211 28.1733 2.63672 28.1733C2.15133 28.1733 1.75781 28.5668 1.75781 29.0522V41.25C0.734883 41.6128 0 42.5897 0 43.7355C0 44.4396 0.27457 45.1018 0.773086 45.6003C1.2709 46.0982 1.93277 46.3723 2.63672 46.3723H4.35586V54.7266H2.63672C1.18277 54.7266 0 55.9093 0 57.3633C0 58.8172 1.18277 60 2.63672 60H11.8945C13.3485 60 14.5312 58.8172 14.5312 57.3633C14.5312 55.9093 13.3485 54.7266 11.8945 54.7266H10.1754V46.3723H11.5041C12.445 49.3535 14.1186 52.0935 16.4367 54.3783C20.121 58.0098 24.9298 60.0002 30.0045 60C34.2205 59.9999 38.2689 58.6511 41.6341 56.1206C42.0222 55.8289 42.1003 55.2779 41.8085 54.8899C41.517 54.502 40.9659 54.4239 40.5778 54.7155C37.515 57.0169 33.8438 58.2422 30.005 58.2422C25.3955 58.2422 21.0231 56.4307 17.6707 53.1264C14.1015 49.6084 12.3838 45.5075 12.3785 40.6404C12.371 33.7706 16.401 27.4759 22.6452 24.6039C24.215 23.8818 25.2294 22.3126 25.2294 20.6062V6.28488H34.7706V20.5794C34.7706 22.3058 35.7725 23.8798 37.3233 24.5893C43.5792 27.4518 47.6215 33.7445 47.6215 40.6206C47.6215 44.7943 46.1361 48.8423 43.4389 52.0192C43.1248 52.3891 43.1701 52.9439 43.5401 53.258C43.9103 53.572 44.4647 53.5268 44.779 53.1568C45.697 52.0755 46.4871 50.9023 47.1409 49.6617V54.5425C47.1409 57.5517 49.5892 59.9999 52.5983 59.9999C55.6075 59.9999 58.0557 57.5517 58.0557 54.5425V24.958C59.1832 24.5875 59.9999 23.5254 59.9999 22.2756C60 20.7188 58.7334 19.4522 57.1766 19.4522ZM9.1057 17.1926H5.42555V15.4704H9.1057V17.1926ZM11.8945 56.4844C12.3792 56.4844 12.7734 56.8786 12.7734 57.3633C12.7734 57.848 12.3792 58.2422 11.8945 58.2422H2.63672C2.15203 58.2422 1.75781 57.848 1.75781 57.3633C1.75781 56.8786 2.15203 56.4844 2.63672 56.4844H11.8945ZM6.11367 54.7266V46.3723H8.41758V54.7266H6.11367ZM2.63672 44.6145C2.40223 44.6145 2.1818 44.5232 2.01598 44.3575C1.84945 44.1909 1.75781 43.97 1.75781 43.7355C1.75781 43.2509 2.15203 42.8566 2.63672 42.8566H10.752C10.8211 43.4488 10.9177 44.0352 11.0411 44.6145H2.63672ZM22.6767 4.52707C21.9132 4.52707 21.2921 3.90586 21.2921 3.14238C21.2921 2.37891 21.9132 1.75781 22.6767 1.75781H37.3232C38.0866 1.75781 38.7077 2.37891 38.7077 3.14238C38.7077 3.90586 38.0865 4.52707 37.3232 4.52707H22.6767ZM56.298 54.5426C56.298 56.5826 54.6384 58.2422 52.5984 58.2422C50.5584 58.2422 48.8988 56.5826 48.8988 54.5426V44.9053C49.2157 43.5081 49.3794 42.0713 49.3794 40.6206C49.3794 39.1662 49.2135 37.736 48.8988 36.3514V25.0991H56.2982V54.5426H56.298ZM57.1766 23.3411H48.0196C47.432 23.3411 46.954 22.863 46.954 22.2755C46.954 21.6879 47.432 21.2099 48.0196 21.2099H57.1766C57.7642 21.2099 58.2422 21.6879 58.2422 22.2755C58.2422 22.863 57.7642 23.3411 57.1766 23.3411Z" fill="white"/>
</g>
<defs>
<clipPath id="clip0_1293_15594">
<rect width="60" height="60" fill="white"/>
</clipPath>
</defs>
</svg>
