<svg width="64" height="64" viewBox="0 0 64 64" fill="none" xmlns="http://www.w3.org/2000/svg">
<path d="M30.0123 58.9561C26.684 59.209 23.3858 58.174 20.7989 56.0647C18.212 53.9554 16.5342 50.933 16.1119 47.622C20.636 49.7237 24.3781 49.726 27.2544 46.1493C28.3546 44.9482 29.2237 44 30.9996 44C34.726 44.1178 38.3123 45.4477 41.2144 47.7881C41.4239 47.9449 41.6866 48.0133 41.946 47.9787C42.2054 47.944 42.4408 47.8091 42.6019 47.6028C42.7629 47.3965 42.8366 47.1353 42.8073 46.8753C42.7779 46.6152 42.6478 46.3771 42.4448 46.2119C39.1912 43.5972 35.1719 42.1181 30.9996 42C23.7352 42.4611 26.7208 50.4963 16.0253 45.381C16.1641 42.6958 17.1277 40.1186 18.7847 38.0011C20.4418 35.8835 22.7116 34.3286 25.2847 33.5483C25.4912 33.4869 25.6724 33.3604 25.8012 33.1877C25.93 33.015 25.9996 32.8053 25.9996 32.5898V14.5498C25.9996 14.3266 25.9249 14.1097 25.7874 13.9338C25.6499 13.7579 25.4575 13.633 25.2408 13.5791C23.5406 13.1568 23.0323 12.5977 22.9976 12.5181C24.2971 10.5201 33.7106 10.5785 35.0015 12.4815C34.9669 12.5977 34.4585 13.1568 32.7584 13.5792C32.5417 13.6331 32.3493 13.7579 32.2118 13.9338C32.0743 14.1097 31.9996 14.3265 31.9996 14.5498V32.5898C31.9798 33.5002 32.9986 33.6087 33.648 33.8661C33.788 33.9124 33.9362 33.9279 34.0827 33.9118C34.2292 33.8956 34.3705 33.8481 34.4969 33.7725C34.6234 33.6969 34.7322 33.5949 34.8157 33.4735C34.8993 33.3521 34.9557 33.2142 34.9812 33.069C35.0067 32.9239 35.0007 32.7749 34.9635 32.6323C34.9263 32.4897 34.8589 32.3568 34.7657 32.2426C34.6726 32.1284 34.556 32.0356 34.4238 31.9705C34.2916 31.9054 34.1469 31.8695 33.9996 31.8652V15.3052C35.942 14.6792 36.9996 13.6978 36.9996 12.5001C36.9996 10.0952 32.8526 9 28.9996 9C25.1466 9 20.9996 10.0952 20.9996 12.5C20.9996 13.6978 22.0572 14.6792 23.9996 15.3052V31.8643C22.2509 32.487 20.6344 33.4317 19.2335 34.6495C18.4969 34.1386 17.6994 33.7218 16.8595 33.4087V21.9951C18.7012 21.3442 18.9996 20.3589 18.9996 19.79C18.9996 17.8628 15.9859 17 12.9996 17C10.0132 17 6.99957 17.8628 6.99957 19.79C6.99957 20.3589 7.29791 21.3442 9.13971 21.9951V33.4116C-4.04385 38.9599 2.66665 58.1104 16.4269 54.154C17.9002 56.4259 19.961 58.2568 22.3906 59.4522C24.8203 60.6477 27.5282 61.1633 30.2271 60.9443C30.4869 60.9112 30.7233 60.7774 30.8856 60.5718C31.0478 60.3662 31.1229 60.1052 31.0948 59.8448C31.0666 59.5844 30.9375 59.3455 30.7351 59.1793C30.5327 59.0131 30.2731 58.933 30.0123 58.9561ZM10.4254 35.0884C10.6318 35.0268 10.8128 34.9003 10.9415 34.7276C11.0702 34.5549 11.1397 34.3453 11.1397 34.1299V21.25C11.1396 21.0267 11.0648 20.8098 10.9272 20.6339C10.7896 20.458 10.5972 20.3332 10.3804 20.2793C9.93764 20.1866 9.51381 20.0193 9.12701 19.7847C10.3285 19.1933 11.6626 18.923 12.9996 19C14.3365 18.923 15.6706 19.1933 16.8721 19.7847C16.4853 20.0193 16.0615 20.1866 15.6187 20.2793C15.402 20.3332 15.2095 20.458 15.0719 20.6339C14.9343 20.8098 14.8595 21.0267 14.8594 21.25V34.1299C14.8594 34.3459 14.9294 34.5562 15.0589 34.7292C15.1884 34.9021 15.3704 35.0285 15.5777 35.0894C16.3554 35.32 17.0972 35.6578 17.7817 36.0931C16.6063 37.4252 15.6737 38.9532 15.0265 40.6076C9.24617 40.2383 11.296 46.7119 4.02527 43.0922C4.15827 41.2676 4.84102 39.5262 5.98353 38.0973C7.12605 36.6685 8.67469 35.6195 10.4254 35.0884ZM12.9996 52.71C10.8959 52.7065 8.85981 51.9671 7.2442 50.6198C5.62859 49.2725 4.53535 47.4024 4.15399 45.3336C7.2445 46.7178 10.0513 46.4378 11.962 44.013C12.7996 43.0992 13.3319 42.582 14.405 42.5732C13.6294 45.8607 13.9937 49.3142 15.4381 52.3675C14.6451 52.5942 13.8244 52.7095 12.9996 52.71Z" fill="white"/>
<path d="M60 53H57.8433C63.6788 43.4174 57.064 30.2926 46 29.1484V28C45.9995 27.4697 45.7886 26.9613 45.4136 26.5864C45.0387 26.2114 44.5303 26.0005 44 26V23C44 22.7348 43.8946 22.4804 43.7071 22.2929C43.5196 22.1054 43.2652 22 43 22H39C38.7348 22 38.4804 22.1054 38.2929 22.2929C38.1054 22.4804 38 22.7348 38 23V26C37.4697 26.0005 36.9613 26.2114 36.5864 26.5864C36.2114 26.9613 36.0005 27.4697 36 28V40C36.0005 40.5303 36.2114 41.0387 36.5864 41.4136C36.9613 41.7886 37.4697 41.9995 38 42H44C44.5303 41.9995 45.0387 41.7886 45.4136 41.4136C45.7886 41.0387 45.9995 40.5303 46 40V35.2114C54.3193 36.8585 56.8952 47.9383 49.9729 53H36V51H47C47.2618 50.9949 47.5112 50.8873 47.6946 50.7003C47.878 50.5133 47.9807 50.2619 47.9807 50C47.9806 49.7381 47.8779 49.4866 47.6945 49.2997C47.5112 49.1127 47.2618 49.0051 46.9999 49H35C34.7348 49 34.4804 49.1054 34.2929 49.2929C34.1054 49.4804 34 49.7348 34 50V53C33.4697 53.0005 32.9613 53.2114 32.5864 53.5864C32.2114 53.9613 32.0005 54.4697 32 55V59C32.0005 59.5303 32.2114 60.0387 32.5864 60.4136C32.9613 60.7886 33.4697 60.9995 34 61H60C60.5303 60.9995 61.0387 60.7886 61.4136 60.4136C61.7886 60.0387 61.9995 59.5303 62 59V55C61.9995 54.4697 61.7886 53.9613 61.4136 53.5864C61.0387 53.2114 60.5303 53.0005 60 53ZM40 24H42V26H40V24ZM44 40H38V28H44V29C43.2102 29.0089 42.4558 29.3289 41.9004 29.8905C41.345 30.4522 41.0336 31.2101 41.0336 32C41.0336 32.7899 41.345 33.5478 41.9004 34.1095C42.4558 34.6711 43.2102 34.9911 44 35V40ZM56 45C55.9831 42.0114 54.858 39.1353 52.8426 36.9285C50.8271 34.7216 48.0647 33.341 45.0898 33.0537C44.2713 32.983 43.0252 33.1652 43 31.9999C43.015 30.9545 44.1362 30.9187 44.935 31.0382C55.6214 31.5916 61.7532 44.3208 55.4756 53H52.9272C54.9011 50.8023 55.9951 47.9539 56 45ZM34 59V55H60L60.0015 59H34Z" fill="white"/>
<path d="M11 10.9997C11.0089 11.7895 11.3289 12.5439 11.8905 13.0993C12.4522 13.6546 13.2102 13.9661 14 13.9661C14.7899 13.966 15.5479 13.6546 16.1095 13.0992C16.6711 12.5438 16.9911 11.7894 17 10.9996C16.9911 10.2098 16.6711 9.45535 16.1095 8.9C15.5478 8.34465 14.7898 8.03319 14 8.0332C13.2101 8.03321 12.4521 8.3447 11.8905 8.90007C11.3288 9.45543 11.0089 10.2099 11 10.9997ZM15 10.9997C14.9949 11.2615 14.8873 11.5109 14.7003 11.6943C14.5133 11.8776 14.2619 11.9803 14 11.9803C13.7381 11.9803 13.4866 11.8776 13.2997 11.6942C13.1127 11.5109 13.0051 11.2615 13 10.9996C13.0051 10.7378 13.1127 10.4884 13.2997 10.305C13.4867 10.1217 13.7381 10.0189 14 10.0189C14.2619 10.019 14.5134 10.1217 14.7003 10.3051C14.8873 10.4884 14.9949 10.7378 15 10.9997Z" fill="white"/>
<path d="M17 5.99967C17.0089 6.78947 17.3289 7.54391 17.8905 8.09925C18.4522 8.6546 19.2102 8.96607 20 8.96605C20.7899 8.96604 21.5479 8.65456 22.1095 8.09919C22.6711 7.54383 22.9911 6.78938 23 5.99958C22.9911 5.20978 22.6711 4.45535 22.1095 3.9C21.5478 3.34465 20.7898 3.03319 20 3.0332C19.2101 3.03321 18.4521 3.3447 17.8905 3.90007C17.3289 4.45543 17.0089 5.20987 17 5.99967ZM21 5.99967C20.9949 6.26151 20.8873 6.51091 20.7003 6.69427C20.5133 6.87764 20.2619 6.98035 20 6.98034C19.7381 6.98033 19.4866 6.87761 19.2997 6.69423C19.1127 6.51085 19.0051 6.26145 19 5.99961C19.0051 5.73777 19.1127 5.48838 19.2997 5.30502C19.4867 5.12165 19.7381 5.01894 20 5.01895C20.2619 5.01896 20.5134 5.12168 20.7003 5.30506C20.8873 5.48844 20.9949 5.73783 21 5.99967Z" fill="white"/>
</svg>
