<svg width="60" height="60" viewBox="0 0 60 60" fill="none" xmlns="http://www.w3.org/2000/svg">
<path d="M46.53 24.7548C46.5198 24.7548 46.5097 24.7548 46.499 24.7543C45.2564 24.7146 43.9727 24.314 42.614 23.8896C40.1076 23.1067 37.2668 22.2193 34.0601 23.5127C33.4369 23.7628 32.7305 23.2877 32.7305 22.6151V13.5595C32.7305 13.303 32.8321 13.0572 33.013 12.8757C37.9635 7.91752 42.4379 10.7675 46.7647 13.5232C49.9301 15.5395 53.2035 17.6254 56.9569 17.0762C57.7132 16.9669 58.3089 17.7817 57.9605 18.4707C57.1839 20.0051 56.0477 21.3459 53.3516 21.3072C53.8316 21.9014 54.4297 22.9587 53.3018 23.3303C51.5995 23.8906 50.0289 23.4009 48.5206 22.664C48.6672 22.9707 48.7911 23.3075 48.7911 23.6806C48.7916 24.7983 47.3066 24.7548 46.53 24.7548ZM37.4429 20.9177C39.5922 20.9177 41.519 21.5196 43.1908 22.0417C44.3661 22.409 45.479 22.7564 46.4303 22.8135C46.1424 22.184 45.9 21.3251 46.4574 20.4077C46.8048 19.8362 47.4619 19.8754 47.9666 20.1807C49.078 20.7924 50.0932 21.3503 51.0624 21.553L50.3061 20.6172C49.738 19.9141 50.4101 18.8559 51.2855 19.0678C53.1842 19.5256 54.285 19.4274 54.9822 19.0737C51.4887 18.8264 48.4563 16.8948 45.7253 15.1548C41.2011 12.2733 38.206 10.6553 34.666 13.9683V21.2738C35.6279 21.0207 36.5545 20.9177 37.4429 20.9177Z" fill="white"/>
<path d="M13.4386 24.7347C12.8555 24.7347 11.9797 24.7051 11.5244 24.2905C11.0458 23.855 11.2031 23.165 11.4382 22.6463C9.96049 23.3929 8.35985 23.8651 6.65324 23.209C5.58049 22.7968 6.17324 21.7888 6.64791 21.2019C3.9513 21.2397 2.81566 19.9003 2.03904 18.3655C1.69211 17.6798 2.28533 16.8568 3.04404 16.9714C6.73646 17.5163 9.97888 15.4453 13.1168 13.443C17.4624 10.6695 21.9566 7.8011 26.9821 12.7661C27.166 12.948 27.2695 13.1958 27.2695 13.4547V22.5103C27.2695 23.1853 26.5563 23.6624 25.9321 23.405C22.8315 22.1232 20.1547 22.9893 17.5669 23.8279C16.1371 24.29 14.7629 24.7347 13.4386 24.7347ZM13.5421 20.3029C14.1963 21.2179 13.8319 22.1614 13.5276 22.7977C14.5258 22.7774 15.6847 22.4024 16.9708 21.9858C19.2992 21.2319 22.1279 20.3159 25.334 21.1632V13.8674C21.7268 10.5364 18.7108 12.169 14.1576 15.0742C11.4547 16.7992 8.45372 18.7138 5.01437 18.9669C5.71114 19.3216 6.81195 19.4213 8.71404 18.9626C9.58743 18.7511 10.2639 19.8059 9.6934 20.5119L8.86695 21.5338C9.84146 21.364 10.9036 20.7674 12.2144 19.9763C12.3711 19.8819 13.1245 19.7184 13.5421 20.3029Z" fill="white"/>
<path d="M40.4458 39.3048C39.5501 36.2173 35.9076 35.0806 33.7311 34.4013L33.3169 34.2711C32.504 34.0118 31.7351 33.855 30.9977 33.7553V11.2365C33.6909 10.7792 35.7488 8.45661 35.7488 5.66177C35.7488 2.53984 33.1834 0 30.03 0C26.8766 0 24.3106 2.53984 24.3106 5.66177C24.3106 8.45661 26.3685 10.7792 29.0617 11.2365V33.615C28.2077 33.6053 27.4011 33.6518 26.6376 33.6982C24.5235 33.8274 22.8542 33.9295 21.2588 32.7044C20.4972 32.1198 19.215 30.8797 19.1821 29.1431C19.1448 27.1471 20.834 25.7279 21.1727 25.4637C21.5942 25.1352 21.6692 24.5269 21.3406 24.1055C21.0121 23.684 20.4038 23.609 19.9824 23.9376C19.3272 24.4485 17.1938 26.3366 17.2471 29.1794C17.295 31.7269 19.0422 33.4432 20.0797 34.2397C22.2493 35.9056 24.4384 35.7726 26.7551 35.6303C27.5066 35.5844 28.2701 35.5413 29.0617 35.551V43.5087C28.4395 43.5005 27.853 43.5339 27.2985 43.5677C25.8111 43.6587 24.7359 43.7245 23.6942 42.9247C23.1977 42.5429 22.3611 41.7377 22.3403 40.6326C22.3166 39.3595 23.415 38.4377 23.6351 38.266C24.0566 37.9374 24.1321 37.3292 23.8035 36.9077C23.4755 36.4863 22.8667 36.4103 22.4453 36.7394C21.9566 37.1202 20.3656 38.5292 20.4053 40.6679C20.4411 42.5835 21.7422 43.8653 22.5155 44.459C24.1311 45.6992 25.8009 45.5976 27.4166 45.4989C27.9527 45.466 28.4976 45.4355 29.0617 45.4447V52.2416C28.6156 52.2334 28.2024 52.2566 27.8288 52.2794C26.788 52.3418 26.218 52.3553 25.6476 51.9174C25.4187 51.7423 24.8855 51.2671 24.8738 50.6434C24.8608 49.9355 25.5334 49.3911 25.6098 49.3311C26.0317 49.0026 26.1072 48.3944 25.7792 47.9729C25.4506 47.5505 24.8429 47.4755 24.4209 47.8035C24.0658 48.0803 22.9088 49.1047 22.9388 50.6792C22.965 52.0911 23.9095 53.0231 24.4693 53.4527C25.6403 54.3518 26.8132 54.2802 27.9474 54.211C28.3108 54.1887 28.68 54.1679 29.0622 54.1766V59.0323C29.0622 59.5664 29.4958 60 30.03 60C30.5642 60 30.9977 59.5664 30.9977 59.0323V54.5526C31.7496 54.7926 32.7895 55.1729 32.9772 55.8208C33.1185 56.309 32.79 56.9052 32.5819 57.2173C31.8943 58.246 33.4964 59.3332 34.1908 58.2929C34.8837 57.256 35.1067 56.2152 34.8363 55.2818C34.3388 53.5669 32.3903 52.9592 31.3432 52.6321L31.1521 52.5721C31.0993 52.5552 31.049 52.544 30.9972 52.529V45.6808C31.1714 45.7234 31.3476 45.7713 31.5276 45.8289L31.8295 45.9237C33.0488 46.304 35.0888 46.9408 35.4735 48.2676C35.728 49.1444 35.2563 50.1135 34.8159 50.7726C34.1288 51.8018 35.73 52.8881 36.4253 51.8482C37.3843 50.4131 37.6979 48.9885 37.3326 47.7285C36.658 45.4031 33.9963 44.5723 32.4058 44.0763L32.115 43.9853C31.7284 43.8619 31.3582 43.7744 30.9967 43.7037V35.7077C31.5537 35.7958 32.128 35.924 32.7285 36.1152L33.1543 36.2492C34.9592 36.8124 37.9809 37.755 38.5867 39.8444C38.9903 41.2355 38.2742 42.7263 37.6026 43.7318C36.915 44.7605 38.5171 45.8468 39.2119 44.8069C40.5029 42.8744 40.9292 40.9723 40.4458 39.3048C40.9292 40.9723 39.5506 36.2173 40.4458 39.3048ZM26.2461 5.66177C26.2461 3.60726 27.9435 1.93548 30.03 1.93548C32.1164 1.93548 33.8134 3.60726 33.8134 5.66177C33.8134 7.71629 32.1159 9.38855 30.03 9.38855C27.944 9.38855 26.2461 7.71677 26.2461 5.66177Z" fill="white"/>
<path d="M38.9247 34.1269C37.8698 34.1269 37.6037 32.6076 38.5956 32.249C40.0821 31.7119 41.0581 30.4655 41.0822 29.0739C41.105 27.7544 40.2403 26.5113 38.8792 25.9069C38.3905 25.6902 38.1703 25.1182 38.3871 24.6295C38.6043 24.1413 39.1768 23.9221 39.6645 24.1374C41.7374 25.0578 43.0531 27.0082 43.0172 29.1073C42.979 31.3089 41.5018 33.2565 39.2537 34.0689C39.1453 34.1081 39.034 34.1269 38.9247 34.1269Z" fill="white"/>
<path d="M26.9358 59.2599C26.3798 59.2599 25.8345 59.0659 25.4024 58.7074C24.9074 58.2961 24.604 57.7033 24.5697 57.0811C24.5029 55.8651 25.4634 54.7774 26.7098 54.6569C27.2397 54.6056 27.7148 54.9951 27.7661 55.5269C27.8174 56.0587 27.4279 56.5319 26.8961 56.5832C26.4965 56.6219 26.3823 57.0641 26.7181 57.2708C27.0776 57.4924 27.4787 57.2466 27.8286 57.6259C28.52 58.3759 27.7807 59.2599 26.9358 59.2599Z" fill="white"/>
</svg>
