<svg width="14" height="18" viewBox="0 0 14 18" fill="none" xmlns="http://www.w3.org/2000/svg">
<path d="M8.25 0L7.18942 1.06058L10.6289 4.5H1.5C1.10218 4.5 0.720645 4.65804 0.43934 4.93934C0.158036 5.22064 0 5.60218 0 6V18H1.5V6H10.6289L7.18942 9.43942L8.25 10.5L13.5 5.25L8.25 0Z" fill="#525252"/>
<path d="M8.25 0L7.18942 1.06058L10.6289 4.5H1.5C1.10218 4.5 0.720645 4.65804 0.43934 4.93934C0.158036 5.22064 0 5.60218 0 6V18H1.5V6H10.6289L7.18942 9.43942L8.25 10.5L13.5 5.25L8.25 0Z" fill="#890C25"/>
</svg>
