<svg width="48" height="51" viewBox="0 0 48 51" fill="none" xmlns="http://www.w3.org/2000/svg">
<path d="M27.5515 4.15989L43.1932 35.4128C43.7324 36.4905 45.0443 36.9275 46.122 36.3882C47.2006 35.8489 47.6367 34.5371 47.0974 33.4593L31.4558 2.20647C30.9165 1.12876 29.6047 0.691765 28.5269 1.23104C27.4484 1.77032 27.0122 3.08217 27.5515 4.15989Z" stroke="#F9FBFC" stroke-opacity="0.2" stroke-width="1.3" stroke-miterlimit="10" stroke-linejoin="round"/>
<path d="M28.5252 1.23047L1 15.0066L18.5959 50.1638L46.1212 36.3876" stroke="#F9FBFC" stroke-opacity="0.2" stroke-width="1.3" stroke-miterlimit="10" stroke-linejoin="round"/>
<path d="M25.557 10.1983L8.47656 18.748L12.1408 26.0683L29.2212 17.5186L25.557 10.1983Z" stroke="#F9FBFC" stroke-opacity="0.2" stroke-width="1.3" stroke-miterlimit="10" stroke-linejoin="round"/>
<path d="M13.6875 29.1662L30.7686 20.6172" stroke="#F9FBFC" stroke-opacity="0.2" stroke-width="1.3" stroke-miterlimit="10" stroke-linejoin="round"/>
<path d="M14.6406 31.0705L31.7218 22.5215" stroke="#F9FBFC" stroke-opacity="0.2" stroke-width="1.3" stroke-miterlimit="10" stroke-linejoin="round"/>
<path d="M41.4977 32.0312L36.6172 34.4741L38.3635 35.7969L38.3272 37.8898L43.1908 35.414" stroke="#F9FBFC" stroke-opacity="0.2" stroke-width="1.3" stroke-miterlimit="10" stroke-linejoin="round"/>
</svg>
