<svg width="18" height="16" viewBox="0 0 18 16" fill="none" xmlns="http://www.w3.org/2000/svg">
<path d="M0.527387 13.8008H3.1641V15.3828C3.1641 15.674 3.40021 15.9101 3.69144 15.9101H17.4727C17.7639 15.9101 18 15.674 18 15.3828V1.67187C18 1.38064 17.7639 1.14453 17.4727 1.14453H14.836V0.617186C14.836 0.325953 14.5998 0.0898438 14.3086 0.0898438C14.0174 0.0898438 13.7813 0.325953 13.7813 0.617186V1.14453H11.1094V0.617186C11.1094 0.325953 10.8733 0.0898438 10.5821 0.0898438C10.2908 0.0898438 10.0547 0.325953 10.0547 0.617186V1.14453H7.418V0.617186C7.418 0.325953 7.18189 0.0898438 6.89066 0.0898438C6.59942 0.0898438 6.36331 0.325953 6.36331 0.617186V1.14453H3.69144C3.40021 1.14453 3.1641 1.38064 3.1641 1.67187V4.83593C3.1641 8.72244 1.54885 11.7123 0.189782 12.8683C0.0192041 13.0104 -0.0440419 13.2442 0.0315088 13.453C0.10713 13.6617 0.30534 13.8008 0.527387 13.8008ZM16.9453 14.8554H4.21879V13.8008H14.3086C14.432 13.8008 14.5514 13.7575 14.6462 13.6785C15.2802 13.1505 16.2621 11.8934 16.9453 10.2833V14.8554ZM4.21879 2.19921H6.36331V2.72656C6.36331 3.01779 6.59942 3.2539 6.89066 3.2539C7.18189 3.2539 7.418 3.01779 7.418 2.72656V2.19921H10.0547V2.72656C10.0547 3.01779 10.2908 3.2539 10.5821 3.2539C10.8733 3.2539 11.1094 3.01779 11.1094 2.72656V2.19921H13.7813V2.72656C13.7813 3.01779 14.0174 3.2539 14.3086 3.2539C14.5998 3.2539 14.836 3.01779 14.836 2.72656V2.19921H16.9453V4.30859H4.21879V2.19921ZM4.20975 5.36292H16.936C16.8171 8.70821 15.5332 11.3403 14.1018 12.7461H1.72688C3.34874 10.6796 4.12274 7.98881 4.20975 5.36292Z" fill="#262626"/>
</svg>
