<svg width="65" height="49" viewBox="0 0 65 49" fill="none" xmlns="http://www.w3.org/2000/svg">
<path d="M52.2495 9.96641C44.2586 0.885522 30.7629 -1.73822 19.7633 4.38485C8.76371 10.5079 3.88322 23.3604 7.39053 34.9374L1.08594 38.4467L6.52987 48.2266L63.999 16.2361L58.555 6.45613L52.2495 9.96641ZM25.2232 14.1937C30.7549 11.1142 37.3836 11.9041 42.0177 15.6617L17.6222 29.2411C16.8703 23.3235 19.6915 17.2732 25.2232 14.1937Z" stroke="#F9FBFC" stroke-opacity="0.2" stroke-width="1.3" stroke-miterlimit="10" stroke-linejoin="round"/>
<path d="M6.72645 41.8039L6.29688 42.043L7.2057 43.676L7.63528 43.4369L6.72645 41.8039Z" fill="#413D84" stroke="#F9FBFC" stroke-opacity="0.2" stroke-miterlimit="10"/>
<path d="M11.9726 38.9073L11.543 39.1465L12.452 40.7795L12.8816 40.5403L11.9726 38.9073Z" fill="#413D84" stroke="#F9FBFC" stroke-opacity="0.2" stroke-miterlimit="10"/>
<path d="M17.1288 36.0304L16.6992 36.2695L17.6082 37.9023L18.0378 37.6632L17.1288 36.0304Z" fill="#413D84" stroke="#F9FBFC" stroke-opacity="0.2" stroke-miterlimit="10"/>
<path d="M22.3748 33.1339L21.9453 33.373L22.8545 35.0058L23.284 34.7667L22.3748 33.1339Z" fill="#413D84" stroke="#F9FBFC" stroke-opacity="0.2" stroke-miterlimit="10"/>
<path d="M27.6093 30.2023L27.1797 30.4414L28.0887 32.0744L28.5183 31.8353L27.6093 30.2023Z" fill="#413D84" stroke="#F9FBFC" stroke-opacity="0.2" stroke-miterlimit="10"/>
<path d="M32.7929 27.2941L32.3633 27.5332L33.2721 29.1662L33.7017 28.9271L32.7929 27.2941Z" fill="#413D84" stroke="#F9FBFC" stroke-opacity="0.2" stroke-miterlimit="10"/>
<path d="M38.039 24.3956L37.6094 24.6348L38.5184 26.2678L38.948 26.0286L38.039 24.3956Z" fill="#413D84" stroke="#F9FBFC" stroke-opacity="0.2" stroke-miterlimit="10"/>
<path d="M43.2186 21.4894L42.7891 21.7285L43.6979 23.3615L44.1275 23.1224L43.2186 21.4894Z" fill="#413D84" stroke="#F9FBFC" stroke-opacity="0.2" stroke-miterlimit="10"/>
<path d="M48.4101 18.6163L47.9805 18.8555L48.8895 20.4883L49.319 20.2491L48.4101 18.6163Z" fill="#413D84" stroke="#F9FBFC" stroke-opacity="0.2" stroke-miterlimit="10"/>
<path d="M53.6561 15.7179L53.2266 15.957L54.1357 17.5898L54.5653 17.3507L53.6561 15.7179Z" fill="#413D84" stroke="#F9FBFC" stroke-opacity="0.2" stroke-miterlimit="10"/>
<path d="M58.8358 12.8136L58.4062 13.0527L59.3152 14.6855L59.7448 14.4464L58.8358 12.8136Z" fill="#413D84" stroke="#F9FBFC" stroke-opacity="0.2" stroke-miterlimit="10"/>
<path d="M6.53125 48.2256L7.7848 44.7053L59.9176 15.6855L64.0003 16.236" stroke="#F9FBFC" stroke-opacity="0.2" stroke-width="1.3" stroke-miterlimit="10" stroke-linejoin="round"/>
</svg>
