<svg width="50" height="45" viewBox="0 0 50 45" fill="none" xmlns="http://www.w3.org/2000/svg">
<path fill-rule="evenodd" clip-rule="evenodd" d="M3.34309 15.0564C4.56596 10.7595 5.18285 6.26087 5.74798 1.89688C5.86646 0.956948 5.20532 0.0842818 4.27386 0.0171434C3.34173 -0.117133 2.48926 0.554643 2.37078 1.42744C1.82675 5.65715 1.2446 10.0207 0.0673388 14.1162C-0.187994 14.989 0.337645 15.9293 1.24186 16.1979C2.1454 16.4664 3.08707 15.9292 3.34309 15.0564Z" fill="#F5D253"/>
<path fill-rule="evenodd" clip-rule="evenodd" d="M20.676 28.0813C27.8328 21.1661 34.0684 13.378 41.4172 6.59705C42.1035 5.9928 42.1403 4.91859 41.4996 4.24721C40.8582 3.57582 39.7797 3.50895 39.0933 4.18033C31.7234 10.9613 25.4674 18.7493 18.2895 25.6646C17.6195 26.336 17.6099 27.4099 18.269 28.0813C18.9274 28.6855 20.006 28.7527 20.676 28.0813Z" fill="#F5D253"/>
<path fill-rule="evenodd" clip-rule="evenodd" d="M48.2053 41.0393C44.1091 41.2407 40.0129 41.4417 35.916 41.6431C34.9777 41.6431 34.2533 42.4492 34.2989 43.3891C34.3452 44.3291 35.1439 45 36.0828 45C40.1858 44.7986 44.2882 44.5976 48.3905 44.3962C49.3288 44.3291 50.0485 43.5233 49.9974 42.5833C49.9464 41.7105 49.1429 40.9721 48.2053 41.0393Z" fill="#F5D253"/>
</svg>
