<svg width="36" height="39" viewBox="0 0 36 39" fill="none" xmlns="http://www.w3.org/2000/svg">
<path d="M34.1056 25.9495L18.9292 20.2778L34.1056 14.6198C35.7983 13.9866 36.5012 12.0593 35.5975 10.545C34.6938 9.03071 32.5995 8.65902 31.1794 9.74656L18.3554 19.5895L18.3411 19.5069L20.9231 3.27639C21.21 1.55559 19.8186 0 17.9968 0C16.1751 0 14.798 1.55559 15.0706 3.27639L17.6526 19.5069L17.6382 19.5895L4.8143 9.74656C3.39421 8.65902 1.29992 9.04448 0.396219 10.545C-0.50748 12.0593 0.195397 13.9866 1.88804 14.6198L17.0644 20.2778L1.88804 25.9495C0.195397 26.5828 -0.50748 28.5101 0.396219 30.0244C1.29992 31.5387 3.39421 31.9103 4.8143 30.8228L17.3944 21.1726L15.0706 35.7236C14.798 37.4444 16.1894 39 17.9968 39C19.8186 39 21.1956 37.4444 20.9231 35.7236L18.5993 21.1726L31.1794 30.8228C32.5995 31.9103 34.6938 31.5249 35.5975 30.0244C36.5155 28.5101 35.7983 26.5828 34.1056 25.9495Z" fill="white"/>
</svg>
