<svg width="50" height="50" viewBox="0 0 50 50" fill="none" xmlns="http://www.w3.org/2000/svg">
<path d="M22.6328 5.28083C22.5555 4.97223 22.3 4.74098 21.9852 4.69567L11.0477 3.13317C10.8461 3.10426 10.6414 3.15504 10.4781 3.27536L1.88438 9.52536C1.62734 9.71208 1.50938 10.0363 1.58516 10.3457C1.6625 10.6543 1.91797 10.8855 2.23281 10.9308L6.06485 11.4785L7.84531 17.4129C7.94375 17.7425 8.24844 17.9691 8.59297 17.9691H12.1844C15.6023 17.9691 18.7867 16.4386 20.9227 13.7699C21.0883 13.5621 21.1367 13.2863 21.0531 13.0347L19.4422 8.20348L22.3336 6.10036C22.5906 5.91364 22.7086 5.58942 22.6328 5.28083ZM19.4328 13.1152C17.6023 15.2129 14.9844 16.4066 12.1844 16.4066H9.17422L7.76875 11.7215L13.1703 12.4933C13.2063 12.498 13.2438 12.5004 13.2805 12.5004C13.4445 12.5004 13.6055 12.4488 13.7398 12.3511L18.1172 9.16754L19.4328 13.1152ZM13.0773 10.9011L4.36016 9.65504L11.1398 4.72379L19.857 5.96989L13.0773 10.9011Z" fill="#890C25"/>
<path d="M31.25 9.37502C31.25 14.1133 35.1055 17.9688 39.8438 17.9688C40.0516 17.9688 40.25 17.8867 40.3961 17.7399L43.0125 15.1235L47.3289 17.1156C47.4336 17.1641 47.5453 17.1875 47.6562 17.1875C47.8594 17.1875 48.0594 17.1078 48.2086 16.9586C48.4398 16.7274 48.5031 16.3758 48.3656 16.0789L43.6781 5.92268C43.6 5.75393 43.4648 5.61799 43.2961 5.54065L33.1398 0.853146C32.8437 0.716428 32.4914 0.778927 32.2602 1.01018C32.0289 1.24143 31.9656 1.59299 32.1031 1.88986L34.0953 6.20627L31.4789 8.82268C31.332 8.96877 31.25 9.16721 31.25 9.37502ZM42.3797 6.83908L46.0586 14.8086L38.0891 11.1297L34.4102 3.16018L42.3797 6.83908ZM34.793 7.71799L36.7906 12.0461C36.8687 12.2149 37.0039 12.3508 37.1727 12.4281L41.5008 14.4258L39.5273 16.3992C35.9008 16.2375 32.9812 13.318 32.8195 9.69143L34.793 7.71799Z" fill="#890C25"/>
<path d="M10.4047 38.3225L9.91016 39.8038C11.1234 40.2092 12.032 41.1897 12.3422 42.4303L12.5242 43.1592L14.0391 42.7795L13.857 42.0514C13.418 40.2905 12.1273 38.8959 10.4047 38.3225Z" fill="#890C25"/>
<path d="M47.1211 34.375C45.425 34.375 43.7266 34.7492 42.1875 35.4609V33.6711L43.5336 26.943C43.6766 26.2242 43.75 25.4883 43.75 24.7539C43.75 23.5969 42.8094 22.6562 41.6523 22.6562C40.6883 22.6562 39.8508 23.3094 39.618 24.2453L39.0625 26.4656V23.4375C39.0625 22.1453 38.0109 21.0938 36.7188 21.0938C36.6125 21.0938 36.5094 21.1117 36.4062 21.1258C36.3016 21.1102 36.1969 21.0938 36.0875 21.0938C35.2086 21.0938 34.4172 21.6156 34.0711 22.4234L34.0367 22.5031L34.3656 18.8836C34.3719 18.8172 34.375 18.7492 34.375 18.682C34.375 17.4273 33.3539 16.4062 32.0992 16.4062C31.3781 16.4062 30.7484 16.832 30.4688 17.4648V17.1875C30.4688 15.8953 29.4172 14.8438 28.125 14.8438C26.8328 14.8438 25.7812 15.8953 25.7812 17.1875V20.2156L25.2258 17.9953C24.9922 17.0594 24.1555 16.4062 23.1914 16.4062C22.0344 16.4062 21.0938 17.3469 21.0938 18.5039C21.0938 19.2383 21.1672 19.975 21.3102 20.693L22.6562 27.4211V29.2109C21.6203 28.7328 20.5109 28.4211 19.3805 28.2586L19.5227 26.6961C19.5281 26.6297 19.5312 26.5617 19.5312 26.4945C19.5312 25.2398 18.5102 24.2188 17.2555 24.2188C16.5344 24.2188 15.9047 24.6445 15.625 25.2773V25C15.625 23.7078 14.5734 22.6562 13.2812 22.6562C11.9891 22.6562 10.9375 23.7078 10.9375 25V28.0281L10.382 25.8078C10.1484 24.8719 9.31172 24.2188 8.34766 24.2188C7.19063 24.2188 6.25 25.1594 6.25 26.3164C6.25 27.0508 6.32344 27.7875 6.46641 28.5055L7.8125 35.2336V37.0234C6.27266 36.3117 4.57422 35.9375 2.87891 35.9375C1.72188 35.9375 0.78125 36.8781 0.78125 38.0352C0.78125 38.9992 1.43437 39.8367 2.37031 40.0703C3.55391 40.3648 4.57734 41.0867 5.25391 42.1023C5.53281 42.5219 5.87891 42.8867 6.27969 43.1867L7.65625 44.2187C8.24375 44.6594 8.59375 45.3602 8.59375 46.0938V49.2188H10.1562V46.0938C10.1562 44.8719 9.57266 43.7023 8.59375 42.9688L7.21641 41.9359C6.95781 41.7422 6.73516 41.5063 6.55391 41.2359C5.66094 39.8961 4.30938 38.9437 2.74844 38.5547C2.51094 38.4937 2.34375 38.2805 2.34375 38.0352C2.34375 37.7398 2.58359 37.5 2.87891 37.5C4.45312 37.5 6.02812 37.8727 7.43594 38.5758L8.24453 38.9805C8.4875 39.1008 8.77422 39.0898 9.00469 38.9461C9.23438 38.8031 9.375 38.5523 9.375 38.2812V35.1562C9.375 35.1055 9.36953 35.0531 9.35938 35.0031L7.99844 28.1984C7.875 27.5813 7.8125 26.9477 7.8125 26.3164C7.8125 26.0211 8.05234 25.7812 8.34766 25.7812C8.59297 25.7812 8.80703 25.9484 8.86719 26.1867L10.9617 34.5648C11.057 34.9477 11.4281 35.2039 11.8148 35.1508C12.2055 35.1023 12.5 34.7695 12.5 34.375V25C12.5 24.5688 12.85 24.2188 13.2812 24.2188C13.7125 24.2188 14.0625 24.5688 14.0625 25V34.375C14.0625 34.782 14.3742 35.1203 14.7797 35.1539C15.1797 35.182 15.5469 34.9047 15.6141 34.5031L16.1055 31.5547C16.3836 31.8922 16.7648 32.1461 17.2141 32.2578C17.2922 32.2773 17.3633 32.3141 17.4406 32.3367L17.1906 35.0852C17.1562 35.468 17.4047 35.8188 17.7773 35.9141C17.8414 35.9297 17.9055 35.9375 17.9688 35.9375C18.2758 35.9375 18.5617 35.757 18.6867 35.4641L19.5016 33.5625C19.7211 33.7844 19.9227 34.0258 20.0984 34.2898C20.2008 34.443 20.3203 34.5805 20.4398 34.7187L18.8328 37.932C18.7781 38.0398 18.75 38.1602 18.75 38.2812V42.6453C18.75 43.1492 18.5539 43.6227 18.1977 43.9789C17.5461 44.6305 17.1875 45.4961 17.1875 46.4172V49.2188H18.75V46.4172C18.75 45.9133 18.9461 45.4398 19.3023 45.0836C19.9539 44.432 20.3125 43.5664 20.3125 42.6453V38.4656L21.6586 35.7742L22.5 36.4062C23.0875 36.8469 23.4375 37.5477 23.4375 38.2812L23.4367 39.8438H21.875C21.443 39.8438 21.0938 40.193 21.0938 40.625V44.5312C21.0938 44.9633 21.443 45.3125 21.875 45.3125V49.2188H23.4375V45.3125H33.5938V49.2188H35.1562V45.3125C35.5883 45.3125 35.9375 44.9633 35.9375 44.5312V40.625C35.9375 40.193 35.5883 39.8438 35.1562 39.8438H33.5938V38.6047C33.5938 38.1008 33.7898 37.6273 34.1461 37.2711C34.7977 36.6195 35.1562 35.7539 35.1562 34.8328V30.6531L37.5 25.9656V32.8125C37.5 33.207 37.7945 33.5398 38.1859 33.5875C38.5703 33.6414 38.943 33.3844 39.0391 33.0016L41.1336 24.6234C41.1938 24.3859 41.4062 24.2188 41.6523 24.2188C41.9477 24.2188 42.1875 24.4586 42.1875 24.7539C42.1875 25.3859 42.125 26.0188 42.0016 26.6359L40.6406 33.4406C40.6305 33.4906 40.625 33.543 40.625 33.5938V36.7188C40.625 36.9898 40.7656 37.2406 40.9961 37.3836C41.2258 37.5266 41.5125 37.5375 41.7563 37.418L42.5648 37.0133C43.9727 36.3102 45.5477 35.9375 47.1219 35.9375C47.4164 35.9375 47.6562 36.1773 47.6562 36.4727C47.6562 36.718 47.4891 36.932 47.2508 36.9914C45.6898 37.3812 44.3375 38.3336 43.4453 39.6734C43.2648 39.9445 43.0414 40.1797 42.782 40.3742L41.4055 41.4062C40.4273 42.1398 39.8438 43.3094 39.8438 44.5312V49.2188H41.4062V44.5312C41.4062 43.7977 41.7563 43.0969 42.343 42.6562L43.7188 41.625C44.1211 41.3242 44.4664 40.9594 44.7453 40.5398C45.4219 39.5242 46.4469 38.8023 47.6289 38.507C48.5656 38.2734 49.2188 37.4367 49.2188 36.4727C49.2188 35.3156 48.2781 34.375 47.1211 34.375ZM17.0375 25.9664C17.0555 25.8594 17.1469 25.7812 17.2555 25.7812C17.6492 25.7812 17.9688 26.1008 17.9656 26.5594L17.8227 28.1305C17.7891 28.1305 17.7555 28.125 17.7219 28.125C17.318 28.125 16.9445 28.2453 16.6242 28.4438L17.0375 25.9664ZM34.375 43.75H22.6562V41.4062H34.375V43.75ZM36.3844 24.7023L33.6758 30.1195C33.6219 30.2273 33.5938 30.3477 33.5938 30.4688V34.8328C33.5938 35.3367 33.3977 35.8102 33.0414 36.1664C32.3898 36.818 32.0312 37.6836 32.0312 38.6047V39.8438H24.9992L25 38.2812C25 37.0594 24.4164 35.8898 23.4375 35.1562L22.0602 34.1234C21.8016 33.9297 21.5789 33.6938 21.3977 33.4234C20.5047 32.0836 19.1531 31.1312 17.5922 30.7422C17.3547 30.6812 17.1875 30.468 17.1875 30.2227C17.1875 29.9273 17.4273 29.6875 17.7227 29.6875C19.2969 29.6875 20.8719 30.0602 22.2797 30.7633L23.0883 31.168C23.3305 31.2875 23.618 31.2773 23.8484 31.1336C24.0781 30.9906 24.2188 30.7398 24.2188 30.4688V27.3438C24.2188 27.293 24.2133 27.2406 24.2031 27.1906L22.8422 20.3859C22.7188 19.7687 22.6562 19.1352 22.6562 18.5039C22.6562 18.2086 22.8961 17.9688 23.1914 17.9688C23.4367 17.9688 23.6508 18.1359 23.7109 18.3742L25.8055 26.7523C25.9016 27.1359 26.2719 27.3914 26.6586 27.3383C27.0492 27.2898 27.3438 26.957 27.3438 26.5625V17.1875C27.3438 16.7563 27.6938 16.4062 28.125 16.4062C28.5562 16.4062 28.9062 16.7563 28.9062 17.1875V26.5625C28.9062 26.9695 29.218 27.3078 29.6234 27.3414C30.0289 27.3719 30.3914 27.0922 30.4578 26.6906L31.8805 18.1539C31.8992 18.0469 31.9906 17.9688 32.0992 17.9688C32.493 17.9688 32.8125 18.2883 32.8094 18.7469L32.0344 27.2727C32 27.6555 32.2484 28.0063 32.6211 28.1016C32.9945 28.193 33.3797 28.0047 33.5305 27.6516L35.507 23.0398C35.607 22.807 35.8344 22.657 36.0875 22.657C36.4359 22.6562 36.7188 22.9391 36.7188 23.2875C36.7188 23.7766 36.6039 24.2656 36.3844 24.7023Z" fill="#890C25"/>
<path d="M39.5961 36.76C37.8742 37.3334 36.5836 38.7288 36.143 40.4881L35.9609 41.217L37.4758 41.5967L37.6578 40.867C37.968 39.6272 38.8773 38.646 40.0898 38.2413L39.5961 36.76Z" fill="#890C25"/>
<path d="M25.2484 30.51L24.7539 31.9913C25.9672 32.3967 26.8758 33.3772 27.1859 34.6178L27.368 35.3467L28.8828 34.967L28.7008 34.2389C28.2617 32.478 26.9711 31.0834 25.2484 30.51Z" fill="#890C25"/>
</svg>
