<svg width="48" height="53" viewBox="0 0 48 53" fill="none" xmlns="http://www.w3.org/2000/svg">
<path d="M1 9.69721C1 9.69721 19.059 -3.64479 37.04 2.72121C37.04 2.72121 37.145 3.26321 37.34 4.23321C37.159 4.26921 36.983 4.34221 36.825 4.45821C36.247 4.88521 36.125 5.69921 36.552 6.27721C36.863 6.69821 37.379 6.8732 37.86 6.7742C38.084 7.8532 38.351 9.1172 38.655 10.5232C38.505 10.5642 38.359 10.6302 38.227 10.7282C37.649 11.1552 37.527 11.9692 37.954 12.5472C38.253 12.9522 38.743 13.1272 39.208 13.0522C39.474 14.2582 39.761 15.5342 40.067 16.8652C39.929 16.9072 39.795 16.9682 39.673 17.0582C39.096 17.4852 38.974 18.2992 39.4 18.8772C39.699 19.2812 40.187 19.4562 40.651 19.3822C40.938 20.6022 41.237 21.8532 41.548 23.1252C41.385 23.1652 41.227 23.2372 41.084 23.3422C40.507 23.7692 40.384 24.5832 40.812 25.1612C41.135 25.5982 41.679 25.7732 42.174 25.6482C42.511 26.9872 42.859 28.3382 43.217 29.6882C43.039 29.7252 42.865 29.7972 42.709 29.9132C42.131 30.3402 42.009 31.1542 42.437 31.7322C42.78 32.1962 43.372 32.3602 43.891 32.1872C44.285 33.6242 44.689 35.0502 45.1 36.4462C44.933 36.4852 44.771 36.5572 44.624 36.6662C44.047 37.0932 43.924 37.9072 44.351 38.4852C44.703 38.9622 45.318 39.1222 45.847 38.9262C46.261 40.2652 46.681 41.5662 47.105 42.8122C47.105 42.8122 27.32 43.3022 14.9 52.1942L1 9.69721Z" stroke="#F9FBFC" stroke-opacity="0.3" stroke-width="1.3" stroke-miterlimit="10" stroke-linejoin="round"/>
<path d="M33.4798 7.4954C33.4798 7.4954 21.1478 5.92641 7.30078 14.0254" stroke="#F9FBFC" stroke-opacity="0.3" stroke-width="1.3" stroke-miterlimit="10" stroke-linejoin="round"/>
<path d="M35.5032 13.9798C35.5032 13.9798 23.1712 12.4108 9.32422 20.5098" stroke="#F9FBFC" stroke-opacity="0.3" stroke-width="1.3" stroke-miterlimit="10" stroke-linejoin="round"/>
<path d="M37.136 20.6849C37.136 20.6849 24.804 19.1159 10.957 27.2149" stroke="#F9FBFC" stroke-opacity="0.3" stroke-width="1.3" stroke-miterlimit="10" stroke-linejoin="round"/>
</svg>
