<svg width="24" height="24" viewBox="0 0 24 24" fill="none" xmlns="http://www.w3.org/2000/svg">
<path d="M12.9998 0.999644C12.9998 0.734427 13.1052 0.480073 13.2927 0.292537C13.4803 0.105001 13.7346 -0.000356157 13.9998 -0.000356157C16.6511 0.00255544 19.193 1.05706 21.0677 2.93179C22.9424 4.80653 23.9969 7.34837 23.9998 9.99965C23.9998 10.2649 23.8945 10.5192 23.7069 10.7068C23.5194 10.8943 23.2651 10.9996 22.9998 10.9996C22.7346 10.9996 22.4803 10.8943 22.2927 10.7068C22.1052 10.5192 21.9998 10.2649 21.9998 9.99965C21.9975 7.87864 21.1538 5.8452 19.6541 4.34542C18.1543 2.84565 16.1208 2.00203 13.9998 1.99964C13.7346 1.99964 13.4803 1.89429 13.2927 1.70675C13.1052 1.51921 12.9998 1.26486 12.9998 0.999644ZM13.9998 5.99964C15.0607 5.99964 16.0781 6.42107 16.8283 7.17122C17.5784 7.92136 17.9998 8.93878 17.9998 9.99965C17.9998 10.2649 18.1052 10.5192 18.2927 10.7068C18.4803 10.8943 18.7346 10.9996 18.9998 10.9996C19.2651 10.9996 19.5194 10.8943 19.7069 10.7068C19.8945 10.5192 19.9998 10.2649 19.9998 9.99965C19.9983 8.40883 19.3656 6.88363 18.2407 5.75876C17.1159 4.63388 15.5907 4.00123 13.9998 3.99964C13.7346 3.99964 13.4803 4.105 13.2927 4.29254C13.1052 4.48007 12.9998 4.73443 12.9998 4.99964C12.9998 5.26486 13.1052 5.51921 13.2927 5.70675C13.4803 5.89429 13.7346 5.99964 13.9998 5.99964ZM23.0928 16.7386C23.6723 17.3198 23.9978 18.107 23.9978 18.9276C23.9978 19.7483 23.6723 20.5355 23.0928 21.1166L22.1828 22.1656C13.9928 30.0066 -5.93713 10.0816 1.78286 1.86564L2.93286 0.865644C3.51463 0.302321 4.29479 -0.00930708 5.10456 -0.00182132C5.91433 0.00566445 6.6886 0.331662 7.25986 0.905644C7.29086 0.936644 9.14385 3.34364 9.14385 3.34364C9.69368 3.92127 9.99976 4.68857 9.99845 5.48605C9.99715 6.28352 9.68857 7.04982 9.13685 7.62564L7.97885 9.08165C8.6197 10.6388 9.56192 12.0539 10.7514 13.2457C11.9408 14.4376 13.354 15.3827 14.9098 16.0266L16.3748 14.8616C16.9507 14.3104 17.7169 14.0021 18.5141 14.001C19.3114 13.9999 20.0784 14.306 20.6558 14.8556C20.6558 14.8556 23.0618 16.7076 23.0928 16.7386ZM21.7168 18.1926C21.7168 18.1926 19.3238 16.3516 19.2928 16.3206C19.0868 16.1164 18.8085 16.0018 18.5183 16.0018C18.2282 16.0018 17.9499 16.1164 17.7438 16.3206C17.7168 16.3486 15.6998 17.9556 15.6998 17.9556C15.5639 18.0638 15.4022 18.1348 15.2305 18.1614C15.0588 18.1881 14.8832 18.1695 14.7208 18.1076C12.7053 17.3572 10.8746 16.1824 9.35269 14.6627C7.83079 13.1431 6.65326 11.3141 5.89986 9.29965C5.83306 9.1351 5.81128 8.95573 5.83676 8.77998C5.86224 8.60423 5.93407 8.43844 6.04486 8.29965C6.04486 8.29965 7.65185 6.28164 7.67885 6.25564C7.88312 6.04963 7.99773 5.77126 7.99773 5.48114C7.99773 5.19103 7.88312 4.91266 7.67885 4.70664C7.64785 4.67664 5.80686 2.28164 5.80686 2.28164C5.59776 2.09415 5.32486 1.99374 5.04411 2.00099C4.76335 2.00824 4.496 2.12261 4.29686 2.32064L3.14686 3.32064C-2.49513 10.1046 14.7758 26.4176 20.7208 20.7996L21.6318 19.7496C21.8453 19.5519 21.9735 19.2789 21.9894 18.9883C22.0053 18.6978 21.9075 18.4125 21.7168 18.1926Z" fill="#374957"/>
</svg>
