<svg width="52" height="56" viewBox="0 0 52 56" fill="none" xmlns="http://www.w3.org/2000/svg">
<path d="M48.9485 24.3874L44.6128 22.0224C43.7178 21.5342 42.5968 21.8642 42.1088 22.759C41.6206 23.6538 41.9503 24.775 42.8454 25.2632L47.1811 27.6282C47.3617 27.7266 47.3996 27.8827 47.3996 27.9964C47.3996 28.1101 47.3617 28.2658 47.1811 28.3645L4.34672 51.7287C4.17347 51.8229 4.02557 51.7766 3.9318 51.721C3.83829 51.6654 3.72656 51.5579 3.72656 51.3605V4.63197C3.72656 4.4346 3.83829 4.32706 3.9318 4.27144C4.02557 4.21582 4.17372 4.16956 4.34672 4.26381L34.9667 20.9657C35.862 21.454 36.9827 21.1239 37.4707 20.2291C37.9589 19.3343 37.6292 18.2131 36.7341 17.7249L6.11416 1.023C4.82758 0.321144 3.30722 0.348952 2.04747 1.09708C0.787219 1.8452 0.0351562 3.16648 0.0351562 4.63197V51.3602C0.0351562 52.8257 0.787465 54.147 2.04747 54.8951C2.69961 55.2822 3.42141 55.4764 4.14443 55.4764C4.81848 55.4764 5.49376 55.3076 6.11416 54.969L48.9485 31.6048C50.27 30.884 51.091 29.5012 51.091 27.9961C51.091 26.491 50.27 25.1082 48.9485 24.3874Z" fill="white"/>
</svg>
