<svg width="126" height="126" viewBox="0 0 126 126" fill="none" xmlns="http://www.w3.org/2000/svg">
<g clip-path="url(#clip0_1314_11719)">
<path d="M107.548 18.4524C95.6485 6.55323 79.8279 0 63 0C46.1721 0 30.3515 6.55323 18.4521 18.4524C6.55323 30.3515 0 46.1721 0 63C0 79.8279 6.55323 95.6485 18.4521 107.548C30.3515 119.447 46.1721 126 63 126C79.8279 126 95.6485 119.447 107.548 107.548C119.447 95.6485 126 79.8279 126 63C126 46.1721 119.447 30.3515 107.548 18.4524ZM104.938 104.938C93.7356 116.14 78.842 122.309 63 122.309C47.158 122.309 32.2644 116.14 21.0624 104.938C9.86048 93.7356 3.69141 78.842 3.69141 63C3.69141 47.158 9.86048 32.2644 21.0624 21.0624C32.2644 9.86048 47.158 3.69141 63 3.69141C78.842 3.69141 93.7356 9.86048 104.938 21.0624C116.14 32.2644 122.309 47.158 122.309 63C122.309 78.842 116.14 93.7356 104.938 104.938Z" fill="white"/>
<path d="M79.4204 11.604C77.8823 11.1131 76.3026 10.6868 74.7259 10.3371C73.7307 10.1164 72.7451 10.7444 72.5246 11.7396C72.3041 12.7348 72.9316 13.7207 73.9268 13.9412C75.3948 14.2665 76.8654 14.6635 78.2977 15.1207C78.4845 15.1803 78.6735 15.2086 78.8595 15.2086C79.6411 15.2086 80.3669 14.708 80.6174 13.9237C80.9275 12.9526 80.3917 11.9141 79.4204 11.604Z" fill="white"/>
<path d="M43.3373 109.255C32.1354 104.488 23.0442 95.8206 17.7381 84.851C17.2942 83.9333 16.1905 83.5494 15.2728 83.9931C14.3551 84.4371 13.9712 85.5408 14.4151 86.4585C20.1102 98.2321 29.8681 107.534 41.8915 112.652C42.1273 112.752 42.3724 112.8 42.6135 112.8C43.3314 112.8 44.0138 112.379 44.3126 111.676C44.712 110.739 44.2752 109.655 43.3373 109.255Z" fill="white"/>
<path d="M111.586 39.5465C106.717 29.4788 98.6245 20.9817 88.7985 15.6205C87.9037 15.132 86.7825 15.4618 86.2942 16.3566C85.806 17.2514 86.1355 18.3726 87.0305 18.8608C96.186 23.856 103.727 31.7731 108.263 41.1535C108.581 41.8123 109.24 42.1959 109.926 42.1959C110.195 42.1959 110.469 42.1366 110.728 42.0114C111.646 41.5679 112.03 40.4642 111.586 39.5465Z" fill="white"/>
</g>
<defs>
<clipPath id="clip0_1314_11719">
<rect width="126" height="126" fill="white"/>
</clipPath>
</defs>
</svg>
