<svg width="56" height="56" viewBox="0 0 56 56" fill="none" xmlns="http://www.w3.org/2000/svg">
<g clip-path="url(#clip0_1043_11476)">
<path d="M47.7991 8.20105C42.5105 2.91255 35.4791 0 28 0C20.5209 0 13.4895 2.91255 8.20094 8.20105C2.91255 13.4895 0 20.5209 0 28C0 35.4791 2.91255 42.5105 8.20094 47.799C13.4895 53.0875 20.5209 56 28 56C35.4791 56 42.5105 53.0875 47.7991 47.799C53.0875 42.5105 56 35.4791 56 28C56 20.5209 53.0875 13.4895 47.7991 8.20105ZM46.6389 46.6389C41.6603 51.6176 35.0409 54.3594 28 54.3594C20.9591 54.3594 14.3397 51.6176 9.36108 46.6389C4.38244 41.6603 1.64062 35.0409 1.64062 28C1.64062 20.9591 4.38244 14.3397 9.36108 9.36108C14.3397 4.38244 20.9591 1.64062 28 1.64062C35.0409 1.64062 41.6603 4.38244 46.6389 9.36108C51.6176 14.3397 54.3594 20.9591 54.3594 28C54.3594 35.0409 51.6176 41.6603 46.6389 46.6389Z" fill="white"/>
<path d="M40.8659 26.3948L38.9389 25.3437C38.5411 25.1267 38.0429 25.2734 37.826 25.6711C37.609 26.0688 37.7556 26.5671 38.1534 26.7841L40.0803 27.8352C40.1606 27.8789 40.1774 27.9483 40.1774 27.9988C40.1774 28.0493 40.1606 28.1186 40.0803 28.1624L21.0428 38.5465C20.9658 38.5884 20.9001 38.5678 20.8584 38.5431C20.8169 38.5184 20.7672 38.4706 20.7672 38.3829V17.6146C20.7672 17.5269 20.8169 17.4791 20.8584 17.4544C20.9001 17.4297 20.9659 17.4091 21.0428 17.451L34.6517 24.8741C35.0496 25.0911 35.5477 24.9444 35.7646 24.5467C35.9816 24.149 35.835 23.6507 35.4372 23.4337L21.8284 16.0107C21.2566 15.6987 20.5808 15.7111 20.0209 16.0436C19.4608 16.3761 19.1266 16.9633 19.1266 17.6146V38.3828C19.1266 39.0341 19.4609 39.6213 20.0209 39.9538C20.3108 40.1259 20.6316 40.2122 20.9529 40.2122C21.2525 40.2122 21.5526 40.1371 21.8284 39.9866L40.8659 29.6026C41.4532 29.2822 41.8181 28.6676 41.8181 27.9987C41.8181 27.3298 41.4532 26.7152 40.8659 26.3948Z" fill="white"/>
<path d="M35.2978 5.15692C34.6142 4.93871 33.9121 4.74928 33.2113 4.59385C32.769 4.49575 32.331 4.77487 32.233 5.21718C32.135 5.6595 32.4139 6.09765 32.8562 6.19565C33.5086 6.34025 34.1623 6.51667 34.7988 6.71989C34.8818 6.74635 34.9658 6.75893 35.0485 6.75893C35.3959 6.75893 35.7184 6.53646 35.8298 6.18789C35.9676 5.75629 35.7295 5.29473 35.2978 5.15692Z" fill="white"/>
<path d="M19.2612 48.5577C14.2826 46.4387 10.242 42.5867 7.8838 37.7113C7.68649 37.3035 7.19594 37.1329 6.78808 37.3301C6.38022 37.5274 6.20959 38.0179 6.40691 38.4258C8.93806 43.6585 13.2749 47.7929 18.6186 50.0673C18.7234 50.1119 18.8323 50.1331 18.9395 50.1331C19.2586 50.1331 19.5619 49.9458 19.6947 49.6338C19.8722 49.2169 19.678 48.7351 19.2612 48.5577Z" fill="white"/>
<path d="M49.5941 17.576C47.4301 13.1015 43.8334 9.32496 39.4663 6.94223C39.0686 6.72512 38.5703 6.87168 38.3533 7.26937C38.1363 7.66706 38.2828 8.16537 38.6806 8.38237C42.7496 10.6025 46.101 14.1212 48.1171 18.2902C48.2587 18.583 48.5514 18.7535 48.8562 18.7535C48.9759 18.7535 49.0977 18.7272 49.2127 18.6715C49.6206 18.4744 49.7913 17.9839 49.5941 17.576Z" fill="white"/>
</g>
<defs>
<clipPath id="clip0_1043_11476">
<rect width="56" height="56" fill="white"/>
</clipPath>
</defs>
</svg>
