<svg width="50" height="50" viewBox="0 0 50 50" fill="none" xmlns="http://www.w3.org/2000/svg">
<path d="M25 25.8301C23.3846 25.8301 22.0703 27.1443 22.0703 28.7598C22.0703 30.3752 23.3846 31.6895 25 31.6895C26.6154 31.6895 27.9297 30.3752 27.9297 28.7598C27.9297 27.1443 26.6154 25.8301 25 25.8301ZM25 30.2246C24.1923 30.2246 23.5352 29.5675 23.5352 28.7598C23.5352 27.9521 24.1923 27.2949 25 27.2949C25.8077 27.2949 26.4648 27.9521 26.4648 28.7598C26.4648 29.5675 25.8077 30.2246 25 30.2246Z" fill="#890C25"/>
<path d="M48.4375 47.0704V32.422H50V28.0274H47.0703V22.6795L38.6742 10.0354H27.3899L25.7324 7.51885V4.39453H31.5918V0H24.2676V7.51875L22.6101 10.0354H11.3259L2.92969 22.6796V28.0275H0V32.4221H1.5626V47.0705H3.02744V32.4221H16.2109V48.5352H0V50H50V48.5352H33.7891V32.422H46.9727V47.0704H48.4375ZM25.7324 1.46484H30.127V2.92969H25.7324V1.46484ZM33.7891 28.0274V23.6329H45.6055V28.0274H33.7891ZM37.8886 11.5003L44.9723 22.1682H35.2539V19.2385H33.4513L28.3547 11.5003H37.8886ZM31.6973 19.2385H18.3027L25 9.06992L31.6973 19.2385ZM12.1114 11.5003H21.6452L16.5486 19.2385H14.7461V22.1682H5.02764L12.1114 11.5003ZM4.39453 23.633H16.2109V28.0275H4.39453V23.633ZM1.46484 30.9571V29.4923H16.2109V30.9571H1.46484ZM26.4648 48.5352H23.5352V36.8164C23.5352 36.0087 24.1923 35.3516 25 35.3516C25.8077 35.3516 26.4648 36.0087 26.4648 36.8164V48.5352ZM27.9297 48.5352V36.8164C27.9297 35.201 26.6154 33.8867 25 33.8867C23.3846 33.8867 22.0703 35.201 22.0703 36.8164V48.5352H17.6758V23.633H24.2676V22.1682H16.2109V20.7033H33.7891V22.1682H25.7324V23.633H32.3242V48.5352H27.9297ZM33.7891 29.4923H48.5352V30.9571H33.7891V29.4923Z" fill="#890C25"/>
<path d="M12.5488 33.8867C11.3373 33.8867 10.3516 34.8725 10.3516 36.084V47.0703H14.7461V36.084C14.7461 34.8724 13.7604 33.8867 12.5488 33.8867ZM13.2812 45.6055H11.8164V36.084C11.8164 35.6801 12.1449 35.3516 12.5488 35.3516C12.9527 35.3516 13.2812 35.6801 13.2812 36.084V45.6055Z" fill="#890C25"/>
<path d="M35.2539 36.084V47.0703H39.6484V36.084C39.6484 34.8725 38.6627 33.8867 37.4512 33.8867C36.2396 33.8867 35.2539 34.8724 35.2539 36.084ZM38.1836 36.084V45.6055H36.7188V36.084C36.7188 35.6801 37.0473 35.3516 37.4512 35.3516C37.8551 35.3516 38.1836 35.6801 38.1836 36.084Z" fill="#890C25"/>
<path d="M6.68945 33.8867C5.47793 33.8867 4.49219 34.8725 4.49219 36.084V47.0703H8.88682V36.084C8.88682 34.8724 7.90107 33.8867 6.68945 33.8867ZM7.42197 45.6055H5.95703V36.084C5.95703 35.6801 6.28555 35.3516 6.68945 35.3516C7.09336 35.3516 7.42197 35.6801 7.42197 36.084V45.6055Z" fill="#890C25"/>
<path d="M41.1133 36.084V47.0703H45.5078V36.084C45.5078 34.8725 44.5221 33.8867 43.3105 33.8867C42.099 33.8867 41.1133 34.8724 41.1133 36.084ZM44.043 36.084V45.6055H42.5781V36.084C42.5781 35.6801 42.9066 35.3516 43.3105 35.3516C43.7145 35.3516 44.043 35.6801 44.043 36.084Z" fill="#890C25"/>
<path d="M22.8047 16.3086H24.2695V17.7734H22.8047V16.3086Z" fill="#890C25"/>
<path d="M25.7344 16.3086H27.1992V17.7734H25.7344V16.3086Z" fill="#890C25"/>
<path d="M29.3945 25.0977H30.8594V26.5625H29.3945V25.0977Z" fill="#890C25"/>
<path d="M36.8164 15.8948H38.2812V14.4299H36.8164V12.9651H35.3516V14.4299H36.8164V15.8948Z" fill="#890C25"/>
</svg>
