<svg width="68" height="78" viewBox="0 0 68 78" fill="none" xmlns="http://www.w3.org/2000/svg">
<path fill-rule="evenodd" clip-rule="evenodd" d="M17.5062 12.5089V30.2751C23.5491 29.9327 28.8266 32.8131 33.3454 38.9098V24.3866C33.3454 16.0675 25.7111 11.2869 17.5062 12.5089ZM24.5764 14.2278C22.7434 13.6235 20.7224 13.3952 18.6879 13.563V18.4242L19.3056 14.127C20.9775 13.845 22.6091 13.8383 24.5764 14.2278ZM50.4536 12.5089V30.2751C44.4107 29.9327 39.1332 32.8131 34.6144 38.9098V24.3866C34.6144 16.0675 42.2419 11.2869 50.4536 12.5089ZM43.3767 14.2278C45.2097 13.6235 47.2307 13.3952 49.2652 13.563V18.4242L48.6475 14.127C46.9823 13.845 45.3507 13.8383 43.3767 14.2278ZM51.7159 15.5371H52.4747C53.4214 15.5371 54.1935 16.3092 54.1935 17.2559V32.1753C54.1935 32.699 53.9787 33.1556 53.5758 33.4913C53.1729 33.827 52.6895 33.9546 52.1725 33.8673C46.5727 32.8669 41.3892 34.3709 36.622 38.3928C39.1265 35.3579 42.2621 32.8199 46.1766 31.9C47.553 31.5777 48.963 31.4636 50.373 31.5441L51.7092 31.618V15.5371H51.7159ZM56.0735 32.2693L56.0601 26.5822C56.1071 25.1856 56.7853 24.7022 57.8797 24.8298V22.6879C57.967 20.9489 60.2432 20.8213 60.1425 22.8356C58.9742 23.5205 58.5444 25.0043 58.3363 26.2532C58.0274 28.1064 58.0476 30.1878 58.0879 32.0611C57.5306 31.947 56.9263 31.9873 56.4563 32.1216C56.3287 32.1686 56.2011 32.2156 56.0735 32.2693ZM44.8673 54.655V57.7772H35.0106V50.7808C35.1046 45.9867 39.4353 40.2191 45.0083 39.9237H48.7213L55.8654 33.2093C57.0539 32.1619 59.5717 32.7796 58.719 34.0687L50.0038 45.3153V46.4366L59.2763 34.4716L59.2897 34.4515C59.5516 34.0553 59.659 33.5853 59.4912 33.1287L59.4643 33.0616C59.3099 32.7527 59.0883 32.5244 58.766 32.4304C58.6519 26.8709 59.0547 23.0572 61.6935 23.1646V31.947C61.7002 33.0616 61.7069 33.9479 61.3376 34.8006C60.2365 37.2111 58.9204 39.7894 58.0341 42.032C57.5306 43.2607 56.8188 44.382 55.8385 45.369C54.3882 46.6381 52.1188 47.9675 50.0105 49.3238C47.3113 51.0695 44.8874 52.869 44.8673 54.655ZM11.8863 32.2693L11.8997 26.5822C11.8527 25.1856 11.1745 24.7022 10.0801 24.8298V22.6879C9.99279 20.9489 7.71662 20.8213 7.81734 22.8356C8.98564 23.5205 9.41535 25.0043 9.6235 26.2532C9.93236 28.1064 9.91223 30.1878 9.87194 32.0611C10.4292 31.947 11.0335 31.9873 11.5035 32.1216C11.6311 32.1686 11.7587 32.2156 11.8863 32.2693ZM23.0925 54.655V57.7772H32.9492V50.7808C32.8552 45.9867 28.5245 40.2191 22.9515 39.9237H19.2318L12.0877 33.2093C10.8992 32.1619 8.38135 32.7796 9.23408 34.0687L17.9493 45.3153V46.4366L8.67678 34.4716L8.66336 34.4515C8.4015 34.0553 8.29407 33.5853 8.46192 33.1287L8.48878 33.0616C8.64321 32.7527 8.86477 32.5244 9.18706 32.4304C9.30121 26.8709 8.89836 23.0572 6.25961 23.1646V31.947C6.25289 33.0616 6.24618 33.9479 6.61547 34.8006C7.71663 37.2111 9.03264 39.7894 9.91894 42.032C10.4225 43.2607 11.1342 44.382 12.1145 45.369C13.5648 46.6381 15.8343 47.9675 17.9426 49.3238C20.6485 51.0695 23.0724 52.869 23.0925 54.655ZM33.9765 0L34.9031 2.86703L37.9112 2.86032L35.4738 4.62621L36.4071 7.48653L33.9765 5.71393L31.5459 7.48653L32.4792 4.62621L30.0419 2.86032L33.05 2.86703L33.9765 0ZM25.5567 2.83346L26.2483 4.97535L28.4976 4.96864L26.678 6.28465L27.3763 8.41983L25.5567 7.09709L23.7371 8.41983L24.4354 6.28465L22.6158 4.96864L24.8651 4.97535L25.5567 2.83346ZM19.0102 6.02279L19.5608 7.72153L21.3468 7.71482L19.9032 8.76226L20.4605 10.461L19.0169 9.40684L17.5733 10.461L18.1306 8.76226L16.687 7.71482L18.473 7.72153L19.0102 6.02279ZM42.4031 2.83346L41.7115 4.97535L39.4622 4.96864L41.2818 6.28465L40.5835 8.41983L42.4031 7.09709L44.2227 8.41983L43.5244 6.28465L45.344 4.96864L43.0947 4.97535L42.4031 2.83346ZM48.9496 6.02279L48.399 7.72153L46.613 7.71482L48.0566 8.76226L47.4993 10.461L48.9429 9.40684L50.3865 10.461L49.8292 8.76226L51.2728 7.71482L49.4868 7.72153L48.9496 6.02279ZM16.2372 15.5371H15.4784C14.5317 15.5371 13.7596 16.3092 13.7596 17.2559V32.1753C13.7596 32.699 13.9744 33.1556 14.3773 33.4913C14.7801 33.827 15.2636 33.9546 15.7806 33.8673C21.3804 32.8669 26.5639 34.3709 31.3311 38.3928C28.8266 35.3579 25.691 32.8199 21.7765 31.9C20.4001 31.5777 18.9901 31.4636 17.58 31.5441L16.2439 31.618V15.5371H16.2372Z" fill="#890C25"/>
<path d="M67.9495 62.1393H66.0023L63.9343 66.2888L61.8797 62.1393H59.9191L63.0614 68.4441V70.9888H64.8071V68.4441L67.9495 62.1393ZM59.0328 62.1393H52.8421V63.885H55.0646V70.9821H56.8103V63.885H59.0328V62.1393ZM50.1027 70.9821H51.8484V62.1326H50.1027V70.9821ZM47.6922 66.0941C46.5306 65.4629 44.429 65.7852 44.4492 64.6102C44.4492 64.4222 44.5902 64.1536 44.9057 63.979C45.2146 63.8044 46.1546 63.4821 47.9138 64.4893L48.7866 62.9853C46.3292 61.582 44.758 62.0587 44.0396 62.4683C43.2339 62.9316 42.7101 63.7373 42.7034 64.5833C42.6833 66.0672 43.6904 66.9803 45.322 67.2489C45.8323 67.3295 46.45 67.4034 46.873 67.6384C47.4908 67.9606 47.5915 68.8335 46.8865 69.1625C45.9263 69.6057 44.4895 69.4311 43.6233 68.6455L42.549 70.0152C43.16 70.5792 44.0329 71.0963 45.4899 71.1231C45.51 71.1231 45.5235 71.1365 45.5369 71.1365C47.6788 71.15 49.0418 70.1764 49.1089 68.5716C49.1492 67.4571 48.6524 66.5976 47.6922 66.0941ZM36.3113 63.885H38.6882C39.2388 63.885 39.6752 64.3282 39.6752 64.872C39.6752 65.4159 39.2455 65.859 38.6882 65.859H36.3113V63.885ZM39.7961 70.9821H41.6627L39.9908 67.2758C40.8435 66.8125 41.4277 65.906 41.4277 64.8653C41.4277 63.3613 40.199 62.1326 38.6882 62.1326H36.3113H34.5522V70.9821H36.3113V67.6115H38.2384L39.7961 70.9821ZM33.5584 63.885V62.1393H27.8512V70.9888H33.5584V69.2431H29.597V67.4436H32.3297V65.6979H29.597V63.8985H33.5584V63.885ZM25.0312 62.1393L23.0169 68.3769L21.0026 62.1393H19.1763L22.0299 70.9888H23.9972L26.8508 62.1393H25.0312ZM16.4368 70.9821H18.1825V62.1326H16.4368V70.9821ZM13.5832 62.1393V67.8129L9.82313 62.1393H8.07739V70.9888H9.81642V65.2816L13.5899 70.9888H15.3356V62.1393H13.5832ZM5.34464 62.1393V67.7458C5.34464 68.6388 4.61278 69.3707 3.71977 69.3707H3.3639C2.47089 69.3707 1.73902 68.6388 1.73902 67.7458V62.1393H0V67.7458C0 69.6057 1.50402 71.1097 3.3639 71.1097H3.71977C5.57965 71.1097 7.08367 69.6057 7.08367 67.7458V62.1393H5.34464Z" fill="#890C25"/>
<path d="M54.6011 76.9117V76.2268H55.9709V75.6964H54.6011V75.0585H56.1521V74.5147H53.9297V77.4623H56.2126V76.9184H54.6011V76.9117ZM51.2641 75.5823C51.2641 75.9045 51.0559 76.0925 50.6396 76.0925H50.0824V75.072H50.6396C51.0559 75.072 51.2641 75.26 51.2641 75.5823ZM52.0094 77.4623L51.3514 76.5155C51.7341 76.3544 51.9557 76.0254 51.9557 75.589C51.9557 74.9309 51.4655 74.5214 50.6799 74.5214H49.4042V77.469H50.0891V76.6498H50.6799H50.7135L51.2842 77.469H52.0094V77.4623ZM45.8322 76.9117V76.2268H47.2019V75.6964H45.8322V75.0585H47.3832V74.5147H45.1607V77.4623H47.4436V76.9184H45.8322V76.9117ZM42.3474 74.5147V75.6762H41.0112V74.5147H40.3331V77.4623H41.0112V76.2537H42.3474V77.4623H43.0323V74.5147H42.3474ZM36.338 74.5147V76.3007L34.8743 74.5147H34.3103V77.4623H34.9817V75.6762L36.4522 77.4623H37.0095V74.5147H36.338ZM30.4495 76.3141L30.9195 75.1861L31.3895 76.3141H30.4495ZM31.8595 77.4623H32.578L31.262 74.5147H30.5905L29.2812 77.4623H29.9795L30.2414 76.8311H31.6111L31.8595 77.4623ZM26.9782 76.8043C26.8036 76.8983 26.6358 76.9318 26.4478 76.9318C25.8838 76.9318 25.4943 76.5424 25.4943 75.9918C25.4943 75.4345 25.8838 75.0518 26.4545 75.0518C26.7499 75.0518 26.9983 75.1592 27.2132 75.3875L27.6496 74.9847C27.3609 74.6557 26.9312 74.4744 26.4142 74.4744C25.4742 74.4744 24.796 75.1122 24.796 75.9985C24.796 76.8848 25.4809 77.5227 26.4008 77.5227C26.8238 77.5227 27.2669 77.3951 27.5892 77.1467V75.9448H26.9648V76.8043H26.9782ZM21.4388 76.9318C20.9151 76.9318 20.519 76.5491 20.519 75.9918C20.519 75.4345 20.9151 75.0518 21.4388 75.0518C21.9625 75.0518 22.3587 75.4345 22.3587 75.9918C22.3587 76.5491 21.9625 76.9318 21.4388 76.9318ZM21.4388 77.5093C22.3654 77.5093 23.0503 76.8647 23.0503 75.9851C23.0503 75.1055 22.3654 74.4609 21.4388 74.4609C20.5122 74.4609 19.8274 75.1055 19.8274 75.9851C19.8274 76.8647 20.5122 77.5093 21.4388 77.5093ZM16.0942 77.4623H18.2495V76.905H16.7723V74.5147H16.0942V77.4623ZM12.9519 77.5093C13.7912 77.5093 14.2007 77.0863 14.2007 76.5961C14.2007 75.5151 12.4886 75.8911 12.4886 75.3472C12.4886 75.1592 12.643 75.0115 13.0459 75.0115C13.3077 75.0115 13.5897 75.0854 13.865 75.2398L14.0732 74.7228C13.7979 74.5482 13.4219 74.4609 13.0526 74.4609C12.2133 74.4609 11.8104 74.8772 11.8104 75.3808C11.8104 76.4753 13.5226 76.0993 13.5226 76.6498C13.5226 76.8311 13.3614 76.9654 12.9519 76.9654C12.596 76.9654 12.2267 76.8378 11.9783 76.6566L11.75 77.1668C12.0119 77.375 12.4819 77.5093 12.9519 77.5093Z" fill="#890C25"/>
</svg>
