<svg width="90" height="78" viewBox="0 0 90 78" fill="none" xmlns="http://www.w3.org/2000/svg">
<path fill-rule="evenodd" clip-rule="evenodd" d="M34.8512 43.9613C33.2993 44.0956 31.4318 44.5121 30.1353 45.419C31.5796 46.5207 33.5613 46.9641 35.3483 46.776C35.355 46.776 35.3684 46.776 35.3751 46.776C36.9874 46.5342 38.2168 46.0169 39.3319 44.8077C39.7283 44.9353 40.1313 45.0563 40.5344 45.1638C45.472 46.4737 48.4009 46.373 50.3021 52.3182C50.8261 51.6128 51.3769 51.0485 51.9681 50.6186C48.9182 44.9219 45.6265 45.7079 40.6889 44.4449C40.306 44.3442 39.9231 44.2434 39.5402 44.1225C39.3521 42.658 38.8751 41.4824 38.1496 40.206L38.1362 40.1859C37.4509 39.064 36.4769 37.8749 35.2609 37.3039C34.8377 38.8087 35.1266 40.4277 35.9193 41.7645C36.2283 42.2684 36.5239 42.6446 36.9471 43.0611C36.974 43.1014 37.1486 43.2492 37.1957 43.2962L36.9001 43.1753C36.282 42.9133 35.6909 42.6446 35.093 42.3423C35.1669 41.0323 34.8444 39.588 34.3608 38.3788C33.8972 37.2032 33.165 35.9402 32.1036 35.2147C31.4788 36.565 31.499 38.1302 32.0297 39.5074C32.2581 40.1052 32.5805 40.6695 32.9903 41.1667C32.2984 40.7367 31.6266 40.2799 30.975 39.7962C31.2706 38.5803 31.1967 37.1763 30.9414 35.9604C30.8473 35.5237 30.7331 35.1274 30.5853 34.7041C30.2696 33.8779 29.9337 33.2464 29.3022 32.6216C28.5095 33.7972 28.2946 35.2684 28.5767 36.6456C28.5767 36.659 28.5902 36.6926 28.5902 36.6993C28.7312 37.3241 28.9126 37.8078 29.2284 38.3653C28.8186 38.0026 28.4289 37.6398 28.0393 37.2502C27.8176 37.0285 27.5959 36.8068 27.381 36.5784C27.8579 35.4901 28.0192 34.16 27.9587 32.9777C27.9049 31.8222 27.6295 30.5122 26.9241 29.5717C26.0105 30.5593 25.5873 31.9095 25.6343 33.2464C25.6545 33.8375 25.7687 34.4287 25.9769 34.9863C25.4059 34.2809 24.8685 33.5487 24.3714 32.7963C24.9961 31.8491 25.3589 30.6332 25.4865 29.5113C25.5806 28.6178 25.5739 27.8856 25.3656 27.0123C25.285 26.6965 25.191 26.448 25.0432 26.1591C24.4789 26.6092 24.1228 27.0459 23.7802 27.684C23.4981 28.2618 23.357 28.7455 23.2697 29.3836C23.1958 29.9547 23.2159 30.5324 23.3234 31.0967C22.8532 30.257 22.4232 29.3971 22.047 28.517C22.0739 28.4902 22.1747 28.3894 22.1881 28.3625C22.9002 27.5363 23.3033 26.7167 23.6324 25.6821C23.9347 24.6812 24.0758 23.5056 23.7399 22.4979C22.6919 23.0689 21.9463 24.0967 21.6037 25.2253C21.4424 25.7426 21.3618 26.28 21.3752 26.8242C21.0461 25.8904 20.7639 24.9432 20.5288 23.9825C21.3484 23.3847 22.0134 22.471 22.4501 21.5641C22.8868 20.6505 23.1891 19.5488 23.0345 18.5344C21.9731 18.924 21.1267 19.7906 20.6363 20.7983C20.4079 21.2685 20.2467 21.7791 20.1795 22.3031C19.9981 21.2551 19.8705 20.2004 19.81 19.139C20.5825 18.7359 21.1065 18.2455 21.6574 17.5738C21.7716 17.4327 21.8724 17.2916 21.9731 17.1438C22.5106 16.3511 22.9808 15.3502 22.9942 14.3761C21.9463 14.5709 21.0394 15.2561 20.428 16.116C20.1325 16.5392 19.8973 17.0095 19.7563 17.5066C19.7563 16.3713 19.8167 15.236 19.9511 14.1141C20.811 13.8655 21.6372 13.2878 22.262 12.663C22.88 12.045 23.4578 11.2187 23.6123 10.3387C22.6315 10.3521 21.6977 10.8224 21.0058 11.5009C20.6632 11.8368 20.3743 12.2331 20.1593 12.663C20.3541 11.5277 20.6229 10.4126 20.952 9.31087C21.7716 9.23697 22.618 8.85406 23.2898 8.39053C23.9482 7.93372 24.5998 7.27537 24.8685 6.50283C23.975 6.37519 23.0547 6.6439 22.3225 7.14774C21.953 7.40301 21.6171 7.71875 21.3551 8.08151C21.7514 6.97307 22.215 5.89151 22.739 4.84353C23.4981 4.91071 24.3244 4.70918 25.0029 4.38672C25.6746 4.07099 26.3531 3.57387 26.7159 2.91552C25.9299 2.66697 25.0566 2.78117 24.3176 3.12378C23.7466 3.38577 23.2294 3.79556 22.88 4.31954C23.1219 3.7351 23.2226 3.07003 23.2159 2.43856C23.2092 1.61899 23.0211 0.685215 22.5576 0C21.9866 0.67178 21.7246 1.61227 21.738 2.47887C21.7514 3.27829 21.9933 4.11801 22.524 4.72933C21.9799 5.78402 21.5029 6.87231 21.0931 7.98746C21.1267 7.53065 21.0931 7.06041 21.0192 6.61031C20.8714 5.73028 20.5154 4.74276 19.8973 4.08442C19.3868 4.91743 19.2659 5.99228 19.4338 6.93948C19.5883 7.79936 19.9914 8.65924 20.6766 9.23025C20.3273 10.3387 20.0518 11.4673 19.8436 12.6093C19.7898 12.1189 19.6824 11.6352 19.5211 11.165C19.2121 10.2446 18.6613 9.23697 17.8887 8.62565C17.4856 9.6266 17.5394 10.8224 17.8887 11.83C18.1977 12.7302 18.7889 13.5901 19.6219 14.0805C19.4741 15.2225 19.4002 16.3646 19.3935 17.5133C19.2457 17.0027 19.0442 16.5056 18.8023 16.0354C18.3119 15.1016 17.5528 14.0939 16.619 13.5632C16.3638 14.7254 16.6325 16.0287 17.1901 17.0699C17.2841 17.2513 17.3849 17.4125 17.4991 17.5805C18.0365 18.3194 18.5806 18.8233 19.4338 19.1659C19.4875 20.2407 19.6017 21.3156 19.7764 22.377C19.5346 21.8933 19.2323 21.4365 18.9031 21.0066C18.2179 20.1198 17.2304 19.1927 16.1622 18.7964C16.0951 20.0661 16.5989 21.376 17.3849 22.3635C18.0701 23.21 19.0307 23.8952 20.1123 24.09C20.334 25.0708 20.6161 26.0382 20.9453 26.9854C20.6094 26.542 20.2265 26.1322 19.81 25.7628C18.93 24.9701 17.7342 24.1975 16.5519 23.9758C16.6997 25.2992 17.4521 26.5689 18.4463 27.4355C19.3532 28.1879 20.2064 28.6111 21.3887 28.7119C21.4156 28.7186 21.5633 28.7186 21.6037 28.7186C21.9866 29.6188 22.4098 30.4988 22.88 31.3587C22.4501 30.9489 21.9799 30.5861 21.4827 30.2637C20.9252 29.9076 20.4146 29.6322 19.8033 29.3836C19.1046 29.1217 18.5067 28.9671 17.7544 28.9403C17.8753 29.3501 18.0164 29.6792 18.2246 30.0554C18.7956 31.0362 19.4271 31.6744 20.3743 32.2925C21.4156 32.9441 22.6987 33.3203 23.928 33.112C24.4318 33.8846 24.9693 34.637 25.5403 35.3625C25.0297 35.0266 24.4789 34.7377 23.9146 34.4959C22.6852 33.9652 21.12 33.5554 19.7764 33.7368C20.4213 35.1206 21.7044 36.2224 23.1084 36.7934C24.3109 37.2838 25.7082 37.4383 26.951 37.0083C27.1727 37.2435 27.3877 37.4719 27.6161 37.7003C28.0124 38.0966 28.4088 38.4728 28.8186 38.849C28.2274 38.5937 27.6833 38.4191 27.0585 38.2579C27.0518 38.2579 27.0115 38.2444 26.998 38.2444C25.6276 37.9085 23.928 37.7473 22.5643 38.1638C23.2495 39.1312 24.0019 39.7223 25.0633 40.253C25.5739 40.4949 26.0172 40.6494 26.5681 40.777C27.9049 41.0793 29.3829 40.9987 30.5988 40.3202C31.2638 40.8241 31.9423 41.301 32.6477 41.7444C32.0028 41.5832 31.3377 41.4824 30.6727 41.4354C29.1948 41.3212 27.3944 41.4354 26.0441 42.1004C27.2197 43.3432 28.9865 44.0486 30.6794 44.1494C32.1237 44.2367 33.6487 43.8874 34.7974 42.9738C35.4087 43.2895 36.0133 43.5716 36.6448 43.8471L36.9471 43.9747C36.8329 43.968 36.712 43.9613 36.5978 43.9613C35.9932 43.8941 35.4423 43.9075 34.8512 43.9613Z" fill="#890C25"/>
<path fill-rule="evenodd" clip-rule="evenodd" d="M54.7732 43.9613C56.325 44.0956 58.1926 44.5121 59.4891 45.419C58.0448 46.5207 56.063 46.9641 54.2761 46.776C54.2694 46.776 54.2559 46.776 54.2492 46.776C52.6369 46.5342 51.4076 46.0169 50.2924 44.8077C49.8961 44.9353 49.493 45.0563 49.0899 45.1638C44.1524 46.4737 41.2234 46.373 39.3223 52.3182C38.7983 51.6128 38.2474 51.0485 37.6562 50.6186C40.7061 44.9219 43.9978 45.7079 48.9354 44.4449C49.3183 44.3442 49.7013 44.2434 50.0842 44.1225C50.2723 42.658 50.7492 41.4824 51.4748 40.206L51.4882 40.1859C52.1734 39.064 53.1475 37.8749 54.3634 37.3039C54.7866 38.8087 54.4978 40.4277 53.7051 41.7645C53.396 42.2684 53.1005 42.6446 52.6772 43.0611C52.6504 43.1014 52.4757 43.2492 52.4287 43.2962L52.7243 43.1753C53.3423 42.9133 53.9335 42.6446 54.5314 42.3423C54.4575 41.0323 54.7799 39.588 55.2636 38.3788C55.7271 37.2032 56.4594 35.9402 57.5208 35.2147C58.1455 36.565 58.1254 38.1302 57.5947 39.5074C57.3663 40.1052 57.0438 40.6695 56.634 41.1667C57.326 40.7367 57.9977 40.2799 58.6494 39.7962C58.3538 38.5803 58.4277 37.1763 58.683 35.9604C58.777 35.5237 58.8912 35.1274 59.039 34.7041C59.3547 33.8779 59.6906 33.2464 60.3221 32.6216C61.1148 33.7972 61.3298 35.2684 61.0476 36.6456C61.0476 36.659 61.0342 36.6926 61.0342 36.6993C60.8931 37.3241 60.7117 37.8078 60.396 38.3653C60.8058 38.0026 61.1954 37.6398 61.585 37.2502C61.8067 37.0285 62.0284 36.8068 62.2434 36.5784C61.7664 35.4901 61.6052 34.16 61.6657 32.9777C61.7194 31.8222 61.9948 30.5122 62.7002 29.5717C63.6138 30.5593 64.037 31.9095 63.99 33.2464C63.9699 33.8375 63.8557 34.4287 63.6474 34.9863C64.2184 34.2809 64.7558 33.5487 65.253 32.7963C64.6282 31.8491 64.2654 30.6332 64.1378 29.5113C64.0438 28.6178 64.0505 27.8856 64.2587 27.0123C64.3393 26.6965 64.4334 26.448 64.5812 26.1591C65.1455 26.6092 65.5015 27.0459 65.8441 27.684C66.1263 28.2618 66.2673 28.7455 66.3547 29.3836C66.4286 29.9547 66.4084 30.5324 66.3009 31.0967C66.7712 30.257 67.2011 29.3971 67.5773 28.517C67.5504 28.4902 67.4497 28.3894 67.4362 28.3625C66.7242 27.5363 66.3211 26.7167 65.9919 25.6821C65.6896 24.6812 65.5485 23.5056 65.8844 22.4979C66.9324 23.0689 67.6781 24.0967 68.0207 25.2253C68.1819 25.7426 68.2625 26.28 68.2491 26.8242C68.5783 25.8904 68.8604 24.9432 69.0955 23.9825C68.276 23.3847 67.6109 22.471 67.1742 21.5641C66.7376 20.6505 66.4353 19.5488 66.5898 18.5344C67.6512 18.924 68.4977 19.7906 68.9881 20.7983C69.2165 21.2685 69.3777 21.7791 69.4449 22.3031C69.6262 21.2551 69.7539 20.2004 69.8143 19.139C69.0418 18.7359 68.5178 18.2455 67.9669 17.5738C67.8527 17.4327 67.752 17.2916 67.6512 17.1438C67.1138 16.3511 66.6435 15.3502 66.6301 14.3761C67.6781 14.5709 68.585 15.2561 69.1963 16.116C69.4919 16.5392 69.727 17.0095 69.8681 17.5066C69.8681 16.3713 69.8076 15.236 69.6733 14.1141C68.8134 13.8655 67.9871 13.2878 67.3623 12.663C66.7443 12.045 66.1666 11.2187 66.0121 10.3387C66.9929 10.3521 67.9266 10.8224 68.6186 11.5009C68.9612 11.8368 69.2501 12.2331 69.465 12.663C69.2702 11.5277 69.0082 10.4126 68.6723 9.31087C67.8527 9.23697 67.0063 8.85406 66.3345 8.39053C65.6762 7.93372 65.0246 7.27537 64.7558 6.50283C65.6493 6.37519 66.5696 6.6439 67.3019 7.14774C67.6714 7.40301 68.0073 7.71875 68.2692 8.08151C67.8729 6.97307 67.4094 5.89151 66.8854 4.84353C66.1263 4.91071 65.3 4.70918 64.6215 4.38672C63.9497 4.07099 63.2712 3.57387 62.9084 2.91552C63.6944 2.66697 64.5677 2.78117 65.3067 3.12378C65.8777 3.38577 66.395 3.79556 66.7443 4.31954C66.5025 3.7351 66.4017 3.07003 66.4084 2.43856C66.4151 1.61899 66.6032 0.685215 67.0668 0C67.6378 0.67178 67.8998 1.61227 67.8863 2.47887C67.8729 3.27829 67.6311 4.11801 67.1004 4.72933C67.6445 5.78402 68.1215 6.87231 68.5312 7.98746C68.4977 7.53065 68.5312 7.06041 68.6051 6.61031C68.7529 5.73028 69.109 4.74276 69.727 4.08442C70.2376 4.91743 70.3585 5.99228 70.1905 6.93948C70.036 7.79936 69.633 8.65924 68.9477 9.23025C69.2971 10.3387 69.5725 11.4673 69.7808 12.6093C69.8345 12.1189 69.942 11.6352 70.1032 11.165C70.4122 10.2446 70.9631 9.23697 71.7356 8.62565C72.1387 9.6266 72.085 10.8224 71.7356 11.83C71.4266 12.7302 70.8355 13.5901 70.0024 14.0805C70.1502 15.2225 70.2241 16.3646 70.2309 17.5133C70.3786 17.0027 70.5802 16.5056 70.822 16.0354C71.3124 15.1016 72.0715 14.0939 73.0053 13.5632C73.2606 14.7254 72.9919 16.0287 72.4343 17.0699C72.3402 17.2513 72.2395 17.4125 72.1253 17.5805C71.5878 18.3194 71.0437 18.8233 70.1905 19.1659C70.1368 20.2407 70.0226 21.3156 69.8479 22.377C70.0898 21.8933 70.3921 21.4365 70.7212 21.0066C71.4065 20.1198 72.394 19.1927 73.4621 18.7964C73.5293 20.0661 73.0254 21.376 72.2395 22.3635C71.5543 23.21 70.5936 23.8952 69.512 24.09C69.2904 25.0708 69.0082 26.0382 68.679 26.9854C69.0149 26.542 69.3978 26.1322 69.8143 25.7628C70.6944 24.9701 71.8901 24.1975 73.0725 23.9758C72.9247 25.2992 72.1723 26.5689 71.1781 27.4355C70.2712 28.1879 69.418 28.6111 68.2357 28.7119C68.2088 28.7186 68.061 28.7186 68.0207 28.7186C67.6378 29.6188 67.2146 30.4988 66.7443 31.3587C67.1743 30.9489 67.6445 30.5861 68.1416 30.2637C68.6992 29.9076 69.2097 29.6322 69.8211 29.3836C70.5197 29.1217 71.1176 28.9671 71.87 28.9403C71.7491 29.3501 71.608 29.6792 71.3997 30.0554C70.8287 31.0362 70.1973 31.6744 69.25 32.2925C68.2088 32.9441 66.9257 33.3203 65.6963 33.112C65.1925 33.8846 64.6551 34.637 64.0841 35.3625C64.5946 35.0266 65.1455 34.7377 65.7098 34.4959C66.9391 33.9652 68.5044 33.5554 69.8479 33.7368C69.203 35.1206 67.9199 36.2224 66.5159 36.7934C65.3134 37.2838 63.9161 37.4383 62.6733 37.0083C62.4516 37.2435 62.2367 37.4719 62.0083 37.7003C61.6119 38.0966 61.2156 38.4728 60.8058 38.849C61.3969 38.5937 61.9411 38.4191 62.5658 38.2579C62.5726 38.2579 62.6129 38.2444 62.6263 38.2444C63.9967 37.9085 65.6963 37.7473 67.06 38.1638C66.3748 39.1312 65.6224 39.7223 64.561 40.253C64.0505 40.4949 63.6071 40.6494 63.0562 40.777C61.7194 41.0793 60.2415 40.9987 59.0256 40.3202C58.3605 40.8241 57.682 41.301 56.9766 41.7444C57.6215 41.5832 58.2866 41.4824 58.9517 41.4354C60.4296 41.3212 62.23 41.4354 63.5802 42.1004C62.4046 43.3432 60.6378 44.0486 58.9449 44.1494C57.5006 44.2367 55.9757 43.8874 54.8269 42.9738C54.2156 43.2895 53.611 43.5716 52.9795 43.8471L52.6772 43.9747C52.7914 43.968 52.9124 43.9613 53.0266 43.9613C53.6312 43.8941 54.182 43.9075 54.7732 43.9613Z" fill="#890C25"/>
<path fill-rule="evenodd" clip-rule="evenodd" d="M43.9329 9.3652L31.7401 2.8355V5.78462L43.9329 9.3652ZM42.6431 7.61186L35.5223 0.867188V3.80287L42.6431 7.61186ZM45.6863 9.3652L57.8791 2.84222V5.79133L45.6863 9.3652ZM46.9761 7.61186L54.097 0.867188V3.80287L46.9761 7.61186ZM28.3477 29.1088L44.813 33.9389L61.2783 29.1088V5.77118L44.813 10.6013L28.3477 5.77118V29.1088Z" fill="#890C25"/>
<path d="M89.6221 57.2388H87.0559L84.3285 62.7071L81.6145 57.2388H79.0349L83.1798 65.5554V68.9076H85.484V65.5554L89.6221 57.2388ZM77.866 57.2388H69.6972V59.543H72.6261V68.9076H74.9303V59.543H77.8593V57.2388H77.866ZM66.0763 68.9076H68.3805V57.2388H66.0763V68.9076ZM62.8987 62.4585C61.3671 61.6255 58.5926 62.0487 58.6262 60.5036C58.6262 60.2551 58.8143 59.9057 59.2241 59.6706C59.6339 59.4355 60.87 59.0123 63.1943 60.3424L64.3498 58.3606C61.1118 56.5065 59.0427 57.138 58.0888 57.6754C57.0207 58.2867 56.3355 59.3549 56.322 60.4633C56.2951 62.4182 57.6186 63.6274 59.7817 63.9767C60.4535 64.0775 61.2663 64.1783 61.8239 64.4873C62.6435 64.9105 62.7711 66.066 61.8373 66.5026C60.5677 67.0871 58.6732 66.8519 57.5312 65.8174L56.1138 67.6245C56.9132 68.3702 58.0686 69.0554 59.9967 69.0822C60.0235 69.0822 60.0437 69.0957 60.0571 69.0957C62.8853 69.1091 64.679 67.826 64.7663 65.7099C64.8268 64.2589 64.1684 63.1168 62.8987 62.4585ZM47.8912 59.543H51.0284C51.7606 59.543 52.3249 60.1274 52.3249 60.8395C52.3249 61.5516 51.7539 62.136 51.0284 62.136H47.8912V59.543ZM52.4862 68.9076H54.9516L52.7481 64.0237C53.87 63.4124 54.6426 62.2167 54.6426 60.8462C54.6426 58.8645 53.0236 57.2455 51.0284 57.2455H47.8912H45.5735V68.9143H47.8912V64.4671H50.4305L52.4862 68.9076ZM44.2569 59.543V57.2388H36.7329V68.9076H44.2569V66.6034H39.0371V64.2253H42.6379V61.9211H39.0371V59.543H44.2569ZM33.0113 57.2388L30.3577 65.4681L27.7042 57.2388H25.2992L29.0612 68.9076H31.6543L35.4162 57.2388H33.0113ZM21.6783 68.9076H23.9825V57.2388H21.6783V68.9076ZM17.9164 57.2388V64.7224L12.9586 57.2388H10.6544V68.9076H12.9385V61.3837L17.9097 68.9076H20.2139V57.2388H17.9164ZM7.04697 57.2388V64.6351C7.04697 65.8174 6.08633 66.778 4.90399 66.778H4.44046C3.25813 66.778 2.29749 65.8174 2.29749 64.6351V57.2388H0V64.6351C0 67.0871 1.98175 69.0688 4.43375 69.0688H4.89727C7.34927 69.0688 9.33102 67.0871 9.33102 64.6351V57.2388H7.04697Z" fill="#890C25"/>
<path d="M72.0107 76.7324V75.8322H73.8111V75.1335H72.0107V74.2871H74.053V73.5683H71.1173V77.4512H74.1269V76.7324H72.0107ZM67.6106 74.979C67.6106 75.4022 67.3352 75.6575 66.7843 75.6575H66.0521V74.3005H66.7843C67.3352 74.3005 67.6106 74.5558 67.6106 74.979ZM68.5981 77.4579L67.7248 76.2084C68.2286 75.9934 68.5242 75.5635 68.5242 74.979C68.5242 74.1057 67.8726 73.5683 66.838 73.5683H65.1586V77.4512H66.0588V76.3696H66.838H66.8851L67.6375 77.4512H68.5981V77.4579ZM60.4427 76.7324V75.8322H62.2431V75.1335H60.4427V74.2871H62.4849V73.5683H59.5492V77.4512H62.5588V76.7324H60.4427ZM55.8477 73.5683V75.0999H54.0809V73.5683H53.1808V77.4512H54.0809V75.859H55.8477V77.4512H56.7479V73.5683H55.8477ZM47.9207 73.5683V75.9262L45.9927 73.5683H45.247V77.4512H46.1338V75.0932L48.0685 77.4512H48.8075V73.5683H47.9207ZM40.1549 75.9397L40.773 74.455L41.391 75.9397H40.1549ZM42.0158 77.4579H42.9563L41.2164 73.575H40.3296L38.5964 77.4579H39.5168L39.8594 76.6249H41.6597L42.0158 77.4579ZM35.5801 76.5913C35.3517 76.7122 35.1233 76.7592 34.8815 76.7592C34.1358 76.7592 33.6185 76.242 33.6185 75.5164C33.6185 74.7775 34.1358 74.2736 34.8882 74.2736C35.2845 74.2736 35.607 74.4147 35.8959 74.7103L36.4736 74.1796C36.0974 73.7429 35.5331 73.5078 34.8479 73.5078C33.6118 73.5078 32.7116 74.3475 32.7116 75.5164C32.7116 76.6853 33.6118 77.5251 34.8344 77.5251C35.392 77.5251 35.9765 77.3504 36.4064 77.0279V75.4493H35.5868V76.5913H35.5801ZM28.2712 76.7592C27.5792 76.7592 27.0552 76.2554 27.0552 75.5164C27.0552 74.7775 27.5792 74.2736 28.2712 74.2736C28.9631 74.2736 29.4871 74.7775 29.4871 75.5164C29.4871 76.2487 28.9631 76.7592 28.2712 76.7592ZM28.2712 77.5251C29.4938 77.5251 30.394 76.6786 30.394 75.5164C30.394 74.3543 29.4871 73.5078 28.2712 73.5078C27.0418 73.5078 26.1483 74.361 26.1483 75.5164C26.1416 76.6652 27.0418 77.5251 28.2712 77.5251ZM21.2175 77.4579H24.0658V76.7256H22.1177V73.575H21.2175V77.4579ZM17.0726 77.5251C18.181 77.5251 18.7184 76.9675 18.7184 76.3226C18.7184 74.8984 16.4613 75.3888 16.4613 74.6767C16.4613 74.4349 16.6695 74.2333 17.2002 74.2333C17.5428 74.2333 17.919 74.3341 18.2751 74.5356L18.5505 73.8504C18.1877 73.622 17.6906 73.5078 17.2002 73.5078C16.0985 73.5078 15.5611 74.0587 15.5611 74.717C15.5611 76.1613 17.8183 75.6575 17.8183 76.3897C17.8183 76.6249 17.6033 76.8063 17.0659 76.8063C16.6023 76.8063 16.1119 76.6383 15.7828 76.4032L15.4805 77.0817C15.8365 77.337 16.4546 77.5251 17.0726 77.5251Z" fill="#890C25"/>
</svg>
