<svg width="104" height="78" viewBox="0 0 104 78" fill="none" xmlns="http://www.w3.org/2000/svg">
<path fill-rule="evenodd" clip-rule="evenodd" d="M78.7455 31.4792C79.4505 31.3248 80.0481 31.2845 80.7801 29.8945C81.2837 28.6926 81.4247 27.4235 81.512 26.1342C80.4107 29.0552 79.2289 27.3362 77.792 29.3305C77.7584 29.3976 77.7181 29.4581 77.6778 29.5252C77.6912 29.4581 77.7047 29.3842 77.7181 29.3171C77.933 28.1352 78.0874 26.9937 78.215 25.7985C79.9608 22.8439 81.6799 25.9731 81.6866 19.0836C81.0889 21.7628 79.1886 20.5206 78.45 22.6694C78.5171 21.3264 78.5507 19.9834 78.5709 18.6404C79.9474 15.7128 81.6328 18.674 81.5254 12.4225C80.9748 14.8063 79.1618 13.7117 78.591 15.7329C78.591 14.3698 78.5843 13.0067 78.5977 11.6436C79.4975 9.27993 81.4113 11.6771 81.5456 6.49998C80.8606 8.41371 79.2222 7.37963 78.6514 9.11877C78.6917 7.82952 78.7656 6.53355 78.9133 5.25102C80.2496 3.29028 81.2165 5.64048 82.1835 1.75258C81.2232 3.05526 79.7527 1.79958 79.1014 3.46487C79.0543 1.54442 77.0802 2.15547 77.201 0.194731C75.8312 4.57282 77.933 2.95454 78.779 5.23759C78.6313 6.52684 78.5507 7.82281 78.497 9.11877C78.0404 7.29233 76.2408 8.17869 75.9386 6.01651C75.3947 11.469 77.2413 9.01805 78.4299 11.6503C78.4097 13.0134 78.4097 14.3765 78.403 15.7396C77.8389 13.7117 75.9924 14.8063 75.4888 12.3822C75.1329 18.5061 77.4629 15.9746 78.3761 18.6472C78.356 19.9901 78.3157 21.3264 78.2418 22.6694C77.7449 20.5005 75.7641 21.595 75.247 18.9896C74.9381 25.7985 76.8586 22.5686 77.9934 25.785C77.8658 26.9669 77.7047 28.1084 77.4831 29.2768C77.4696 29.3372 77.4562 29.4178 77.4428 29.4849C77.4361 29.4446 77.4226 29.2969 77.4092 29.2633C76.7914 27.0139 75.2067 28.2763 74.7031 25.4292C74.542 26.4767 74.3539 27.6383 74.4278 28.6993C74.6897 30.4317 75.5022 30.4317 76.1065 31.1099C76.9727 31.1905 77.8658 31.3181 78.7455 31.4792ZM25.2751 31.4792C24.57 31.3248 23.9724 31.2845 23.2405 29.8945C22.7368 28.6926 22.5958 27.4235 22.5085 26.1342C23.6098 29.0552 24.7916 27.3362 26.2286 29.3305C26.2621 29.3976 26.3024 29.4581 26.3427 29.5252C26.3293 29.4581 26.3159 29.3842 26.3024 29.3171C26.0876 28.1352 25.9331 26.9937 25.8055 25.7985C24.0597 22.8439 22.3407 25.9731 22.3339 19.0836C22.9316 21.7628 24.8252 20.5206 25.5705 22.6694C25.5034 21.3264 25.4698 19.9834 25.4497 18.6404C24.0731 15.7128 22.3877 18.674 22.4951 12.4225C23.0457 14.8063 24.8587 13.7117 25.4295 15.7329C25.4295 14.3698 25.4362 13.0067 25.4228 11.6436C24.523 9.27993 22.6093 11.6771 22.475 6.49998C23.1599 8.41371 24.7983 7.37963 25.3691 9.11877C25.3288 7.82952 25.2549 6.53355 25.1072 5.25102C23.7709 3.29028 22.804 5.64048 21.8371 1.75258C22.7973 3.05526 24.2678 1.79958 24.9192 3.46487C24.9662 1.54442 26.9403 2.15547 26.8195 0.194731C28.1893 4.57282 26.0876 2.95454 25.2415 5.23759C25.3892 6.52684 25.4698 7.82281 25.5235 9.11877C25.9801 7.29233 27.7797 8.17869 28.0819 6.01651C28.6258 11.469 26.7792 9.01805 25.5907 11.6503C25.6108 13.0134 25.6108 14.3765 25.6175 15.7396C26.1816 13.7117 28.0282 14.8063 28.5318 12.3822C28.8877 18.5061 26.5576 15.9746 25.6444 18.6472C25.6645 19.9901 25.7048 21.3264 25.7787 22.6694C26.2756 20.5005 28.2565 21.595 28.7735 18.9896C29.0824 25.7985 27.1619 22.5686 26.0271 25.785C26.1547 26.9669 26.3226 28.1084 26.5375 29.2768C26.5509 29.3372 26.5643 29.4178 26.5777 29.4849C26.5845 29.4446 26.5979 29.2969 26.6113 29.2633C27.2291 27.0139 28.8138 28.2763 29.3174 25.4292C29.4786 26.4767 29.6666 27.6383 29.5927 28.6993C29.3308 30.4317 28.5183 30.4317 27.914 31.1099C27.0478 31.1905 26.1547 31.3181 25.2751 31.4792ZM16.7539 42.6393L22.1594 46.9033C32.7688 41.4844 42.4517 39.9467 51.2213 42.3036C45.7285 33.5676 33.9708 30.0221 19.0504 34.9575L23.3613 38.4157C31.8355 35.629 42.1562 35.3604 48.1056 40.222C40.7058 35.6559 28.5116 36.972 16.7539 42.6393ZM87.2666 42.6393L81.8611 46.9033C71.2517 41.4844 61.5688 39.9467 52.7992 42.3036C58.292 33.5676 70.0497 30.0221 84.9701 34.9575L80.6592 38.4157C72.185 35.629 61.8643 35.3604 55.915 40.222C63.3147 35.6559 75.5089 36.972 87.2666 42.6393ZM46.3933 11.4891C45.1779 14.1616 43.103 16.9282 40.1619 19.7954C44.4594 23.5893 48.1526 30.4653 51.2414 40.4234V21.1451C50.402 20.8362 49.8044 20.0304 49.8044 19.0836C49.8044 17.8682 50.7915 16.8811 52.0069 16.8811C53.2223 16.8811 54.2027 17.8682 54.2027 19.0836C54.2027 20.0304 53.605 20.8362 52.7657 21.1451V40.4234C55.8545 30.4653 59.5477 23.5893 63.8452 19.7954C60.9108 16.9349 58.8359 14.1683 57.6138 11.4958V6.45969L54.29 7.13118L61.6763 4.70711L63.9258 3.95505L52.0069 0L40.088 3.96176C42.2166 4.67354 43.4387 5.07643 44.1774 5.32488C43.9961 5.49947 43.8349 5.68748 43.6872 5.88893C43.3917 6.29853 43.1836 6.76186 43.0493 7.28562C42.4651 7.47363 42.0421 8.02425 42.0421 8.66888C42.0421 9.15906 42.2838 9.58881 42.6531 9.85741L42.2636 11.4958H43.4992H44.7347L44.3453 9.85741C44.7146 9.59553 44.9563 9.15906 44.9563 8.66888C44.9563 8.06454 44.587 7.5475 44.0632 7.32591C44.164 7.00359 44.305 6.71486 44.493 6.45969C44.7011 6.16424 44.9697 5.90907 45.2921 5.6942C45.5674 5.78149 45.6748 5.81507 46.3933 6.04337V11.4891Z" fill="#890C25"/>
<path d="M104.006 53.9877H101.025L97.8623 60.3332L94.7131 53.9877H91.7182L96.5261 63.6369V67.5316H99.1986V63.6369L104.006 53.9877ZM90.3685 53.9877H80.8872V56.6602H84.2916V67.5248H86.9641V56.6669H90.3685V53.9877ZM76.6904 67.5316H79.3629V53.9877H76.6904V67.5316ZM72.9972 60.0512C71.2178 59.0843 68.0014 59.5745 68.0349 57.7816C68.0349 57.4928 68.2565 57.09 68.7266 56.8146C69.2033 56.546 70.6403 56.0559 73.3329 57.5936L74.6692 55.2904C70.9089 53.1416 68.505 53.8668 67.4104 54.498C66.1749 55.2098 65.3826 56.4453 65.3624 57.7279C65.3288 59.9975 66.8665 61.4009 69.3712 61.8105C70.1501 61.9314 71.0969 62.0455 71.7415 62.4014C72.6883 62.8916 72.8428 64.2278 71.7617 64.7382C70.2911 65.4164 68.0886 65.1411 66.7658 63.9458L65.1207 66.0476C66.054 66.9138 67.3903 67.7061 69.6263 67.7397C69.6599 67.7397 69.6801 67.7599 69.6935 67.7599C72.9771 67.7733 75.0587 66.2893 75.1594 63.8317C75.2332 62.1328 74.4745 60.81 72.9972 60.0512ZM55.5789 56.6669H59.2183C60.0644 56.6669 60.7224 57.3451 60.7224 58.171C60.7224 59.0037 60.0644 59.6752 59.2183 59.6752H55.5789V56.6669ZM60.9105 67.5316H63.771L61.2126 61.8642C62.5153 61.1524 63.4151 59.7625 63.4151 58.171C63.4151 55.8679 61.5349 53.9877 59.2183 53.9877H55.5789H52.8862V67.5316H55.5789V62.3678H58.5267L60.9105 67.5316ZM51.3687 56.6669V53.9877H42.6326V67.5316H51.3687V64.859H45.3118V62.0992H49.4952V59.4267H45.3118V56.6669H51.3687ZM38.315 53.9877L35.2329 63.5362L32.1575 53.9877H29.3641L33.7287 67.5316H36.7437L41.1084 53.9877H38.315ZM25.1673 67.5316H27.8398V53.9877H25.1673V67.5316ZM20.7959 53.9877V62.67L15.0413 53.9877H12.3688V67.5316H15.0279V58.7955L20.8026 67.5316H23.4751V53.9877H20.7959ZM8.18541 53.9877V62.5693C8.18541 63.9391 7.07075 65.0605 5.6942 65.0605H5.1503C3.78047 65.0605 2.65908 63.9458 2.65908 62.5693V53.9877H0V62.5693C0 65.4097 2.30319 67.7129 5.14358 67.7129H5.68749C8.53459 67.7129 10.8311 65.4097 10.8311 62.5693V53.9877H8.18541Z" fill="#890C25"/>
<path d="M83.5734 76.6024V75.5616H85.6684V74.7491H83.5734V73.7687H85.9437V72.9293H82.5393V77.435H86.031V76.5956H83.5734V76.6024ZM78.4768 74.5678C78.4768 75.0579 78.1545 75.3534 77.5166 75.3534H76.6638V73.7821H77.5166C78.1545 73.7821 78.4768 74.0709 78.4768 74.5678ZM79.6116 77.4417L78.5977 75.9913C79.1819 75.7429 79.5243 75.246 79.5243 74.5678C79.5243 73.5538 78.7723 72.9293 77.5636 72.9293H75.6096V77.435H76.6504V76.1793H77.5569H77.6106L78.4768 77.435H79.6116V77.4417ZM70.1504 76.6024V75.5616H72.2454V74.7491H70.1504V73.7687H72.5207V72.9293H69.1163V77.435H72.608V76.5956H70.1504V76.6024ZM64.8188 72.936V74.7155H62.7707V72.936H61.7299V77.4417H62.7707V75.5951H64.8188V77.4417H65.8596V72.936H64.8188ZM55.6261 72.936V75.6757L53.3834 72.936H52.5172V77.4417H53.5445V74.7021L55.794 77.4417H56.6535V72.936H55.6261ZM46.6148 75.6824L47.3266 73.9567L48.0384 75.6824H46.6148ZM48.7703 77.4417H49.8648L47.8503 72.936H46.823L44.8152 77.4417H45.8829L46.2791 76.4748H48.3741L48.7703 77.4417ZM41.2967 76.4345C41.0348 76.5755 40.7662 76.6292 40.4841 76.6292C39.6179 76.6292 39.0203 76.0316 39.0203 75.1855C39.0203 74.326 39.6179 73.7418 40.4976 73.7418C40.9542 73.7418 41.3369 73.903 41.666 74.2522L42.3375 73.6344C41.901 73.1241 41.2429 72.8555 40.4506 72.8555C39.0136 72.8555 37.9728 73.8291 37.9728 75.1855C37.9728 76.5419 39.0136 77.5156 40.4304 77.5156C41.0751 77.5156 41.76 77.3141 42.2502 76.9448V75.1184H41.2967V76.4345ZM32.8158 76.6292C32.01 76.6292 31.4057 76.045 31.4057 75.1855C31.4057 74.326 32.01 73.7418 32.8158 73.7418C33.6216 73.7418 34.2259 74.326 34.2259 75.1855C34.2259 76.045 33.6216 76.6292 32.8158 76.6292ZM32.8158 77.5223C34.2326 77.5223 35.2801 76.5352 35.2801 75.1922C35.2801 73.8493 34.2326 72.8622 32.8158 72.8622C31.3922 72.8622 30.3514 73.856 30.3514 75.1922C30.3514 76.5285 31.3922 77.5223 32.8158 77.5223ZM24.6371 77.4417H27.9408V76.5889H25.6779V72.9293H24.6371V77.4417ZM19.8293 77.5223C21.1185 77.5223 21.743 76.8777 21.743 76.1256C21.743 74.4737 19.1242 75.0445 19.1242 74.2119C19.1242 73.9298 19.3592 73.6948 19.9837 73.6948C20.3799 73.6948 20.8163 73.809 21.2327 74.0507L21.555 73.2584C21.1387 72.9965 20.5545 72.8622 19.9904 72.8622C18.7079 72.8622 18.0901 73.5001 18.0901 74.2656C18.0901 75.9376 20.7089 75.3601 20.7089 76.2062C20.7089 76.4815 20.4604 76.6897 19.8427 76.6897C19.2988 76.6897 18.7347 76.4949 18.352 76.2196L17.9961 77.0053C18.3923 77.3074 19.1108 77.5223 19.8293 77.5223Z" fill="#890C25"/>
</svg>
