<svg width="91" height="78" viewBox="0 0 91 78" fill="none" xmlns="http://www.w3.org/2000/svg">
<path fill-rule="evenodd" clip-rule="evenodd" d="M63.4828 7.15136V36.153L45.0908 49.4283L26.6987 36.1597V7.15807C34.1992 8.54805 41.4177 12.5568 45.0908 17.8079C48.7638 12.5501 55.9823 8.54134 63.4828 7.15136ZM45.0908 0C48.0587 0 50.4627 2.40393 50.4627 5.37191C50.4627 8.33989 48.0587 10.7438 45.0908 10.7438C42.1228 10.7438 39.7189 8.33989 39.7189 5.37191C39.7189 2.40393 42.1228 0 45.0908 0ZM21.6491 11.3817L16.5391 9.54857V40.0342L45.0908 50.9526L68.5257 38.248V11.3817L73.6358 9.54857V40.0342L45.0841 50.9526L21.6491 38.248V11.3817Z" fill="#890C25"/>
<path d="M90.1742 57.114H87.589L84.8426 62.6202L82.1097 57.114H79.511L83.6809 65.4808V68.8584H85.9976V65.4808L90.1742 57.114ZM78.3493 57.114H70.1303V59.4307H73.0781V68.8517H75.3948V59.4307H78.3426V57.114H78.3493ZM66.4841 68.8517H68.8007V57.1073H66.4841V68.8517ZM63.2878 62.3651C61.7434 61.5257 58.9567 61.9555 58.9903 60.3976C58.9903 60.1492 59.1783 59.7933 59.5946 59.5582C60.0042 59.3232 61.2532 58.9002 63.59 60.2365L64.7517 58.2421C61.4949 56.3754 59.4066 57.0066 58.4531 57.5505C57.3787 58.1683 56.6938 59.2359 56.6804 60.3573C56.6535 62.3248 57.9898 63.5402 60.1587 63.8961C60.8369 63.9968 61.6561 64.1042 62.2134 64.4064C63.0327 64.8295 63.167 65.9911 62.2269 66.4343C60.951 67.0185 59.044 66.7835 57.8958 65.7427L56.4722 67.5624C57.278 68.3078 58.4397 68.9994 60.3736 69.033C60.4004 69.033 60.4206 69.0464 60.434 69.0464C63.2811 69.0598 65.0874 67.7706 65.1747 65.6419C65.2217 64.1714 64.5636 63.0299 63.2878 62.3651ZM48.186 59.4307H51.342C52.074 59.4307 52.6514 60.0149 52.6514 60.7401C52.6514 61.4586 52.0807 62.0495 51.342 62.0495H48.186V59.4307ZM52.8059 68.8517H55.2837L53.0678 63.9364C54.1959 63.3186 54.9748 62.1166 54.9748 60.7334C54.9748 58.739 53.3431 57.1073 51.3353 57.1073H48.1793H45.8425V68.8517H48.1793V64.3728H50.731L52.8059 68.8517ZM44.5331 59.4307V57.114H36.9587V68.8584H44.5331V66.5417H39.2754V64.1512H42.9014V61.8346H39.2754V59.4307H44.5331ZM33.2118 57.114L30.5393 65.3935L27.8668 57.114H25.4494L29.2366 68.8584H31.8487L35.6359 57.114H33.2118ZM21.81 68.8517H24.1266V57.1073H21.81V68.8517ZM18.0228 57.114V64.6414L13.0336 57.114H10.717V68.8584H13.0202V61.284L18.0228 68.8584H20.3394V57.114H18.0228ZM7.09092 57.114V64.5541C7.09092 65.7427 6.12398 66.7096 4.93544 66.7096H4.4654C3.27687 66.7096 2.30992 65.7427 2.30992 64.5541V57.114H0V64.5541C0 67.0185 1.99432 69.0128 4.45869 69.0128H4.92873C7.39309 69.0128 9.38741 67.0185 9.38741 64.5541V57.114H7.09092Z" fill="#890C25"/>
<path d="M72.4632 76.7266V75.8201H74.2763V75.115H72.4632V74.2689H74.518V73.5437H71.5634V77.4518H74.5919V76.7266H72.4632ZM68.0381 74.9605C68.0381 75.3836 67.7561 75.6388 67.2055 75.6388H66.4668V74.2756H67.2055C67.7561 74.2823 68.0381 74.5308 68.0381 74.9605ZM69.0252 77.4518L68.1456 76.1961C68.6559 75.9812 68.9514 75.5515 68.9514 74.9605C68.9514 74.0809 68.3 73.5437 67.2525 73.5437H65.5603V77.4518H66.4668V76.364H67.2525H67.2995L68.0516 77.4518H69.0252ZM60.8196 76.7266V75.8201H62.6326V75.115H60.8196V74.2689H62.8744V73.5437H59.9198V77.4518H62.9482V76.7266H60.8196ZM56.1998 73.5437V75.0881H54.427V73.5437H53.5205V77.4518H54.427V75.8469H56.1998V77.4518H57.1063V73.5437H56.1998ZM48.2225 73.5437V75.9141L46.2819 73.5437H45.5298V77.4518H46.4229V75.0814L48.3702 77.4518H49.1156V73.5437H48.2225ZM40.4131 75.9275L41.0308 74.4301L41.6486 75.9275H40.4131ZM42.2798 77.4518H43.2266L41.4807 73.5437H40.5877L38.8485 77.4518H39.7752L40.1243 76.6124H41.9374L42.2798 77.4518ZM35.8067 76.5855C35.5784 76.7064 35.35 76.7534 35.1016 76.7534C34.3562 76.7534 33.8325 76.2364 33.8325 75.5045C33.8325 74.7591 34.3495 74.2555 35.1083 74.2555C35.5045 74.2555 35.8335 74.3965 36.1155 74.6987L36.693 74.1615C36.3103 73.7183 35.7462 73.4833 35.0546 73.4833C33.8123 73.4833 32.9058 74.3294 32.9058 75.5045C32.9058 76.6796 33.8123 77.5256 35.0412 77.5256C35.5985 77.5256 36.1894 77.351 36.6192 77.0287V75.444H35.7932V76.5855H35.8067ZM28.4471 76.7534C27.7488 76.7534 27.225 76.2431 27.225 75.5045C27.225 74.7591 27.7488 74.2555 28.4471 74.2555C29.1455 74.2555 29.6693 74.7658 29.6693 75.5045C29.6693 76.2431 29.1455 76.7534 28.4471 76.7534ZM28.4471 77.5189C29.676 77.5189 30.5892 76.6661 30.5892 75.4977C30.5892 74.3293 29.676 73.4766 28.4471 73.4766C27.2116 73.4766 26.3118 74.3361 26.3118 75.4977C26.3118 76.6594 27.2183 77.5189 28.4471 77.5189ZM21.3562 77.4518H24.2235V76.7131H22.2627V73.5437H21.3562V77.4518ZM17.1863 77.5189C18.3009 77.5189 18.8449 76.9616 18.8449 76.3102C18.8449 74.8733 16.5752 75.3702 16.5752 74.6517C16.5752 74.4032 16.7834 74.2018 17.3206 74.2018C17.6697 74.2018 18.0391 74.3025 18.4017 74.5106L18.6837 73.8257C18.3211 73.5974 17.8175 73.4766 17.3273 73.4766C16.2193 73.4766 15.6821 74.0272 15.6821 74.6919C15.6821 76.1424 17.9518 75.6387 17.9518 76.3707C17.9518 76.6124 17.7369 76.787 17.1997 76.787C16.7297 76.787 16.2395 76.6191 15.9104 76.3774L15.6016 77.0556C15.9373 77.3376 16.5618 77.5189 17.1863 77.5189Z" fill="#890C25"/>
</svg>
