<svg width="70" height="78" viewBox="0 0 70 78" fill="none" xmlns="http://www.w3.org/2000/svg">
<path fill-rule="evenodd" clip-rule="evenodd" d="M33.8304 12.9035L20.2585 5.63736V8.92121L33.8304 12.9035ZM32.4 10.9493L24.4758 3.44141V6.70512L32.4 10.9493ZM35.7913 12.9035L49.3632 5.64407V8.92121L35.7913 12.9035ZM37.2217 10.9493L45.1459 3.44141V6.70512L37.2217 10.9493ZM34.3408 40.1212L34.8108 40.2622L35.2809 40.1212V28.3624C35.798 28.1677 36.1674 27.6708 36.1674 27.0865C36.1674 26.3344 35.563 25.73 34.8108 25.73C34.0587 25.73 33.4543 26.3411 33.4543 27.0865C33.4543 27.6708 33.8237 28.1677 34.3408 28.3624V40.1212ZM16.4844 34.8832L34.2938 40.1078C32.4 34.0437 30.1369 29.8533 27.5044 27.5297C30.0563 25.045 31.5539 22.6745 32.0038 20.4181H34.8176H37.6313C38.0813 22.6745 39.5788 25.0383 42.1307 27.5297C39.4982 29.8533 37.2351 34.0437 35.3414 40.1078L53.1507 34.8832V8.90107L37.6112 13.4609L37.4634 18.4773H38.1081C38.4708 18.4773 38.7662 18.7728 38.7662 19.1354C38.7662 19.4981 38.4708 19.7935 38.1081 19.7935H34.831H31.5471C31.1845 19.7935 30.889 19.4981 30.889 19.1354C30.889 18.7728 31.1845 18.4773 31.5471 18.4773H32.1918L32.0441 13.4609L16.5045 8.90107V34.8832H16.4844Z" fill="#890C25"/>
<path d="M26.5117 57.5246C27.6802 57.6186 27.9153 58.6662 29.574 58.27C30.4738 55.7047 41.8431 51.9507 45.7381 50.8628C46.2887 50.7084 46.8327 50.5405 47.3699 50.3592C47.4102 50.3659 47.4572 50.3726 47.4975 50.3793C51.5066 50.9099 50.7008 54.9794 57.611 49.6205C53.9712 51.1785 54.589 48.4184 51.3253 48.6938C52.2655 48.2035 53.1721 47.6461 54.0317 47.0283C55.6434 46.7463 55.865 47.1962 57.2215 47.673C59.7734 48.1632 61.7813 45.1346 62.8893 43.3012C60.042 45.9941 59.7734 43.2811 56.8387 44.5973C57.6379 43.7579 58.3698 42.8513 59.0145 41.8843C61.1299 40.6016 61.6201 41.8843 63.3258 40.8367C64.7562 39.7152 65.3808 37.6737 65.8106 35.9881C64.2862 38.9362 62.5133 36.8678 60.7471 38.7683C61.2508 37.6603 61.6739 36.5119 62.0231 35.3434C63.9034 33.2415 64.8301 35.0345 66.2135 32.4088C66.7642 31.0925 66.9186 29.7159 67.0126 28.3056C65.8106 31.4888 64.5212 29.6151 62.9498 31.791C62.9095 31.8581 62.8625 31.932 62.8289 31.9991C62.8423 31.9253 62.8558 31.8514 62.8692 31.7708C63.1043 30.4814 63.2788 29.2391 63.4131 27.9363C65.3203 24.7129 67.194 28.1243 67.2007 20.6097C66.5493 23.5377 64.4809 22.1744 63.6683 24.5181C63.7422 23.0542 63.7825 21.5902 63.7959 20.1195C65.2935 16.9297 67.1402 20.1598 67.0126 13.3369C66.4082 15.9358 64.4339 14.7471 63.8094 16.9498C63.8094 15.4657 63.8026 13.9749 63.8161 12.4907C64.7965 9.91201 66.8851 12.5243 67.0328 6.87662C66.2874 8.96513 64.4943 7.83693 63.8765 9.73069C63.9235 8.32045 64.0041 6.9102 64.1586 5.51339C65.6158 3.37787 66.6701 5.93646 67.7245 1.69901C66.6769 3.12269 65.0719 1.75273 64.36 3.56591C64.3063 1.47068 62.1574 2.14223 62.285 0C60.7941 4.77469 63.0774 3.00852 64.0041 5.49996C63.8429 6.90349 63.7489 8.32045 63.6952 9.73069C63.1983 7.7362 61.2373 8.70994 60.9083 6.3461C60.3173 12.2893 62.332 9.62324 63.628 12.4907C63.6079 13.9816 63.6012 15.4657 63.5945 16.9565C62.9834 14.7471 60.9687 15.9358 60.4181 13.2966C60.0286 19.9785 62.5737 17.2117 63.5676 20.1262C63.5407 21.5902 63.5004 23.0542 63.4199 24.5114C62.8759 22.1476 60.7135 23.3362 60.1561 20.4956C59.8204 27.9229 61.9156 24.404 63.1512 27.9094C63.0102 29.1988 62.8356 30.4411 62.5939 31.7171C62.5737 31.7842 62.567 31.8715 62.5536 31.9387C62.5469 31.8917 62.5334 31.7372 62.52 31.6969C61.8484 29.2391 60.1159 30.6225 59.5652 27.5132C59.3839 28.6616 59.1824 29.9241 59.263 31.0791C59.6726 33.772 61.3045 32.6371 61.7343 35.2427C61.3851 36.3978 60.962 37.526 60.4583 38.6206C60.7068 36.2635 58.1079 36.5656 58.1818 33.7854C57.7722 34.9607 57.1208 36.5589 57.2752 37.8147C57.6849 39.6145 59.0213 39.4869 58.7392 41.6761C58.1012 42.623 57.3827 43.5094 56.5903 44.3287C57.5439 41.6895 55.0994 41.9313 55.7508 38.8758C54.7099 40.333 53.3534 41.7701 53.7093 43.6236C54.0921 44.8794 54.4883 45.4032 53.8168 46.706C52.9639 47.3104 52.0708 47.8476 51.144 48.3311C52.8632 46.5247 50.5598 44.9935 52.0707 42.717C45.7851 47.0686 50.1635 46.847 47.3296 49.8622C47.3229 49.8757 47.2558 49.9361 47.2423 49.9495C46.685 50.1309 46.1276 50.2987 45.5635 50.4532C39.7009 52.0582 28.1704 52.6962 26.5117 57.5246Z" fill="#890C25"/>
<path d="M43.119 57.5246C41.9505 57.6186 41.7155 58.6662 40.0567 58.27C39.1569 55.7047 27.7876 51.9507 23.8926 50.8628C23.342 50.7084 22.798 50.5405 22.2608 50.3592C22.2205 50.3659 22.1735 50.3726 22.1332 50.3793C18.1241 50.9099 18.9299 54.9794 12.0197 49.6205C15.6595 51.1785 15.0417 48.4184 18.3054 48.6938C17.3652 48.2035 16.4586 47.6461 15.5991 47.0283C13.9874 46.7463 13.7658 47.1962 12.4092 47.673C9.85736 48.1632 7.84943 45.1346 6.74138 43.3012C9.58873 45.9941 9.85735 43.2811 12.792 44.5973C11.9929 43.7579 11.2609 42.8513 10.6162 41.8843C8.50084 40.6016 8.0106 41.8843 6.30487 40.8367C4.87448 39.7152 4.24994 37.6737 3.82015 35.9881C5.34456 38.9362 7.11745 36.8678 8.88362 38.7683C8.37996 37.6603 7.95688 36.5119 7.60768 35.3434C5.72735 33.2415 4.80061 35.0345 3.41723 32.4088C2.86656 31.0925 2.71211 29.7159 2.61809 28.3056C3.82016 31.4888 5.10953 29.6151 6.68094 31.791C6.72124 31.8581 6.76825 31.932 6.80183 31.9991C6.78839 31.9253 6.77496 31.8514 6.76153 31.7708C6.52649 30.4814 6.35189 29.2391 6.21758 27.9363C4.3104 24.7129 2.43677 28.1243 2.43006 20.6097C3.08146 23.5377 5.14982 22.1744 5.96239 24.5181C5.88852 23.0542 5.84822 21.5902 5.83479 20.1195C4.33724 16.9297 2.4905 20.1598 2.61809 13.3369C3.22249 15.9358 5.19683 14.7471 5.82136 16.9498C5.82136 15.4657 5.82809 13.9749 5.81466 12.4907C4.8342 9.91201 2.74568 12.5243 2.59794 6.87662C3.34336 8.96513 5.13639 7.83693 5.75421 9.73069C5.7072 8.32045 5.62662 6.9102 5.47216 5.51339C4.01491 3.37787 2.96058 5.93646 1.90625 1.69901C2.95386 3.12269 4.55886 1.75273 5.2707 3.56591C5.32442 1.47068 7.47336 2.14223 7.34577 0C8.8366 4.77469 6.55335 3.00852 5.62662 5.49996C5.78779 6.90349 5.8818 8.32045 5.93552 9.73069C6.43247 7.7362 8.39338 8.70994 8.72244 6.3461C9.3134 12.2893 7.29876 9.62324 6.00268 12.4907C6.02282 13.9816 6.02954 15.4657 6.03625 16.9565C6.64736 14.7471 8.662 15.9358 9.21267 13.2966C9.60216 19.9785 7.05701 17.2117 6.06313 20.1262C6.08999 21.5902 6.13028 23.0542 6.21086 24.5114C6.75481 22.1476 8.9172 23.3362 9.47458 20.4956C9.81035 27.9229 7.71512 24.404 6.47948 27.9094C6.6205 29.1988 6.79511 30.4411 7.03687 31.7171C7.05701 31.7842 7.06372 31.8715 7.07715 31.9387C7.08386 31.8917 7.0973 31.7372 7.11073 31.6969C7.78227 29.2391 9.51486 30.6225 10.0655 27.5132C10.2468 28.6616 10.4483 29.9241 10.3677 31.0791C9.95808 33.772 8.32624 32.6371 7.89645 35.2427C8.24565 36.3978 8.66872 37.526 9.17238 38.6206C8.92391 36.2635 11.5228 36.5656 11.4489 33.7854C11.8586 34.9607 12.51 36.5589 12.3555 37.8147C11.9459 39.6145 10.6095 39.4869 10.8915 41.6761C11.5295 42.623 12.2481 43.5094 13.0405 44.3287C12.0869 41.6895 14.5313 41.9313 13.8799 38.8758C14.9208 40.333 16.2773 41.7701 15.9214 43.6236C15.5386 44.8794 15.1424 45.4032 15.814 46.706C16.6668 47.3104 17.56 47.8476 18.4867 48.3311C16.7675 46.5247 19.071 44.9935 17.56 42.717C23.8456 47.0686 19.4672 46.847 22.3011 49.8622C22.3078 49.8757 22.375 49.9361 22.3884 49.9495C22.9458 50.1309 23.5031 50.2987 24.0672 50.4532C29.9231 52.0582 41.4536 52.6962 43.119 57.5246Z" fill="#890C25"/>
<path d="M69.6258 61.7707H67.6313L65.5092 66.0216L63.4006 61.7707H61.3927L64.6094 68.231V70.8366H66.4024V68.231L69.6258 61.7707ZM60.4928 61.7707H54.1467V63.5637H56.4232V70.8366H58.2163V63.5637H60.4928V61.7707ZM51.3329 70.8366H53.126V61.7707H51.3329V70.8366ZM48.8616 65.8268C47.673 65.1822 45.5174 65.5112 45.5442 64.3092C45.5442 64.1144 45.6919 63.8458 46.0076 63.6645C46.3232 63.4832 47.2902 63.1541 49.09 64.1883L49.9831 62.6504C47.4648 61.2133 45.8598 61.6968 45.1211 62.1199C44.2951 62.5967 43.7646 63.4227 43.7512 64.2823C43.731 65.8 44.7585 66.7402 46.4374 67.0155C46.9612 67.0961 47.5924 67.1767 48.0222 67.4117C48.6602 67.7408 48.7609 68.6339 48.0356 68.9764C47.0484 69.4263 45.5778 69.245 44.6913 68.4459L43.59 69.8494C44.2145 70.4269 45.1077 70.9575 46.6052 70.9843C46.6254 70.9843 46.6388 70.9978 46.6523 70.9978C48.8482 71.0112 50.245 70.0106 50.3122 68.372C50.3592 67.2237 49.8488 66.3372 48.8616 65.8268ZM37.2036 63.5637H39.6413C40.2054 63.5637 40.6486 64.0137 40.6486 64.5711C40.6486 65.1284 40.2054 65.5784 39.6413 65.5784H37.2036V63.5637ZM40.7762 70.8366H42.6901L40.9777 67.0423C41.8507 66.5656 42.4484 65.6388 42.4484 64.5711C42.4484 63.0332 41.1926 61.7707 39.6413 61.7707H37.2036H35.4039V70.8366H37.2036V67.3781H39.1779L40.7762 70.8366ZM34.3831 63.5637V61.7707H28.534V70.8366H34.3831V69.0435H30.327V67.1968H33.1273V65.4038H30.327V63.557H34.3831V63.5637ZM25.6463 61.7707L23.5847 68.1638L21.523 61.7707H19.6561L22.5774 70.8366H24.592L27.5132 61.7707H25.6463ZM16.8424 70.8366H18.6354V61.7707H16.8424V70.8366ZM13.9144 61.7707V67.5863L10.0598 61.7707H8.26673V70.8366H10.0463V64.9874L13.9077 70.8366H15.7007V61.7707H13.9144ZM5.47309 61.7707V67.5191C5.47309 68.4392 4.72768 69.1846 3.80766 69.1846H3.44503C2.52501 69.1846 1.77959 68.4392 1.77959 67.5191V61.7707H0V67.5191C0 69.4196 1.53784 70.9642 3.44503 70.9642H3.80766C5.71485 70.9642 7.25269 69.4263 7.25269 67.5191V61.7707H5.47309Z" fill="#890C25"/>
<path d="M55.9458 76.9061V76.2077H57.3493V75.6638H55.9458V75.0056H57.5307V74.4482H55.2474V77.4635H57.5844V76.9061H55.9458ZM52.5276 75.5496C52.5276 75.8786 52.3127 76.0734 51.883 76.0734H51.3121V75.0191H51.883C52.3127 75.0191 52.5276 75.2138 52.5276 75.5496ZM53.2932 77.4702L52.6149 76.5032C53.0044 76.3353 53.2328 76.0062 53.2328 75.5496C53.2328 74.8713 52.7291 74.455 51.9233 74.455H50.6137V77.4702H51.3121V76.6308H51.9233H51.9568L52.5411 77.4702H53.2932ZM46.9605 76.9061V76.2077H48.3641V75.6638H46.9605V75.0056H48.5454V74.4482H46.2621V77.4635H48.5991V76.9061H46.9605ZM43.3879 74.455V75.6436H42.018V74.455H41.3195V77.4702H42.018V76.2346H43.3879V77.4702H44.0863V74.455H43.3879ZM37.2298 74.455V76.2883L35.7323 74.455H35.1548V77.4702H35.8464V75.6369L37.3507 77.4702H37.9215V74.455H37.2298ZM31.1994 76.295L31.6762 75.1399L32.1529 76.295H31.1994ZM32.6432 77.4702H33.3752L32.0253 74.455H31.3337L29.9906 77.4702H30.7091L30.9777 76.8255H32.3813L32.6432 77.4702ZM27.6402 76.7987C27.4656 76.8927 27.2842 76.9263 27.0962 76.9263C26.5187 76.9263 26.1157 76.5233 26.1157 75.9592C26.1157 75.3884 26.5187 74.9922 27.1029 74.9922C27.4118 74.9922 27.6603 75.0997 27.8819 75.3347L28.3318 74.9183C28.0364 74.5758 27.5999 74.3945 27.0694 74.3945C26.109 74.3945 25.4106 75.0459 25.4106 75.9525C25.4106 76.8591 26.109 77.5105 27.0559 77.5105C27.4857 77.5105 27.9424 77.3762 28.2781 77.1277V75.9055H27.6402V76.7987ZM21.9656 76.9263C21.4284 76.9263 21.0187 76.5368 21.0187 75.9592C21.0187 75.3817 21.4217 74.9922 21.9656 74.9922C22.5028 74.9922 22.9125 75.3817 22.9125 75.9592C22.9125 76.5368 22.5028 76.9263 21.9656 76.9263ZM21.9656 77.5239C22.9125 77.5239 23.6176 76.8658 23.6176 75.9659C23.6176 75.0661 22.9125 74.408 21.9656 74.408C21.012 74.408 20.3136 75.0728 20.3136 75.9659C20.3136 76.8591 21.012 77.5239 21.9656 77.5239ZM16.4858 77.4702H18.6952V76.8994H17.1842V74.4482H16.4858V77.4702ZM13.2691 77.5239C14.1287 77.5239 14.5517 77.0941 14.5517 76.5905C14.5517 75.4824 12.799 75.8652 12.799 75.3078C12.799 75.1198 12.9602 74.9653 13.3698 74.9653C13.6385 74.9653 13.9272 75.0459 14.2093 75.2004L14.4242 74.6699C14.1421 74.4953 13.7526 74.4012 13.3765 74.4012C12.517 74.4012 12.1073 74.831 12.1073 75.3414C12.1073 76.4629 13.86 76.0734 13.86 76.6375C13.86 76.8255 13.6922 76.9598 13.2758 76.9598C12.9132 76.9598 12.5371 76.8322 12.2819 76.6442L12.0469 77.168C12.3088 77.3762 12.7856 77.5239 13.2691 77.5239Z" fill="#890C25"/>
</svg>
