<svg width="102" height="78" viewBox="0 0 102 78" fill="none" xmlns="http://www.w3.org/2000/svg">
<path fill-rule="evenodd" clip-rule="evenodd" d="M12.0609 54.0195H89.369V69.6866H12.0609V54.0195ZM84.0437 77.5235H101.437L95.2718 69.6866L101.437 61.8497H91.4575V71.7751H79.9808L84.0437 77.5235ZM82.8685 58.2435V62.6287L79.2757 58.2435H77.8923V65.4626H79.5443V61.0774L83.1438 65.4626H84.5137V58.2435H82.8685ZM72.1842 64.1665C70.8948 64.1665 69.9278 63.2264 69.9278 61.8564C69.9278 60.4865 70.8948 59.5463 72.1842 59.5463C73.4736 59.5463 74.4406 60.4865 74.4406 61.8564C74.4473 63.2264 73.4736 64.1665 72.1842 64.1665ZM72.1842 65.5902C74.454 65.5902 76.1329 64.0121 76.1329 61.8564C76.1329 59.7008 74.454 58.1227 72.1842 58.1227C69.9077 58.1227 68.2355 59.7142 68.2355 61.8564C68.2355 63.9987 69.9077 65.5902 72.1842 65.5902ZM64.8106 65.4693H66.4828V58.2503H64.8106V65.4693ZM59.4316 65.4693H61.1037V59.6068H63.4138V58.2435H57.1215V59.6068H59.4316V65.4693ZM51.8364 62.6489L52.9848 59.8821L54.1331 62.6489H51.8364ZM55.2882 65.4693H57.0409L53.8108 58.2503H52.1655L48.9488 65.4693H50.6612L51.2992 63.9248H54.6502L55.2882 65.4693ZM45.4366 65.5902C46.6924 65.5902 47.74 65.1336 48.4183 64.3008L47.3438 63.3137C46.8603 63.8778 46.2492 64.1665 45.5306 64.1665C44.1808 64.1665 43.2205 63.2197 43.2205 61.8564C43.2205 60.4932 44.1808 59.5463 45.5306 59.5463C46.2559 59.5463 46.8603 59.8351 47.3438 60.3925L48.4183 59.4053C47.74 58.5793 46.6924 58.1294 45.4501 58.1294C43.2004 58.1294 41.5282 59.6874 41.5282 61.8632C41.5282 64.0322 43.2004 65.5902 45.4366 65.5902ZM36.5588 65.5902C38.6137 65.5902 39.8292 64.415 39.8292 62.2862V58.2435H38.1773V62.2258C38.1773 63.5957 37.5863 64.1665 36.5655 64.1665C35.5515 64.1665 34.9538 63.6025 34.9538 62.2258V58.2435H33.2817V62.2862C33.2884 64.415 34.5106 65.5902 36.5588 65.5902ZM26.0022 64.0927V59.6135H27.5266C28.9637 59.6135 29.8971 60.4731 29.8971 61.8497C29.8971 63.2331 28.957 64.086 27.5266 64.086H26.0022V64.0927ZM24.3367 65.4693H27.6139C29.9777 65.4693 31.5961 64.0457 31.5961 61.8564C31.5961 59.6672 29.9777 58.2435 27.6139 58.2435H24.3367V65.4693ZM18.5749 64.1263V62.4541H21.9259V61.1513H18.5749V59.5866H22.3691V58.2435H16.9095V65.4626H22.5034V64.1195H18.5749V64.1263ZM17.393 77.5235H0L6.16477 69.6866L0 61.8497H9.97914V71.7751H21.4558L17.393 77.5235Z" fill="#890C25"/>
<path fill-rule="evenodd" clip-rule="evenodd" d="M82.1835 38.9361L83.1102 38.9562L83.0632 40.8097L83.7818 40.8298L83.8288 38.9764L84.6951 38.9965L84.6414 41.0984L85.3868 41.1186L85.4606 38.0966L81.4649 38.0026L81.3911 41.0984L82.1298 41.1186L82.1835 38.9361ZM83.8288 34.8665C83.399 34.9202 83.1035 34.6718 83.0297 34.1144L82.9356 33.369L84.319 33.1944L84.413 33.9398C84.4869 34.4972 84.2653 34.8128 83.8288 34.8665ZM81.4314 36.1962L82.5931 35.1418C82.8819 35.6321 83.352 35.8738 83.9496 35.8C84.8361 35.6858 85.3062 34.9538 85.1651 33.8928L84.9435 32.1736L80.9814 32.684L81.1023 33.604L82.2036 33.463L82.3044 34.2621L82.3111 34.3091L81.3038 35.2157L81.4314 36.1962ZM80.6793 28.554L81.5724 28.3055L82.076 30.0918L82.7678 29.8971L82.2641 28.1108L83.0968 27.8758L83.6676 29.8971L84.3795 29.6956L83.5602 26.7879L79.7122 27.8758L80.5517 30.8574L81.2635 30.6559L80.6793 28.554ZM82.0492 23.2824L80.6457 24.001L79.8197 22.3825L81.2232 21.664L80.8001 20.838L77.2409 22.6579L77.664 23.4839L79.1213 22.7385L79.9473 24.3569L78.49 25.1023L78.9131 25.9283L82.4723 24.1084L82.0492 23.2824ZM77.5902 16.2849L75.7501 17.8698L76.2874 14.7807L75.7904 14.2031L72.7618 16.8154L73.3594 17.5071L75.1995 15.9223L74.6622 19.0181L75.1592 19.5956L78.1878 16.9833L77.5902 16.2849ZM70.3643 12.672L71.8014 11.8527L71.3649 13.451L70.3643 12.672ZM70.915 15.0761L71.6806 15.6738L72.7215 11.4229L72.0029 10.8656L68.1415 12.9272L68.8869 13.5114L69.6928 13.0548L71.1567 14.1964L70.915 15.0761ZM66.5836 10.879C66.3149 10.8857 66.0866 10.8186 65.865 10.7044C65.18 10.3552 64.9517 9.64336 65.2875 8.97853C65.63 8.30027 66.3418 8.07866 67.0335 8.43458C67.3961 8.6159 67.6312 8.89795 67.752 9.30759L68.531 9.08597C68.39 8.50845 67.9804 8.03165 67.3558 7.70931C66.2209 7.13178 65.0054 7.48099 64.4615 8.55546C63.9175 9.62993 64.3473 10.8186 65.4688 11.3894C65.9792 11.6513 66.597 11.7654 67.1409 11.6714L67.8796 10.2276L67.1275 9.84482L66.5836 10.879ZM60.2509 8.30699C59.5726 8.07866 59.2369 7.40712 59.4853 6.68857C59.7338 5.97002 60.4053 5.65439 61.0836 5.88272C61.7619 6.11104 62.0977 6.78258 61.8492 7.50113C61.6007 8.21969 60.9291 8.53531 60.2509 8.30699ZM59.9957 9.0524C61.1843 9.46204 62.3461 8.93152 62.7356 7.80333C63.1251 6.67514 62.5274 5.54695 61.3388 5.13731C60.1435 4.72766 58.9817 5.25818 58.5989 6.38637C58.2094 7.51457 58.8004 8.64276 59.9957 9.0524ZM53.6966 7.69588L56.6044 8.05852L56.6984 7.31311L54.7107 7.06463L55.1136 3.84794L54.1936 3.73378L53.6966 7.69588ZM50.2315 7.63544C51.3731 7.60187 51.9103 7.01762 51.8902 6.3528C51.8499 4.88883 49.5398 5.45964 49.5196 4.72094C49.5129 4.46576 49.7211 4.25758 50.2651 4.24415C50.621 4.23743 51.0037 4.32474 51.3798 4.5262L51.6484 3.81436C51.2724 3.59275 50.7553 3.48531 50.2516 3.49874C49.1167 3.53232 48.5862 4.10984 48.5996 4.7881C48.6399 6.27221 50.95 5.69469 50.9702 6.4401C50.9769 6.68186 50.762 6.8766 50.2113 6.89003C49.7345 6.90346 49.2242 6.74901 48.8817 6.51397L48.5862 7.21909C48.9556 7.48099 49.6002 7.65559 50.2315 7.63544ZM44.8793 4.0024L43.9928 4.20386L43.3549 6.17148L41.9178 4.68065L40.9642 4.90227L43.0527 7.05792L43.375 8.44801L44.2749 8.23983L43.9592 6.86317L44.8793 4.0024ZM38.8421 9.93884L39.7017 9.59635L38.4996 6.58784L39.6883 6.11104L39.4062 5.41264L36.1693 6.70872L36.4514 7.40712L37.64 6.93032L38.8421 9.93884ZM35.3971 11.6513L36.1962 11.1879L34.195 7.72946L33.3959 8.19283L35.3971 11.6513ZM32.5296 13.5987C33.463 12.9339 33.5839 12.1482 33.1944 11.6043C32.3416 10.4089 30.7433 12.1684 30.3202 11.5707C30.1725 11.3625 30.2262 11.0737 30.6761 10.7581C30.9649 10.5499 31.3342 10.4156 31.764 10.3753L31.5894 9.63664C31.1529 9.66351 30.6627 9.85825 30.2531 10.1537C29.3263 10.8118 29.2055 11.5908 29.6017 12.1482C30.4612 13.357 32.0595 11.5908 32.4893 12.2019C32.6303 12.4034 32.5565 12.6787 32.1065 12.9944C31.717 13.2697 31.2066 13.4241 30.7903 13.4174L30.938 14.1696C31.3812 14.183 32.0125 13.9681 32.5296 13.5987ZM27.4863 14.4382C27.8019 14.7404 27.7952 15.1231 27.399 15.5328L26.8752 16.0767L25.8679 15.1164L26.3917 14.5725C26.7879 14.1628 27.1707 14.1293 27.4863 14.4382ZM30.0314 15.4656L28.4802 15.2239C28.6749 14.6934 28.5675 14.1696 28.1377 13.7599C27.4863 13.1421 26.6267 13.2428 25.888 14.0151L24.6927 15.2642L27.5803 18.0242L28.2183 17.3527L27.4124 16.5804L27.9698 15.9962L28.0034 15.9626L29.3398 16.1775L30.0314 15.4656ZM24.5181 20.8246L23.766 20.2873L24.8404 18.7763L24.2562 18.36L23.1817 19.871L22.4766 19.3673L23.6921 17.6549L23.0877 17.2251L21.335 19.6896L24.5919 22.0065L26.385 19.4815L25.7806 19.0517L24.5181 20.8246ZM19.7434 22.4564L21.8521 24.7464L18.7495 24.6926L18.3399 25.6059L22.6915 25.6597L23.0608 24.8269L20.1128 21.617L19.7434 22.4564ZM21.2074 29.5815L21.5096 28.7085L17.7288 27.4124L17.4266 28.2854L21.2074 29.5815ZM16.6006 31.7976L18.9913 32.2274L16.2514 33.7518L16.1171 34.5039L20.0523 35.2157L20.2135 34.3159L17.8228 33.8861L20.5694 32.3549L20.7037 31.6095L16.7685 30.8977L16.6006 31.7976ZM20.059 39.0905C20.0322 37.9556 19.3673 37.2975 18.1854 37.3244L15.9492 37.3781L15.9693 38.2914L18.172 38.2377C18.9308 38.2175 19.2532 38.5399 19.2666 39.104C19.2801 39.6613 18.9711 40.0038 18.2123 40.0173L16.0096 40.071L16.0298 40.9977L18.266 40.944C19.4546 40.9171 20.0926 40.2254 20.059 39.0905ZM23.4705 39.2651C23.457 38.9428 23.4503 38.6205 23.4503 38.2914C23.4503 23.2354 35.659 11.0267 50.715 11.0334C65.771 11.0334 77.9796 23.2354 77.9796 38.2914C77.9796 38.6137 77.9729 38.9428 77.9595 39.2651C77.8655 41.9715 79.8532 44.2748 82.5394 44.5838L88.3751 45.2486C88.7915 42.9922 89.0064 40.6687 89.0064 38.2981C89.0064 17.1445 71.8619 0 50.7083 0C29.5546 0 12.4102 17.1445 12.4102 38.2981C12.4102 40.6754 12.625 42.9989 13.0414 45.2486L18.8771 44.5838C21.5767 44.2748 23.5645 41.9715 23.4705 39.2651Z" fill="#890C25"/>
<path fill-rule="evenodd" clip-rule="evenodd" d="M29.3059 40.6102C37.0622 40.7982 44.1739 43.4307 50.6744 47.5338C45.3961 42.974 37.8815 39.4551 28.2852 39.2873L28.8493 40.5968L29.3059 40.6102ZM47.5652 43.9679C44.7044 40.6975 40.9236 38.8843 36.7668 37.5547L37.6398 39.5895C41.1519 40.5296 44.4962 41.9802 47.5652 43.9679ZM72.1235 40.6102C64.3672 40.7982 57.2555 43.4307 50.755 47.5338C56.0333 42.974 63.5479 39.4551 73.1442 39.2873L72.5802 40.5968L72.1235 40.6102ZM53.8642 43.9679C56.725 40.6975 60.5058 38.8843 64.6627 37.5547L63.7897 39.5895C60.2775 40.5296 56.9399 41.9802 53.8642 43.9679ZM29.2858 41.5974L30.5214 44.4649C36.76 45.2774 42.7166 47.2585 48.3912 50.408C48.7404 52.5234 52.6958 52.5234 53.045 50.408C58.7195 47.2585 64.6761 45.2774 70.9147 44.4649L72.1504 41.5974C64.9313 41.772 57.8196 44.1224 50.7147 48.7359C43.6098 44.1224 36.5049 41.772 29.2858 41.5974Z" fill="#890C25"/>
<path fill-rule="evenodd" clip-rule="evenodd" d="M50.7116 46.6465C50.9601 46.6465 51.1414 46.4652 51.1952 46.2234L53.7739 33.4171H54.2037C54.7207 33.4171 55.1438 32.9941 55.1438 32.477C55.1438 31.9599 54.7207 31.5368 54.2037 31.5368C51.8734 31.5368 49.5499 31.5368 47.2196 31.5368C46.7025 31.5368 46.2794 31.9599 46.2794 32.477C46.2794 32.9941 46.7025 33.4171 47.2196 33.4171H47.6494L50.2281 46.2234C50.2819 46.4719 50.4632 46.6465 50.7116 46.6465ZM46.2996 29.1797H55.1237C55.6408 29.1797 56.0638 29.6028 56.0638 30.1198C56.0638 30.6369 55.6408 31.06 55.1237 31.06H46.2996C45.7825 31.06 45.3595 30.6369 45.3595 30.1198C45.3527 29.6028 45.7825 29.1797 46.2996 29.1797Z" fill="#890C25"/>
<path fill-rule="evenodd" clip-rule="evenodd" d="M50.5212 28.3185C45.9749 21.8582 56.827 21.9388 50.0646 14.1758C52.6098 19.7697 40.9786 24.1012 50.5212 28.3185ZM52.0523 25.2697C52.6702 23.7923 55.1012 22.5096 53.2678 19.6623C53.1604 19.5414 53.0462 19.4138 52.9254 19.2862C52.4687 22.832 48.0231 23.705 51.0182 27.9626L51.3002 28.3588C51.9852 26.6128 55.9675 24.7257 54.3625 21.274C54.94 22.8185 53.1134 24.6653 52.0523 25.2697Z" fill="#890C25"/>
</svg>
